{"glyphs":{"0":{"ha":1654,"x_min":83,"x_max":1529,"o":"m 811 203 q 938 206 882 203 q 1039 215 994 208 q 1117 235 1083 222 q 1176 268 1151 249 q 1242 363 1221 304 q 1263 504 1263 421 q 1242 646 1263 588 q 1176 740 1221 704 q 1039 792 1125 779 q 810 806 953 806 l 803 806 q 574 792 660 806 q 436 740 488 779 q 371 646 392 704 q 350 504 350 588 q 371 363 350 421 q 436 268 392 304 q 495 235 461 249 q 574 215 529 222 q 674 206 618 208 q 801 203 731 203 l 811 203 m 829 1025 q 1180 990 1040 1025 q 1403 871 1319 956 q 1497 715 1464 808 q 1529 504 1529 622 q 1497 293 1529 386 q 1403 138 1464 200 q 1179 18 1319 53 q 826 -17 1039 -17 l 783 -17 q 433 18 572 -17 q 210 138 293 53 q 116 293 149 200 q 83 504 83 386 q 116 715 83 622 q 210 871 149 808 q 433 990 293 956 q 783 1025 572 1025 l 829 1025 z "},"1":{"ha":775,"x_min":56,"x_max":578,"o":"m 56 1008 l 578 1008 l 578 0 l 324 0 l 324 811 l 56 811 l 56 1008 z "},"2":{"ha":1482,"x_min":142,"x_max":1301,"o":"m 576 204 l 1301 204 l 1301 0 l 142 0 l 142 186 l 864 574 q 941 617 908 597 q 994 654 974 636 q 1025 691 1015 672 q 1035 733 1035 710 q 1006 792 1035 778 q 914 807 976 807 l 153 807 l 153 1008 l 875 1008 q 999 1004 946 1008 q 1092 990 1051 1000 q 1164 966 1133 981 q 1219 931 1194 951 q 1276 852 1256 899 q 1297 743 1297 806 q 1278 633 1297 681 q 1219 547 1260 586 q 1117 470 1179 507 q 969 392 1056 433 l 576 204 z "},"3":{"ha":1611,"x_min":153,"x_max":1419,"o":"m 1000 604 q 1314 538 1208 608 q 1419 321 1419 468 q 1308 80 1419 160 q 996 0 1196 0 l 153 0 l 153 206 l 940 206 q 1106 230 1054 206 q 1157 324 1157 254 q 1107 407 1157 386 q 947 428 1057 428 l 597 428 l 597 567 l 972 807 l 169 807 l 169 1008 l 1339 1008 l 1339 826 l 1000 604 z "},"4":{"ha":1707,"x_min":125,"x_max":1540,"o":"m 1540 433 l 1540 236 l 1289 236 l 1289 0 l 1039 0 l 1039 236 l 125 236 l 125 422 l 733 1008 l 1065 1008 l 464 433 l 1039 433 l 1039 661 l 1289 661 l 1289 433 l 1540 433 z "},"5":{"ha":1622,"x_min":192,"x_max":1428,"o":"m 960 625 q 1210 605 1114 625 q 1360 531 1307 585 q 1428 322 1428 461 q 1407 189 1428 247 q 1342 90 1386 131 q 1202 22 1289 43 q 972 0 1115 0 l 192 0 l 192 206 l 975 206 q 1076 212 1038 206 q 1135 233 1114 218 q 1158 266 1151 246 q 1165 317 1165 286 q 1160 366 1165 346 q 1140 400 1156 386 q 1085 423 1122 417 q 981 429 1047 429 l 200 429 l 200 1008 l 1358 1008 l 1358 807 l 443 807 l 443 625 l 960 625 z "},"6":{"ha":1649,"x_min":117,"x_max":1488,"o":"m 1379 1008 l 1379 807 l 683 807 q 540 794 597 807 q 447 751 482 782 q 394 635 400 708 l 1049 635 q 1183 629 1125 635 q 1285 613 1242 624 q 1360 585 1329 601 q 1415 546 1392 568 q 1470 460 1453 510 q 1488 349 1488 411 q 1464 210 1488 272 q 1392 104 1440 149 q 1195 13 1324 42 q 861 -17 1067 -17 l 754 -17 q 439 20 564 -17 q 236 140 314 57 q 147 299 176 204 q 117 518 117 394 q 150 722 117 635 q 244 872 183 810 q 660 1008 379 1008 l 1379 1008 m 869 196 q 1078 206 1004 196 q 1189 243 1153 215 q 1219 284 1210 260 q 1228 339 1228 308 q 1222 384 1228 367 q 1201 414 1217 401 q 1144 439 1182 432 q 1044 446 1107 446 l 385 446 q 454 271 386 331 q 578 214 499 232 q 789 196 658 196 l 869 196 z "},"7":{"ha":1361,"x_min":86,"x_max":1258,"o":"m 86 1008 l 1258 1008 l 1258 857 l 650 0 l 353 0 l 936 807 l 86 807 l 86 1008 z "},"8":{"ha":1683,"x_min":117,"x_max":1525,"o":"m 1235 553 q 1356 515 1301 538 q 1447 458 1410 492 q 1505 379 1485 425 q 1525 274 1525 333 q 1508 172 1525 219 q 1446 86 1490 124 q 1379 43 1418 63 q 1285 10 1340 24 q 1158 -10 1231 -3 q 989 -17 1085 -17 l 665 -17 q 363 15 478 -17 q 190 104 249 47 q 134 186 151 140 q 117 283 117 232 q 138 380 117 338 q 195 453 158 422 q 282 503 232 483 q 389 533 332 522 q 231 618 292 560 q 169 779 169 676 q 188 871 169 832 q 242 939 207 910 q 397 1005 297 985 q 639 1025 496 1025 l 1022 1025 q 1274 1006 1181 1025 q 1419 944 1368 988 q 1485 794 1485 890 q 1467 708 1485 746 q 1418 640 1450 669 q 1340 590 1386 611 q 1235 553 1293 569 m 967 176 q 1185 198 1114 176 q 1257 278 1257 219 q 1247 314 1257 299 q 1213 342 1238 329 q 1147 366 1189 356 q 1040 388 1106 376 l 611 456 q 431 397 485 433 q 378 311 378 360 q 393 254 378 279 q 447 212 408 229 q 548 185 485 194 q 707 176 611 176 l 967 176 m 647 832 q 562 829 601 832 q 494 819 522 826 q 449 799 465 811 q 432 765 432 786 q 442 735 432 749 q 475 712 451 722 q 538 692 499 701 q 636 674 578 683 l 990 618 q 1169 683 1111 653 q 1228 756 1228 713 q 1176 813 1228 793 q 1011 832 1124 832 l 647 832 z "},"9":{"ha":1647,"x_min":119,"x_max":1489,"o":"m 229 0 l 229 201 l 925 201 q 1067 215 1011 201 q 1158 258 1124 228 q 1195 306 1182 279 q 1211 372 1208 333 l 557 372 q 333 394 418 372 q 200 463 249 417 q 141 550 163 499 q 119 672 119 601 q 143 801 119 742 q 217 906 167 861 q 408 996 285 967 q 735 1025 532 1025 l 828 1025 q 1155 988 1028 1025 q 1354 883 1282 951 q 1459 716 1429 813 q 1489 490 1489 619 q 1455 290 1489 379 q 1358 138 1421 200 q 931 0 1221 0 l 229 0 m 736 813 q 527 803 601 813 q 417 765 453 793 q 387 724 396 749 q 378 672 378 700 q 423 585 378 608 q 557 561 468 561 l 1221 561 q 1203 665 1218 621 q 1153 740 1188 708 q 1028 796 1108 779 q 818 813 949 813 l 736 813 z "},"\u0000":{"ha":42,"x_min":0,"x_max":0,"o":""},"\r":{"ha":42,"x_min":0,"x_max":0,"o":""}," ":{"ha":486,"x_min":0,"x_max":0,"o":""},"!":{"ha":574,"x_min":122,"x_max":410,"o":"m 367 342 l 164 342 l 133 1008 l 394 1008 l 367 342 m 410 103 q 401 42 410 65 q 373 5 392 18 q 327 -12 354 -8 q 265 -17 300 -17 q 203 -12 231 -17 q 158 5 176 -8 q 131 42 140 18 q 122 103 122 65 q 131 164 122 140 q 158 201 140 188 q 203 218 176 214 q 265 222 231 222 q 327 218 300 222 q 373 201 354 214 q 401 164 392 188 q 410 103 410 140 z "},"\"":{"ha":858,"x_min":83,"x_max":733,"o":"m 300 571 l 114 571 l 83 1106 l 328 1106 l 300 571 m 706 571 l 519 571 l 489 1106 l 733 1106 l 706 571 z "},"#":{"ha":1711,"x_min":56,"x_max":1614,"o":"m 1104 239 l 1031 0 l 825 0 l 899 239 l 561 239 l 488 0 l 282 0 l 356 239 l 56 239 l 108 397 l 406 397 l 475 621 l 167 621 l 221 779 l 524 779 l 596 1008 l 801 1008 l 729 779 l 1067 779 l 1139 1008 l 1344 1008 l 1272 779 l 1614 779 l 1560 621 l 1224 621 l 1154 397 l 1501 397 l 1449 239 l 1104 239 m 611 397 l 949 397 l 1018 621 l 681 621 l 611 397 z "},"$":{"ha":1554,"x_min":78,"x_max":1426,"o":"m 1335 813 l 851 813 l 851 608 l 1008 596 q 1128 583 1075 590 q 1224 565 1182 576 q 1298 535 1265 553 q 1356 493 1331 518 q 1407 415 1388 461 q 1426 301 1426 368 q 1351 100 1426 172 q 1212 24 1299 47 q 986 0 1125 0 l 851 0 l 851 -275 l 654 -275 l 654 0 l 138 0 l 138 196 l 654 196 l 654 408 l 532 418 q 424 428 476 422 q 326 446 372 435 q 238 476 279 457 q 165 522 197 494 q 103 605 128 554 q 78 722 78 656 q 100 834 78 786 q 158 917 122 882 q 299 987 211 965 q 506 1008 386 1008 l 654 1008 l 654 1271 l 851 1271 l 851 1008 l 1335 1008 l 1335 813 m 851 393 l 851 196 l 1021 196 q 1143 219 1106 196 q 1181 292 1181 243 q 1151 353 1181 335 q 1046 379 1122 372 l 851 393 m 319 726 q 353 663 319 682 q 454 639 388 644 l 654 624 l 654 813 l 488 813 q 397 807 435 813 q 340 782 360 801 q 319 726 319 763 z "},"%":{"ha":1943,"x_min":83,"x_max":1818,"o":"m 457 669 q 530 674 501 669 q 574 689 558 678 q 603 768 603 717 q 574 849 603 824 q 530 865 558 861 q 457 868 501 868 l 428 868 q 353 865 381 868 q 310 849 326 861 q 281 768 281 824 q 310 689 281 717 q 353 674 326 678 q 426 669 381 669 l 457 669 m 468 1025 q 634 1007 568 1025 q 739 949 700 989 q 783 873 767 918 q 799 768 799 828 q 783 665 799 710 q 739 590 767 621 q 633 532 700 550 q 467 514 567 514 l 417 514 q 250 532 317 514 q 143 590 183 550 q 99 665 115 621 q 83 768 83 710 q 99 873 83 828 q 143 949 115 918 q 250 1007 183 989 q 417 1025 317 1025 l 468 1025 m 1476 139 q 1549 143 1521 139 q 1593 158 1578 147 q 1622 238 1622 186 q 1593 318 1622 293 q 1549 334 1578 331 q 1476 338 1521 338 l 1447 338 q 1373 334 1400 338 q 1329 318 1346 331 q 1300 238 1300 293 q 1329 158 1300 186 q 1373 143 1346 147 q 1446 139 1400 139 l 1476 139 m 1488 494 q 1653 476 1588 494 q 1758 418 1719 458 q 1802 342 1786 388 q 1818 238 1818 297 q 1802 135 1818 179 q 1758 60 1786 90 q 1653 1 1719 19 q 1486 -17 1586 -17 l 1436 -17 q 1269 1 1336 -17 q 1163 60 1203 19 q 1119 135 1135 90 q 1103 238 1103 179 q 1119 342 1103 297 q 1163 418 1135 388 q 1269 476 1203 458 q 1436 494 1336 494 l 1488 494 m 579 -17 l 325 -17 l 1326 1026 l 1581 1026 l 579 -17 z "},"&":{"ha":1692,"x_min":81,"x_max":1611,"o":"m 1400 615 l 1611 615 l 1611 431 l 1400 431 l 1400 0 l 486 0 q 303 19 375 0 q 181 78 231 39 q 105 171 129 117 q 81 283 81 225 q 126 429 81 375 q 249 518 171 483 q 154 603 190 547 q 118 729 118 658 q 214 932 118 856 q 332 989 261 969 q 503 1008 403 1008 l 1025 1008 l 1025 808 l 522 808 q 451 804 479 808 q 403 785 424 800 q 368 710 368 761 q 376 668 368 688 q 401 636 385 649 q 439 620 417 625 q 493 615 461 615 l 1164 615 l 1164 801 l 1400 801 l 1400 615 m 494 431 q 419 424 450 431 q 368 401 388 418 q 335 322 335 375 q 368 233 335 261 q 426 208 389 215 q 525 200 463 200 l 1164 200 l 1164 431 l 494 431 z "},"'":{"ha":453,"x_min":83,"x_max":328,"o":"m 300 571 l 114 571 l 83 1106 l 328 1106 l 300 571 z "},"(":{"ha":774,"x_min":139,"x_max":704,"o":"m 139 835 q 155 997 139 933 q 211 1097 171 1060 q 301 1149 247 1133 q 435 1164 356 1164 l 704 1164 l 704 985 l 479 985 q 424 978 444 985 q 390 957 404 972 q 375 923 379 943 q 371 874 371 903 l 371 49 q 375 -1 371 19 q 390 -35 379 -21 q 424 -56 404 -50 q 479 -62 444 -62 l 704 -62 l 704 -242 l 436 -242 q 302 -226 357 -242 q 211 -175 247 -211 q 155 -74 171 -137 q 139 88 139 -11 l 139 835 z "},")":{"ha":774,"x_min":28,"x_max":593,"o":"m 593 88 q 577 -74 593 -11 q 521 -175 561 -137 q 430 -226 485 -211 q 296 -242 375 -242 l 28 -242 l 28 -62 l 253 -62 q 308 -56 288 -62 q 342 -35 328 -50 q 357 -1 353 -21 q 361 49 361 19 l 361 874 q 357 923 361 903 q 342 957 353 943 q 308 978 328 972 q 253 985 288 985 l 28 985 l 28 1164 l 297 1164 q 431 1149 376 1164 q 521 1097 485 1133 q 577 997 561 1060 q 593 835 593 933 l 593 88 z "},"*":{"ha":818,"x_min":42,"x_max":735,"o":"m 276 539 l 311 699 l 154 583 l 42 750 l 235 810 l 42 874 l 154 1031 l 310 924 l 276 1086 l 500 1086 l 467 924 l 622 1031 l 735 874 l 542 810 l 735 750 l 622 583 l 465 699 l 500 539 l 276 539 z "},"+":{"ha":1222,"x_min":119,"x_max":1063,"o":"m 119 493 l 478 493 l 478 796 l 704 796 l 704 493 l 1063 493 l 1063 299 l 704 299 l 704 0 l 478 0 l 478 299 l 119 299 l 119 493 z "},",":{"ha":490,"x_min":50,"x_max":376,"o":"m 376 100 q 365 41 376 71 q 331 -31 354 11 l 194 -275 l 50 -275 l 157 -10 q 103 37 125 10 q 82 108 82 64 q 117 197 82 171 q 231 222 153 222 q 340 198 303 222 q 376 100 376 174 z "},"-":{"ha":832,"x_min":97,"x_max":693,"o":"m 97 403 l 693 403 l 693 231 l 97 231 l 97 403 z "},".":{"ha":490,"x_min":81,"x_max":368,"o":"m 368 103 q 359 42 368 65 q 331 5 350 18 q 285 -12 313 -8 q 224 -17 258 -17 q 162 -12 189 -17 q 117 5 135 -8 q 90 42 99 18 q 81 103 81 65 q 90 164 81 140 q 117 201 99 188 q 162 218 135 214 q 224 222 189 222 q 285 218 258 222 q 331 201 313 214 q 359 164 350 188 q 368 103 368 140 z "},"/":{"ha":1029,"x_min":14,"x_max":974,"o":"m 268 -56 l 14 -56 l 719 1044 l 974 1044 l 268 -56 z "},":":{"ha":490,"x_min":81,"x_max":368,"o":"m 368 510 q 359 449 368 472 q 331 412 350 425 q 285 394 313 399 q 224 390 258 390 q 162 394 189 390 q 117 412 135 399 q 90 449 99 425 q 81 510 81 472 q 90 571 81 547 q 117 608 99 594 q 162 625 135 621 q 224 629 189 629 q 285 625 258 629 q 331 608 313 621 q 359 571 350 594 q 368 510 368 547 m 368 103 q 359 42 368 65 q 331 5 350 18 q 285 -12 313 -8 q 224 -17 258 -17 q 162 -12 189 -17 q 117 5 135 -8 q 90 42 99 18 q 81 103 81 65 q 90 164 81 140 q 117 201 99 188 q 162 218 135 214 q 224 222 189 222 q 285 218 258 222 q 331 201 313 214 q 359 164 350 188 q 368 103 368 140 z "},";":{"ha":490,"x_min":50,"x_max":376,"o":"m 374 510 q 365 449 374 472 q 337 412 356 425 q 291 394 318 399 q 229 390 264 390 q 167 394 194 390 q 122 412 140 399 q 95 449 104 425 q 86 510 86 472 q 95 571 86 547 q 122 608 104 594 q 167 625 140 621 q 229 629 194 629 q 291 625 264 629 q 337 608 318 621 q 365 571 356 594 q 374 510 374 547 m 376 100 q 365 41 376 71 q 331 -31 354 11 l 194 -275 l 50 -275 l 157 -10 q 103 37 125 10 q 82 108 82 64 q 117 197 82 171 q 231 222 153 222 q 340 198 303 222 q 376 100 376 174 z "},"<":{"ha":1222,"x_min":132,"x_max":1042,"o":"m 1042 174 l 976 -12 l 132 269 l 132 507 l 974 788 l 1042 607 l 343 389 l 1042 174 z "},"=":{"ha":1222,"x_min":119,"x_max":1063,"o":"m 119 111 l 119 306 l 1063 306 l 1063 111 l 119 111 m 119 501 l 119 696 l 1063 696 l 1063 501 l 119 501 z "},">":{"ha":1222,"x_min":139,"x_max":1049,"o":"m 838 389 l 139 607 l 207 788 l 1049 507 l 1049 269 l 204 -12 l 139 174 l 838 389 z "},"?":{"ha":1269,"x_min":24,"x_max":1197,"o":"m 24 810 l 24 1008 l 833 1008 q 927 1006 886 1008 q 999 999 968 1004 q 1056 987 1031 994 q 1101 967 1081 979 q 1174 890 1150 939 q 1197 767 1197 842 q 1135 583 1197 650 q 935 492 1072 515 l 699 451 q 648 426 660 444 q 636 375 636 408 l 636 303 l 418 303 l 418 454 q 458 563 418 514 q 588 628 497 613 l 822 664 q 881 677 858 669 q 915 694 903 685 q 933 716 928 704 q 938 742 938 728 q 931 780 938 765 q 906 801 924 794 q 867 809 890 808 q 801 810 844 810 l 24 810 m 668 103 q 659 42 668 65 q 631 5 650 18 q 585 -12 613 -8 q 524 -17 558 -17 q 462 -12 489 -17 q 417 5 435 -8 q 390 42 399 18 q 381 103 381 65 q 390 164 381 140 q 417 201 399 188 q 462 218 435 214 q 524 222 489 222 q 585 218 558 222 q 631 201 613 214 q 659 164 650 188 q 668 103 668 140 z "},"@":{"ha":1807,"x_min":72,"x_max":1693,"o":"m 1240 726 l 1240 411 l 1313 411 q 1381 421 1350 411 q 1435 452 1413 431 q 1469 508 1457 474 q 1482 594 1482 543 q 1465 695 1482 651 q 1408 771 1449 739 q 1255 830 1351 815 q 997 844 1158 844 l 807 844 q 563 826 658 844 q 403 761 467 807 q 290 493 290 679 q 319 322 290 389 q 404 214 347 254 q 555 155 467 169 q 771 140 643 140 l 1240 140 l 1240 -17 l 763 -17 q 442 10 575 -17 q 222 108 308 38 q 72 496 72 231 q 130 758 72 653 q 282 921 188 863 q 497 1001 374 978 q 779 1025 621 1025 l 1025 1025 q 1374 990 1235 1025 q 1596 871 1514 956 q 1674 740 1656 808 q 1693 593 1693 672 q 1597 348 1693 435 q 1336 261 1501 261 l 714 261 q 605 280 651 261 q 527 331 558 299 q 481 406 496 364 q 465 496 465 449 q 483 583 465 542 q 531 657 500 625 q 608 708 563 689 q 707 726 653 726 l 1240 726 m 1044 411 l 1044 576 l 750 576 q 690 556 714 576 q 667 494 667 536 q 690 433 667 456 q 750 411 714 411 l 1044 411 z "},"A":{"ha":1633,"x_min":6,"x_max":1586,"o":"m 1175 183 l 408 183 l 288 0 l 6 0 l 690 1008 l 897 1008 l 1586 0 l 1299 0 l 1175 183 m 542 385 l 1040 385 l 789 758 l 542 385 z "},"B":{"ha":1594,"x_min":136,"x_max":1472,"o":"m 1419 756 q 1391 631 1419 682 q 1294 536 1363 579 q 1429 442 1386 504 q 1472 292 1472 379 q 1388 85 1472 157 q 1253 21 1336 42 q 1036 0 1171 0 l 136 0 l 136 1008 l 1056 1008 q 1238 988 1167 1008 q 1351 926 1308 967 q 1403 851 1386 894 q 1419 756 1419 807 m 1036 200 q 1130 206 1094 200 q 1185 228 1165 211 q 1215 313 1215 254 q 1185 397 1215 371 q 1130 419 1165 414 q 1036 424 1094 424 l 390 424 l 390 200 l 1036 200 m 1003 607 q 1090 612 1056 607 q 1142 632 1124 617 q 1163 664 1157 643 q 1169 708 1169 685 q 1163 753 1169 732 q 1142 785 1157 774 q 1089 804 1124 800 q 1003 808 1054 808 l 390 808 l 390 607 l 1003 607 z "},"C":{"ha":1503,"x_min":72,"x_max":1367,"o":"m 339 504 q 360 365 339 424 q 425 269 381 306 q 562 217 476 229 q 790 204 647 204 l 1367 204 l 1367 0 l 753 0 q 415 33 549 0 q 203 144 282 65 q 106 297 140 207 q 72 504 72 388 q 106 711 72 621 q 203 864 140 801 q 415 976 282 943 q 753 1008 549 1008 l 1367 1008 l 1367 804 l 790 804 q 562 792 647 804 q 425 739 476 779 q 360 644 381 703 q 339 504 339 585 z "},"D":{"ha":1672,"x_min":136,"x_max":1558,"o":"m 136 1008 l 876 1008 q 1214 976 1081 1008 q 1426 865 1347 944 q 1524 712 1489 803 q 1558 504 1558 621 q 1524 297 1558 388 q 1426 143 1489 206 q 1214 32 1347 64 q 876 0 1081 0 l 136 0 l 136 1008 m 1292 504 q 1271 644 1292 585 q 1206 739 1250 703 q 1069 792 1154 779 q 840 804 983 804 l 390 804 l 390 204 l 840 204 q 1069 217 983 204 q 1206 269 1154 229 q 1271 365 1250 306 q 1292 504 1292 424 z "},"E":{"ha":1456,"x_min":136,"x_max":1322,"o":"m 1322 0 l 136 0 l 136 1008 l 1318 1008 l 1318 808 l 390 808 l 390 613 l 1015 613 l 1015 421 l 390 421 l 390 200 l 1322 200 l 1322 0 z "},"F":{"ha":1393,"x_min":136,"x_max":1304,"o":"m 390 0 l 136 0 l 136 1008 l 1304 1008 l 1304 808 l 390 808 l 390 613 l 1001 613 l 1001 421 l 390 421 l 390 0 z "},"G":{"ha":1631,"x_min":72,"x_max":1464,"o":"m 1464 0 l 753 0 q 415 33 549 0 q 203 144 282 65 q 106 297 140 207 q 72 504 72 388 q 106 711 72 621 q 203 864 140 801 q 415 976 282 943 q 753 1008 549 1008 l 1435 1008 l 1435 804 l 790 804 q 562 792 647 804 q 425 739 476 779 q 360 644 381 703 q 339 504 339 585 q 360 365 339 424 q 425 269 381 306 q 562 217 476 229 q 790 204 647 204 l 1211 204 l 1211 522 l 1464 522 l 1464 0 z "},"H":{"ha":1701,"x_min":136,"x_max":1524,"o":"m 390 0 l 136 0 l 136 1008 l 390 1008 l 390 625 l 1269 625 l 1269 1008 l 1524 1008 l 1524 0 l 1269 0 l 1269 418 l 390 418 l 390 0 z "},"I":{"ha":579,"x_min":142,"x_max":396,"o":"m 396 0 l 142 0 l 142 1008 l 396 1008 l 396 0 z "},"J":{"ha":1296,"x_min":64,"x_max":1135,"o":"m 64 0 l 64 200 l 565 200 q 727 213 665 200 q 824 257 789 225 q 869 334 857 288 q 881 453 881 381 l 881 1008 l 1135 1008 l 1135 432 q 1129 328 1135 375 q 1112 244 1124 282 q 1081 176 1100 207 q 1036 119 1063 146 q 865 26 969 53 q 599 0 760 0 l 64 0 z "},"K":{"ha":1604,"x_min":136,"x_max":1500,"o":"m 390 549 l 1103 1008 l 1464 1008 l 801 592 l 1500 0 l 1147 0 l 603 467 l 390 331 l 390 0 l 136 0 l 136 1008 l 390 1008 l 390 549 z "},"L":{"ha":1364,"x_min":136,"x_max":1281,"o":"m 1281 0 l 136 0 l 136 1008 l 390 1008 l 390 200 l 1281 200 l 1281 0 z "},"M":{"ha":1994,"x_min":136,"x_max":1817,"o":"m 382 624 l 382 0 l 136 0 l 136 1008 l 369 1008 l 985 283 l 1589 1008 l 1817 1008 l 1817 0 l 1569 0 l 1569 629 l 1085 28 l 885 28 l 382 624 z "},"N":{"ha":1742,"x_min":136,"x_max":1564,"o":"m 375 1008 l 1319 297 l 1319 1008 l 1564 1008 l 1564 0 l 1336 0 l 381 717 l 381 0 l 136 0 l 136 1008 l 375 1008 z "},"O":{"ha":1776,"x_min":72,"x_max":1663,"o":"m 944 204 q 1072 207 1015 204 q 1172 217 1128 210 q 1251 237 1217 224 q 1310 269 1285 250 q 1375 363 1354 306 q 1396 504 1396 421 q 1375 645 1396 588 q 1310 739 1354 703 q 1172 791 1258 778 q 943 804 1086 804 l 792 804 q 563 791 649 804 q 425 739 476 778 q 360 645 381 703 q 339 504 339 588 q 360 363 339 421 q 425 269 381 306 q 484 237 450 250 q 563 217 518 224 q 663 207 607 210 q 790 204 719 204 l 944 204 m 968 1025 q 1319 990 1179 1025 q 1542 871 1458 956 q 1633 715 1603 808 q 1663 504 1663 622 q 1633 293 1663 386 q 1542 138 1603 200 q 1318 18 1458 53 q 965 -17 1178 -17 l 767 -17 q 416 18 556 -17 q 193 138 276 53 q 102 293 132 200 q 72 504 72 386 q 102 715 72 622 q 193 871 132 808 q 416 990 276 956 q 767 1025 556 1025 l 968 1025 z "},"P":{"ha":1578,"x_min":136,"x_max":1469,"o":"m 1001 485 q 1112 494 1072 485 q 1175 528 1151 504 q 1211 647 1211 565 q 1175 765 1211 728 q 1112 799 1151 789 q 1001 808 1072 808 l 390 808 l 390 485 l 1001 485 m 390 285 l 390 0 l 136 0 l 136 1008 l 1026 1008 q 1239 983 1156 1008 q 1375 910 1322 958 q 1447 799 1424 865 q 1469 647 1469 732 q 1447 496 1469 563 q 1375 385 1424 429 q 1239 310 1322 336 q 1026 285 1156 285 l 390 285 z "},"Q":{"ha":1776,"x_min":72,"x_max":1663,"o":"m 968 1025 q 1319 990 1179 1025 q 1542 871 1458 956 q 1633 715 1603 808 q 1663 504 1663 622 q 1633 293 1663 386 q 1542 138 1603 200 q 1392 41 1482 75 q 1176 -7 1303 7 q 1224 -49 1199 -24 q 1289 -124 1249 -75 l 1368 -219 l 1164 -326 l 1003 -133 q 951 -74 972 -97 q 908 -39 929 -51 q 866 -22 888 -26 q 814 -17 844 -17 l 767 -17 q 416 18 556 -17 q 193 138 276 53 q 102 293 132 200 q 72 504 72 386 q 102 715 72 622 q 193 871 132 808 q 416 990 276 956 q 767 1025 556 1025 l 968 1025 m 944 204 q 1072 207 1015 204 q 1172 217 1128 210 q 1251 237 1217 224 q 1310 269 1285 250 q 1375 363 1354 306 q 1396 504 1396 421 q 1375 645 1396 588 q 1310 739 1354 703 q 1172 791 1258 778 q 943 804 1086 804 l 792 804 q 563 791 649 804 q 425 739 476 778 q 360 645 381 703 q 339 504 339 588 q 360 363 339 421 q 425 269 381 306 q 484 237 450 250 q 563 217 518 224 q 663 207 607 210 q 790 204 719 204 l 944 204 z "},"R":{"ha":1649,"x_min":136,"x_max":1540,"o":"m 1031 174 q 962 231 992 208 q 902 265 932 253 q 838 281 872 276 q 758 285 804 285 l 390 285 l 390 0 l 136 0 l 136 1008 l 1032 1008 q 1244 983 1161 1008 q 1381 910 1328 958 q 1452 799 1429 865 q 1475 647 1475 732 q 1452 496 1475 563 q 1381 385 1429 429 q 1174 296 1308 317 q 1258 251 1221 278 q 1343 181 1294 225 l 1540 0 l 1222 0 l 1031 174 m 1007 485 q 1117 494 1078 485 q 1181 528 1157 504 q 1217 647 1217 565 q 1181 765 1217 728 q 1117 799 1157 789 q 1007 808 1078 808 l 390 808 l 390 485 l 1007 485 z "},"S":{"ha":1524,"x_min":53,"x_max":1401,"o":"m 1310 813 l 463 813 q 372 807 410 813 q 315 782 335 801 q 294 726 294 763 q 328 664 294 682 q 429 640 363 646 l 983 597 q 1103 584 1050 592 q 1199 565 1157 576 q 1273 535 1240 553 q 1331 493 1306 518 q 1382 415 1363 461 q 1401 301 1401 368 q 1326 100 1401 172 q 1187 24 1274 47 q 961 0 1100 0 l 113 0 l 113 196 l 996 196 q 1118 219 1081 196 q 1156 290 1156 242 q 1126 352 1156 333 q 1021 378 1097 371 l 507 417 q 399 427 451 421 q 301 445 347 433 q 213 476 254 457 q 140 522 172 494 q 78 605 103 554 q 53 722 53 656 q 75 834 53 786 q 133 917 97 882 q 274 987 186 965 q 481 1008 361 1008 l 1310 1008 l 1310 813 z "},"T":{"ha":1490,"x_min":58,"x_max":1390,"o":"m 58 1008 l 1390 1008 l 1390 808 l 851 808 l 851 0 l 597 0 l 597 808 l 58 808 l 58 1008 z "},"U":{"ha":1660,"x_min":119,"x_max":1499,"o":"m 1499 399 q 1474 224 1499 290 q 1390 110 1449 158 q 1304 54 1354 78 q 1188 15 1254 31 q 1035 -8 1121 0 q 844 -17 950 -17 l 774 -17 q 431 15 561 -17 q 228 110 300 47 q 144 224 169 158 q 119 399 119 290 l 119 1008 l 372 1008 l 372 432 q 383 341 372 379 q 424 275 394 303 q 552 218 467 235 q 785 201 638 201 l 836 201 q 1069 218 983 201 q 1197 275 1154 235 q 1238 341 1226 303 q 1249 432 1249 379 l 1249 1008 l 1499 1008 l 1499 399 z "},"V":{"ha":1594,"x_min":-11,"x_max":1564,"o":"m 1274 1008 l 1564 1008 l 888 0 l 667 0 l -11 1008 l 282 1008 l 783 247 l 1274 1008 z "},"W":{"ha":2251,"x_min":3,"x_max":2207,"o":"m 1208 1008 l 1567 269 l 1943 1008 l 2207 1008 l 1674 0 l 1433 0 l 1106 693 l 775 0 l 535 0 l 3 1008 l 281 1008 l 658 271 l 1010 1008 l 1208 1008 z "},"X":{"ha":1643,"x_min":19,"x_max":1582,"o":"m 792 394 l 339 0 l 19 0 l 635 529 l 85 1008 l 421 1008 l 818 663 l 1214 1008 l 1533 1008 l 978 525 l 1582 0 l 1246 0 l 792 394 z "},"Y":{"ha":1617,"x_min":3,"x_max":1572,"o":"m 1265 1008 l 1572 1008 l 913 365 l 913 0 l 661 0 l 661 364 l 3 1008 l 318 1008 l 790 539 l 1265 1008 z "},"Z":{"ha":1549,"x_min":92,"x_max":1407,"o":"m 1393 828 l 496 200 l 1407 200 l 1407 0 l 92 0 l 92 181 l 989 808 l 93 808 l 93 1008 l 1393 1008 l 1393 828 z "},"[":{"ha":774,"x_min":139,"x_max":704,"o":"m 704 1164 l 704 985 l 371 985 l 371 -62 l 704 -62 l 704 -242 l 139 -242 l 139 1164 l 704 1164 z "},"\\":{"ha":1029,"x_min":14,"x_max":974,"o":"m 719 -56 l 974 -56 l 268 1044 l 14 1044 l 719 -56 z "},"]":{"ha":774,"x_min":28,"x_max":593,"o":"m 593 1164 l 593 -242 l 28 -242 l 28 -62 l 361 -62 l 361 985 l 28 985 l 28 1164 l 593 1164 z "},"^":{"ha":1222,"x_min":150,"x_max":1031,"o":"m 1031 264 l 776 264 l 590 522 l 408 264 l 150 264 l 469 728 l 708 728 l 1031 264 z "},"_":{"ha":1174,"x_min":-75,"x_max":1207,"o":"m -75 -164 l 1207 -164 l 1207 -339 l -75 -339 l -75 -164 z "},"`":{"ha":944,"x_min":207,"x_max":694,"o":"m 694 757 l 472 757 l 207 1014 l 506 1014 l 694 757 z "},"a":{"ha":1246,"x_min":58,"x_max":1104,"o":"m 869 171 l 869 458 l 503 458 q 399 451 440 458 q 335 422 358 444 q 297 314 297 386 q 335 206 297 240 q 399 177 358 183 q 503 171 440 171 l 869 171 m 58 317 q 81 442 58 386 q 144 538 104 497 q 274 608 196 588 q 465 629 353 629 l 1104 629 l 1104 0 l 464 0 q 273 22 351 0 q 143 93 194 43 q 81 190 103 133 q 58 317 58 246 z "},"b":{"ha":1246,"x_min":100,"x_max":1146,"o":"m 100 1008 l 335 1008 l 335 629 l 739 629 q 930 608 851 629 q 1060 538 1008 588 q 1123 442 1100 497 q 1146 317 1146 386 q 1124 190 1146 246 q 1061 93 1101 133 q 931 22 1010 43 q 740 0 853 0 l 100 0 l 100 1008 m 701 171 q 805 177 764 171 q 869 206 846 183 q 907 314 907 240 q 869 422 907 386 q 805 451 846 444 q 701 458 764 458 l 335 458 l 335 171 l 701 171 z "},"c":{"ha":1124,"x_min":58,"x_max":1026,"o":"m 1026 0 l 464 0 q 273 22 351 0 q 143 93 194 43 q 81 190 103 133 q 58 317 58 246 q 81 442 58 386 q 144 538 104 497 q 274 608 196 588 q 465 629 353 629 l 1026 629 l 1026 458 l 503 458 q 399 451 440 458 q 335 422 358 444 q 297 314 297 386 q 335 206 297 240 q 399 177 358 183 q 503 171 440 171 l 1026 171 l 1026 0 z "},"d":{"ha":1246,"x_min":58,"x_max":1104,"o":"m 1104 0 l 464 0 q 273 22 351 0 q 143 93 194 43 q 81 190 103 133 q 58 317 58 246 q 81 442 58 386 q 144 538 104 497 q 274 608 196 588 q 465 629 353 629 l 869 629 l 869 1008 l 1104 1008 l 1104 0 m 869 171 l 869 458 l 503 458 q 399 451 440 458 q 335 422 358 444 q 297 314 297 386 q 335 206 297 240 q 399 177 358 183 q 503 171 440 171 l 869 171 z "},"e":{"ha":1213,"x_min":58,"x_max":1107,"o":"m 301 246 q 309 216 303 231 q 328 192 315 201 q 383 171 347 176 q 482 165 418 165 l 1054 165 l 1054 0 l 442 0 q 260 22 333 0 q 139 89 186 43 q 58 317 58 167 q 83 449 58 396 q 149 539 108 503 q 288 608 201 588 q 485 629 375 629 l 674 629 q 874 611 789 629 q 1017 540 958 593 q 1083 444 1058 503 q 1107 307 1107 386 q 1106 274 1107 292 q 1101 246 1104 257 l 301 246 m 874 383 q 838 447 872 426 q 784 463 818 460 q 701 467 750 467 l 475 467 q 392 463 426 467 q 339 447 358 460 q 303 383 304 426 l 874 383 z "},"f":{"ha":822,"x_min":100,"x_max":822,"o":"m 100 690 q 117 828 100 774 q 174 924 133 883 q 302 990 225 972 q 492 1008 379 1008 l 822 1008 l 822 836 l 525 836 q 426 830 464 836 q 367 803 388 824 q 342 757 350 786 q 335 678 335 728 l 335 629 l 731 629 l 731 465 l 335 465 l 335 0 l 100 0 l 100 690 z "},"g":{"ha":1246,"x_min":58,"x_max":1104,"o":"m 271 -168 l 675 -168 q 777 -160 738 -168 q 840 -125 817 -153 q 863 -83 856 -108 q 869 -17 869 -57 l 869 0 l 464 0 q 273 22 351 0 q 143 93 194 43 q 81 190 103 133 q 58 317 58 246 q 81 442 58 386 q 144 538 104 497 q 274 608 196 588 q 465 629 353 629 l 1104 629 l 1104 -11 q 1085 -156 1104 -100 q 1025 -250 1065 -212 q 899 -319 975 -299 q 706 -339 824 -339 l 271 -339 l 271 -168 m 869 458 l 503 458 q 399 451 440 458 q 335 422 358 444 q 297 314 297 386 q 335 206 297 240 q 399 177 358 183 q 503 171 440 171 l 869 171 l 869 458 z "},"h":{"ha":1211,"x_min":100,"x_max":1083,"o":"m 100 1008 l 335 1008 l 335 629 l 706 629 q 906 609 833 629 q 1019 547 979 589 q 1069 460 1056 511 q 1083 322 1083 408 l 1083 0 l 849 0 l 849 301 q 841 378 849 350 q 817 424 833 407 q 758 451 796 444 q 660 457 721 457 l 335 457 l 335 0 l 100 0 l 100 1008 z "},"i":{"ha":482,"x_min":85,"x_max":354,"o":"m 103 629 l 338 629 l 338 0 l 103 0 l 103 629 m 354 857 q 346 799 354 821 q 321 765 338 776 q 278 749 304 753 q 219 744 253 744 q 160 749 186 744 q 118 765 135 753 q 93 799 101 776 q 85 857 85 821 q 93 915 85 893 q 118 949 101 938 q 160 965 135 961 q 219 969 186 969 q 278 965 253 969 q 321 949 304 961 q 346 915 338 938 q 354 857 354 893 z "},"j":{"ha":482,"x_min":-82,"x_max":354,"o":"m 103 629 l 338 629 l 338 -61 q 326 -187 338 -136 q 278 -274 314 -237 q 188 -322 246 -306 q 33 -339 129 -339 l -82 -339 l -82 -174 l -7 -174 q 85 -149 64 -174 q 99 -115 96 -136 q 103 -67 103 -94 l 103 629 m 354 857 q 346 799 354 821 q 321 765 338 776 q 278 749 304 753 q 219 744 253 744 q 160 749 186 744 q 118 765 135 753 q 93 799 101 776 q 85 857 85 821 q 93 915 85 893 q 118 949 101 938 q 160 965 135 961 q 219 969 186 969 q 278 965 253 969 q 321 949 304 961 q 346 915 338 938 q 354 857 354 893 z "},"k":{"ha":1126,"x_min":100,"x_max":1071,"o":"m 100 1008 l 335 1008 l 335 375 l 725 629 l 1026 629 l 649 390 l 1071 0 l 767 0 l 476 281 l 335 190 l 335 0 l 100 0 l 100 1008 z "},"l":{"ha":482,"x_min":103,"x_max":338,"o":"m 103 1008 l 338 1008 l 338 0 l 103 0 l 103 1008 z "},"m":{"ha":1854,"x_min":100,"x_max":1726,"o":"m 1349 629 q 1549 609 1476 629 q 1663 547 1622 589 q 1713 460 1699 511 q 1726 322 1726 408 l 1726 0 l 1492 0 l 1492 301 q 1484 378 1492 350 q 1460 424 1476 407 q 1401 451 1439 444 q 1303 457 1364 457 l 1026 457 l 1026 0 l 792 0 l 792 457 l 335 457 l 335 0 l 100 0 l 100 629 l 1349 629 z "},"n":{"ha":1211,"x_min":100,"x_max":1083,"o":"m 706 629 q 906 609 833 629 q 1019 547 979 589 q 1069 460 1056 511 q 1083 322 1083 408 l 1083 0 l 849 0 l 849 301 q 841 378 849 350 q 817 424 833 407 q 758 451 796 444 q 660 457 721 457 l 335 457 l 335 0 l 100 0 l 100 629 l 706 629 z "},"o":{"ha":1263,"x_min":58,"x_max":1163,"o":"m 718 172 q 822 178 781 172 q 886 207 863 185 q 924 314 924 242 q 915 377 924 351 q 886 421 906 403 q 822 450 863 443 q 718 457 781 457 l 503 457 q 399 450 440 457 q 335 421 358 443 q 306 377 315 403 q 297 314 297 351 q 335 207 297 242 q 399 178 358 185 q 503 172 440 172 l 718 172 m 464 0 q 273 22 351 0 q 143 93 194 43 q 81 190 103 133 q 58 317 58 246 q 81 442 58 386 q 144 538 104 497 q 274 608 196 588 q 465 629 353 629 l 756 629 q 947 608 868 629 q 1076 538 1025 588 q 1140 442 1117 497 q 1163 317 1163 386 q 1140 190 1163 246 q 1078 93 1118 133 q 948 22 1026 43 q 757 0 869 0 l 464 0 z "},"p":{"ha":1246,"x_min":100,"x_max":1146,"o":"m 100 629 l 740 629 q 931 608 853 629 q 1061 536 1010 586 q 1124 440 1101 496 q 1146 313 1146 383 q 1123 188 1146 243 q 1060 92 1100 132 q 930 21 1008 42 q 739 0 851 0 l 335 0 l 335 -339 l 100 -339 l 100 629 m 335 458 l 335 171 l 701 171 q 805 178 764 171 q 869 207 846 185 q 907 315 907 242 q 869 424 907 388 q 805 452 846 446 q 701 458 764 458 l 335 458 z "},"q":{"ha":1246,"x_min":58,"x_max":1104,"o":"m 1104 -339 l 869 -339 l 869 0 l 465 0 q 274 21 353 0 q 144 92 196 42 q 81 188 104 132 q 58 313 58 243 q 81 440 58 383 q 143 536 103 496 q 273 608 194 586 q 464 629 351 629 l 1104 629 l 1104 -339 m 503 458 q 399 452 440 458 q 335 424 358 446 q 297 315 297 388 q 335 207 297 242 q 399 178 358 185 q 503 171 440 171 l 869 171 l 869 458 l 503 458 z "},"r":{"ha":868,"x_min":86,"x_max":807,"o":"m 86 311 q 103 449 86 394 q 160 544 119 504 q 288 611 211 593 q 478 629 365 629 l 807 629 l 807 457 l 511 457 q 412 451 450 457 q 353 424 374 444 q 328 378 336 407 q 321 299 321 349 l 321 0 l 86 0 l 86 311 z "},"s":{"ha":1151,"x_min":68,"x_max":1047,"o":"m 788 397 q 915 383 867 397 q 994 340 963 369 q 1034 278 1021 315 q 1047 199 1047 240 q 1034 120 1047 157 q 994 58 1021 83 q 915 15 963 29 q 789 0 867 0 l 106 0 l 106 160 l 782 160 q 832 197 832 160 q 782 235 832 235 l 328 235 q 201 249 249 235 q 121 293 153 264 q 81 354 94 318 q 68 432 68 390 q 81 510 68 474 q 121 571 94 546 q 201 615 153 600 q 328 629 250 629 l 996 629 l 996 469 l 333 469 q 283 433 283 469 q 333 397 283 397 l 788 397 z "},"t":{"ha":875,"x_min":83,"x_max":794,"o":"m 83 943 l 318 943 l 318 629 l 721 629 l 721 465 l 318 465 l 318 328 q 326 251 318 279 q 350 206 333 222 q 408 178 371 185 q 507 172 446 172 l 794 172 l 794 0 l 465 0 q 265 20 338 0 q 151 82 192 40 q 99 169 115 118 q 83 307 83 221 l 83 943 z "},"u":{"ha":1197,"x_min":86,"x_max":1056,"o":"m 464 0 q 263 20 336 0 q 150 82 190 40 q 100 169 114 118 q 86 307 86 221 l 86 629 l 321 629 l 321 328 q 328 251 321 279 q 353 206 336 222 q 411 178 374 185 q 510 172 449 172 l 821 172 l 821 629 l 1056 629 l 1056 0 l 464 0 z "},"v":{"ha":1172,"x_min":-8,"x_max":1139,"o":"m 688 0 l 442 0 l -8 629 l 269 629 l 569 194 l 871 629 l 1139 629 l 688 0 z "},"w":{"ha":1667,"x_min":3,"x_max":1622,"o":"m 1274 0 l 1033 0 l 819 363 l 621 0 l 381 0 l 3 629 l 258 629 l 503 207 l 736 629 l 904 629 l 1156 206 l 1381 629 l 1622 629 l 1274 0 z "},"x":{"ha":1214,"x_min":8,"x_max":1164,"o":"m 561 224 l 293 0 l 8 0 l 426 328 l 39 629 l 353 629 l 600 436 l 831 629 l 1119 629 l 736 331 l 1164 0 l 850 0 l 561 224 z "},"y":{"ha":1197,"x_min":86,"x_max":1056,"o":"m 1056 -11 q 1036 -156 1056 -100 q 976 -250 1017 -212 q 851 -319 926 -299 q 657 -339 775 -339 l 222 -339 l 222 -168 l 626 -168 q 728 -160 689 -168 q 792 -125 768 -153 q 814 -83 807 -108 q 821 -17 821 -57 l 821 0 l 464 0 q 263 20 336 0 q 150 82 190 40 q 100 169 114 118 q 86 307 86 221 l 86 629 l 321 629 l 321 328 q 328 251 321 279 q 353 206 336 222 q 411 178 374 185 q 510 172 449 172 l 821 172 l 821 629 l 1056 629 l 1056 -11 z "},"z":{"ha":1167,"x_min":92,"x_max":1039,"o":"m 1039 163 l 1039 0 l 92 0 l 92 131 l 649 467 l 96 467 l 96 629 l 1033 629 l 1033 499 l 476 163 l 1039 163 z "},"{":{"ha":863,"x_min":56,"x_max":793,"o":"m 228 269 q 213 345 228 322 q 154 371 199 368 l 56 376 l 56 568 l 154 574 q 213 599 199 576 q 228 674 228 621 l 228 835 q 244 997 228 933 q 300 1097 260 1060 q 390 1149 336 1133 q 524 1164 444 1164 l 793 1164 l 793 985 l 568 985 q 513 978 533 985 q 479 957 493 972 q 464 923 468 943 q 460 874 460 903 l 460 668 q 429 542 460 599 q 338 464 399 485 l 338 453 q 429 397 399 442 q 460 286 460 353 l 460 49 q 464 -1 460 19 q 479 -35 468 -21 q 513 -56 493 -50 q 568 -62 533 -62 l 793 -62 l 793 -242 l 525 -242 q 391 -226 446 -242 q 300 -175 336 -211 q 244 -74 260 -137 q 228 88 228 -11 l 228 269 z "},"|":{"ha":554,"x_min":143,"x_max":369,"o":"m 369 -440 l 143 -440 l 143 1106 l 369 1106 l 369 -440 z "},"}":{"ha":863,"x_min":28,"x_max":765,"o":"m 593 88 q 577 -74 593 -11 q 521 -175 561 -137 q 430 -226 485 -211 q 296 -242 375 -242 l 28 -242 l 28 -62 l 253 -62 q 308 -56 288 -62 q 342 -35 328 -50 q 357 -1 353 -21 q 361 49 361 19 l 361 286 q 392 397 361 353 q 483 453 422 442 l 483 464 q 392 542 422 485 q 361 668 361 599 l 361 874 q 357 923 361 903 q 342 957 353 943 q 308 978 328 972 q 253 985 288 985 l 28 985 l 28 1164 l 297 1164 q 431 1149 376 1164 q 521 1097 485 1133 q 577 997 561 1060 q 593 835 593 933 l 593 674 q 608 599 593 621 q 667 574 622 576 l 765 568 l 765 376 l 667 371 q 608 345 622 368 q 593 269 593 322 l 593 88 z "},"~":{"ha":1222,"x_min":28,"x_max":1151,"o":"m 1151 565 q 1090 469 1125 511 q 1014 400 1054 428 q 929 358 974 372 q 840 343 885 343 q 711 360 767 343 q 603 399 656 376 l 539 426 q 459 458 499 444 q 383 472 419 472 q 265 439 318 472 q 160 347 213 406 l 28 467 q 190 616 103 564 q 374 668 278 668 q 488 651 432 668 q 607 607 544 635 l 669 578 q 752 544 715 556 q 826 532 789 532 q 925 564 881 532 q 1006 658 969 596 l 1151 565 z "}," ":{"ha":486,"x_min":0,"x_max":0,"o":""},"¡":{"ha":574,"x_min":122,"x_max":410,"o":"m 367 288 l 164 288 l 133 -379 l 394 -379 l 367 288 m 410 526 q 401 588 410 564 q 373 624 392 611 q 327 642 354 637 q 265 646 300 646 q 203 642 231 646 q 158 624 176 637 q 131 588 140 611 q 122 526 122 564 q 131 465 122 489 q 158 429 140 442 q 203 411 176 415 q 265 407 231 407 q 327 411 300 407 q 373 429 354 415 q 401 465 392 442 q 410 526 410 489 z "},"¢":{"ha":1132,"x_min":64,"x_max":1032,"o":"m 760 629 l 1032 629 l 1032 458 l 760 458 l 760 171 l 1032 171 l 1032 0 l 760 0 l 760 -275 l 563 -275 l 563 0 l 469 0 q 278 22 357 0 q 149 93 200 43 q 86 190 108 133 q 64 317 64 246 q 87 442 64 386 q 150 538 110 497 q 280 608 201 588 q 471 629 358 629 l 563 629 l 563 918 l 760 918 l 760 629 m 340 206 q 405 177 364 183 q 508 171 446 171 l 563 171 l 563 458 l 508 458 q 405 451 446 458 q 340 422 364 444 q 303 314 303 386 q 340 206 303 240 z "},"£":{"ha":1461,"x_min":67,"x_max":1344,"o":"m 1301 1008 l 1301 808 l 838 808 q 676 795 738 808 q 579 751 614 782 q 535 682 549 724 q 522 581 522 640 l 1039 581 l 1039 394 l 522 394 l 522 204 l 1344 204 l 1344 0 l 67 0 l 67 204 l 268 204 l 268 560 q 295 756 268 676 q 376 888 322 835 q 549 981 443 953 q 814 1008 654 1008 l 1301 1008 z "},"¤":{"ha":1654,"x_min":158,"x_max":1454,"o":"m 661 188 q 573 192 614 188 q 496 207 532 196 l 331 53 l 158 179 l 324 329 q 283 492 283 397 q 321 650 283 583 l 158 803 l 331 929 l 494 776 q 661 797 567 797 l 935 797 q 1132 767 1047 797 l 1300 926 l 1454 800 l 1279 638 q 1303 569 1294 606 q 1313 492 1313 532 q 1278 342 1313 407 l 1454 179 l 1300 53 l 1131 217 q 935 188 1049 188 l 661 188 m 888 354 q 979 362 940 354 q 1042 392 1018 369 q 1067 433 1057 407 q 1076 492 1076 458 q 1067 551 1076 525 q 1042 593 1057 578 q 979 623 1018 615 q 888 631 940 631 l 708 631 q 617 623 656 631 q 554 593 578 615 q 528 551 538 578 q 519 492 519 525 q 554 392 519 422 q 617 362 578 369 q 708 354 656 354 l 888 354 z "},"¥":{"ha":1517,"x_min":22,"x_max":1453,"o":"m 465 540 l 22 1008 l 336 1008 l 740 564 l 1147 1008 l 1453 1008 l 1007 540 l 1182 540 l 1154 385 l 863 385 l 863 283 l 1140 283 l 1140 128 l 863 128 l 863 0 l 611 0 l 611 128 l 317 128 l 317 283 l 611 283 l 611 385 l 289 385 l 261 540 l 465 540 z "},"¦":{"ha":554,"x_min":143,"x_max":369,"o":"m 369 476 l 143 476 l 143 1106 l 369 1106 l 369 476 m 369 -442 l 143 -442 l 143 201 l 369 201 l 369 -442 z "},"§":{"ha":1200,"x_min":83,"x_max":1075,"o":"m 1075 349 q 1036 213 1075 274 q 928 121 997 153 q 1026 37 990 88 q 1061 -89 1061 -14 q 992 -238 1061 -182 q 796 -294 922 -294 l 139 -294 l 139 -110 l 785 -110 q 844 -75 844 -110 q 832 -50 844 -60 q 788 -31 819 -40 l 318 110 q 147 203 210 142 q 83 365 83 265 q 122 501 83 440 q 231 593 160 561 q 133 677 168 626 q 97 803 97 728 q 167 952 97 896 q 363 1008 236 1008 l 1019 1008 l 1019 824 l 374 824 q 314 789 314 824 q 326 764 314 774 q 371 744 339 754 l 840 604 q 1012 510 949 572 q 1075 349 1075 449 m 733 190 q 783 214 760 200 q 825 245 807 228 q 853 282 843 263 q 864 322 864 301 q 842 383 864 360 q 768 421 821 406 l 425 524 q 375 500 399 514 q 333 469 351 486 q 305 432 315 451 q 294 392 294 413 q 316 331 294 354 q 390 293 338 308 l 733 190 z "},"¨":{"ha":944,"x_min":113,"x_max":789,"o":"m 378 853 q 369 797 378 818 q 343 763 360 775 q 301 747 326 751 q 244 743 276 743 q 188 747 213 743 q 146 763 163 751 q 121 797 129 775 q 113 853 113 818 q 121 909 113 888 q 146 942 129 931 q 188 958 163 954 q 244 963 213 963 q 301 958 276 963 q 343 942 326 954 q 369 909 360 931 q 378 853 378 888 m 789 853 q 780 797 789 818 q 754 763 771 775 q 713 747 738 751 q 656 743 688 743 q 599 747 624 743 q 557 763 574 751 q 532 797 540 775 q 524 853 524 818 q 532 909 524 888 q 557 942 540 931 q 599 958 574 954 q 656 963 624 963 q 713 958 688 963 q 754 942 738 954 q 780 909 771 931 q 789 853 789 888 z "},"©":{"ha":1776,"x_min":72,"x_max":1663,"o":"m 649 504 q 660 445 649 468 q 696 406 671 422 q 764 385 724 388 q 878 383 804 383 l 1147 383 l 1147 249 l 817 249 q 645 265 713 249 q 538 321 578 281 q 488 399 506 353 q 471 504 471 446 q 488 609 471 563 q 538 688 506 656 q 645 744 578 728 q 817 761 713 761 l 1147 761 l 1147 625 l 878 625 q 763 623 804 625 q 696 604 722 621 q 649 504 649 575 m 947 129 q 1220 151 1117 129 q 1385 221 1324 174 q 1463 334 1439 264 q 1488 504 1488 404 q 1463 674 1488 604 q 1385 788 1439 744 q 1220 857 1324 835 q 946 879 1117 879 l 789 879 q 515 857 618 879 q 350 788 411 835 q 272 674 296 744 q 247 504 247 604 q 272 334 247 404 q 350 221 296 264 q 515 151 411 174 q 788 129 618 129 l 947 129 m 767 -17 q 416 19 556 -17 q 193 139 276 54 q 102 294 132 201 q 72 504 72 386 q 102 715 72 622 q 193 869 132 807 q 416 990 276 954 q 767 1025 556 1025 l 968 1025 q 1319 990 1179 1025 q 1542 869 1458 954 q 1633 715 1603 807 q 1663 504 1663 622 q 1633 294 1663 386 q 1542 139 1603 201 q 1319 19 1458 54 q 968 -17 1179 -17 l 767 -17 z "},"ª":{"ha":819,"x_min":74,"x_max":689,"o":"m 518 724 q 500 765 518 756 q 439 775 482 775 l 113 775 l 113 872 l 454 872 q 568 860 521 872 q 646 817 615 847 q 679 760 669 793 q 689 683 689 726 l 689 493 q 588 478 653 485 q 438 472 524 472 l 301 472 q 74 606 74 472 q 83 653 74 632 q 114 691 92 675 q 174 715 136 707 q 269 724 211 724 l 518 724 m 349 642 q 275 635 300 642 q 250 604 250 629 q 281 575 250 581 q 357 569 313 569 l 417 569 q 473 571 446 569 q 517 575 500 572 l 517 642 l 349 642 z "},"«":{"ha":1490,"x_min":75,"x_max":1365,"o":"m 1365 219 l 1274 51 l 763 338 l 763 467 l 1260 743 l 1365 575 l 1040 400 l 1365 219 m 678 219 l 586 51 l 75 338 l 75 467 l 572 743 l 678 575 l 353 400 l 678 219 z "},"¬":{"ha":1222,"x_min":119,"x_max":1063,"o":"m 836 501 l 119 501 l 119 696 l 1063 696 l 1063 111 l 836 111 l 836 501 z "},"­":{"ha":832,"x_min":97,"x_max":693,"o":"m 97 403 l 693 403 l 693 231 l 97 231 l 97 403 z "},"®":{"ha":1776,"x_min":72,"x_max":1663,"o":"m 947 129 q 1220 151 1117 129 q 1385 221 1324 174 q 1463 334 1439 264 q 1488 504 1488 404 q 1463 674 1488 604 q 1385 788 1439 744 q 1220 857 1324 835 q 946 879 1117 879 l 789 879 q 515 857 618 879 q 350 788 411 835 q 272 674 296 744 q 247 504 247 604 q 272 334 247 404 q 350 221 296 264 q 515 151 411 174 q 788 129 618 129 l 947 129 m 960 346 q 938 367 947 360 q 919 379 929 375 q 898 385 910 383 q 868 386 886 386 l 706 386 l 706 249 l 521 249 l 521 761 l 1007 761 q 1099 751 1058 761 q 1169 719 1140 742 q 1213 661 1197 697 q 1228 572 1228 625 q 1192 453 1228 500 q 1090 396 1157 406 q 1128 375 1110 389 q 1168 339 1146 361 l 1256 249 l 1050 249 l 960 346 m 960 513 q 990 514 975 513 q 1017 521 1006 515 q 1037 538 1029 526 q 1044 571 1044 550 q 1021 621 1044 611 q 960 631 997 631 l 706 631 l 706 513 l 960 513 m 767 -17 q 416 19 556 -17 q 193 139 276 54 q 102 294 132 201 q 72 504 72 386 q 102 715 72 622 q 193 869 132 807 q 416 990 276 954 q 767 1025 556 1025 l 968 1025 q 1319 990 1179 1025 q 1542 869 1458 954 q 1633 715 1603 807 q 1663 504 1663 622 q 1633 294 1663 386 q 1542 139 1603 201 q 1319 19 1458 54 q 968 -17 1179 -17 l 767 -17 z "},"¯":{"ha":944,"x_min":94,"x_max":808,"o":"m 94 950 l 808 950 l 808 792 l 94 792 l 94 950 z "},"°":{"ha":786,"x_min":64,"x_max":681,"o":"m 399 772 q 449 777 428 772 q 482 796 471 782 q 500 857 500 813 q 496 893 500 876 q 482 918 492 910 q 449 937 471 932 q 399 942 428 942 l 346 942 q 295 937 315 942 q 263 918 275 932 q 249 893 253 910 q 244 857 244 876 q 263 796 244 813 q 295 777 275 782 q 346 772 315 772 l 399 772 m 314 628 q 198 644 247 628 q 117 696 149 660 q 64 857 64 753 q 78 948 64 907 q 117 1018 92 989 q 198 1070 149 1054 q 314 1086 247 1086 l 431 1086 q 547 1070 497 1086 q 628 1018 596 1054 q 667 948 653 989 q 681 857 681 907 q 628 696 681 753 q 547 644 596 660 q 431 628 497 628 l 314 628 z "},"±":{"ha":1222,"x_min":119,"x_max":1063,"o":"m 119 715 l 478 715 l 478 949 l 704 949 l 704 715 l 1063 715 l 1063 521 l 704 521 l 704 292 l 478 292 l 478 521 l 119 521 l 119 715 m 119 0 l 119 194 l 1063 194 l 1063 0 l 119 0 z "},"²":{"ha":771,"x_min":76,"x_max":663,"o":"m 388 646 l 663 646 l 663 514 l 76 514 l 76 635 l 350 772 q 440 822 417 806 q 463 856 463 838 q 453 878 463 869 q 418 886 444 886 l 83 886 l 83 1018 l 447 1018 q 535 1013 500 1018 q 594 994 569 1008 q 641 951 622 979 q 660 879 660 922 q 628 788 660 825 q 514 710 596 750 l 388 646 z "},"³":{"ha":824,"x_min":76,"x_max":718,"o":"m 525 822 q 674 785 629 822 q 718 676 718 747 q 482 514 718 514 l 76 514 l 76 639 l 454 639 q 506 651 490 639 q 521 683 521 663 q 503 713 521 706 q 451 721 485 721 l 275 721 l 275 793 l 432 894 l 85 894 l 85 1018 l 678 1018 l 678 910 l 525 822 z "},"´":{"ha":944,"x_min":207,"x_max":694,"o":"m 396 1014 l 694 1014 l 429 757 l 207 757 l 396 1014 z "},"¶":{"ha":1365,"x_min":69,"x_max":1190,"o":"m 976 856 l 833 856 l 833 -308 l 619 -308 l 619 353 l 471 353 q 278 376 353 353 q 157 444 204 400 q 91 545 113 485 q 69 681 69 606 q 157 918 69 836 q 279 985 206 963 q 471 1008 353 1008 l 1190 1008 l 1190 -308 l 976 -308 l 976 856 z "},"·":{"ha":476,"x_min":79,"x_max":367,"o":"m 367 415 q 358 354 367 378 q 330 317 349 331 q 284 300 311 304 q 222 296 257 296 q 160 300 188 296 q 115 317 133 304 q 88 354 97 331 q 79 415 79 378 q 88 476 79 453 q 115 513 97 500 q 160 531 133 526 q 222 535 188 535 q 284 531 257 535 q 330 513 311 526 q 358 476 349 500 q 367 415 367 453 z "},"¸":{"ha":944,"x_min":169,"x_max":733,"o":"m 293 11 l 442 11 l 428 -61 l 511 -61 q 676 -107 618 -61 q 733 -233 733 -153 q 674 -378 733 -326 q 485 -429 615 -429 l 169 -429 l 169 -286 l 463 -286 q 521 -276 506 -286 q 536 -246 536 -267 q 522 -213 536 -222 q 464 -204 507 -204 l 249 -204 l 293 11 z "},"¹":{"ha":525,"x_min":78,"x_max":407,"o":"m 78 1018 l 407 1018 l 407 514 l 224 514 l 224 878 l 78 878 l 78 1018 z "},"º":{"ha":819,"x_min":50,"x_max":728,"o":"m 436 588 q 492 592 468 588 q 531 611 517 597 q 553 674 553 629 q 531 736 553 718 q 492 755 517 750 q 436 760 468 760 l 343 760 q 285 755 310 760 q 247 736 261 750 q 226 674 226 717 q 247 611 226 629 q 285 592 261 597 q 343 588 310 588 l 436 588 m 299 472 q 103 533 167 472 q 50 674 50 583 q 103 814 50 764 q 299 874 164 874 l 479 874 q 675 814 614 874 q 728 674 728 764 q 675 533 728 583 q 479 472 611 472 l 299 472 z "},"»":{"ha":1490,"x_min":83,"x_max":1374,"o":"m 408 400 l 83 575 l 189 743 l 686 467 l 686 338 l 175 51 l 83 219 l 408 400 m 1096 400 l 771 575 l 876 743 l 1374 467 l 1374 338 l 863 51 l 771 219 l 1096 400 z "},"¼":{"ha":1821,"x_min":164,"x_max":1611,"o":"m 1611 217 l 1611 96 l 1500 96 l 1500 0 l 1332 0 l 1332 96 l 889 96 l 889 207 l 1193 504 l 1392 504 l 1090 217 l 1332 217 l 1332 331 l 1500 331 l 1500 217 l 1611 217 m 421 -17 l 167 -17 l 1168 1026 l 1422 1026 l 421 -17 m 164 1018 l 493 1018 l 493 514 l 310 514 l 310 878 l 164 878 l 164 1018 z "},"½":{"ha":1819,"x_min":164,"x_max":1625,"o":"m 421 -17 l 167 -17 l 1168 1026 l 1422 1026 l 421 -17 m 164 1018 l 493 1018 l 493 514 l 310 514 l 310 878 l 164 878 l 164 1018 m 1350 132 l 1625 132 l 1625 0 l 1039 0 l 1039 121 l 1313 258 q 1402 308 1379 292 q 1425 342 1425 324 q 1416 364 1425 356 q 1381 372 1407 372 l 1046 372 l 1046 504 l 1410 504 q 1497 499 1463 504 q 1557 481 1532 494 q 1603 437 1585 465 q 1622 365 1622 408 q 1590 274 1622 311 q 1476 196 1558 236 l 1350 132 z "},"¾":{"ha":1803,"x_min":58,"x_max":1686,"o":"m 1686 217 l 1686 96 l 1575 96 l 1575 0 l 1407 0 l 1407 96 l 964 96 l 964 207 l 1268 504 l 1467 504 l 1165 217 l 1407 217 l 1407 331 l 1575 331 l 1575 217 l 1686 217 m 507 822 q 656 785 611 822 q 700 676 700 747 q 464 514 700 514 l 58 514 l 58 639 l 436 639 q 488 651 472 639 q 503 683 503 663 q 485 713 503 706 q 433 721 467 721 l 257 721 l 257 793 l 414 894 l 67 894 l 67 1018 l 660 1018 l 660 910 l 507 822 m 496 -17 l 242 -17 l 1243 1026 l 1497 1026 l 496 -17 z "},"¿":{"ha":1199,"x_min":49,"x_max":1222,"o":"m 1222 -180 l 1222 -379 l 413 -379 q 319 -377 360 -379 q 247 -370 278 -375 q 190 -357 215 -365 q 145 -337 165 -350 q 72 -261 96 -310 q 49 -137 49 -212 q 111 47 49 -21 q 311 138 174 114 l 547 178 q 598 203 586 185 q 610 254 610 221 l 610 326 l 828 326 l 828 175 q 788 66 828 115 q 658 2 749 17 l 424 -35 q 365 -48 388 -40 q 331 -65 343 -55 q 313 -87 318 -75 q 309 -112 309 -98 q 315 -151 309 -136 q 340 -172 322 -165 q 379 -180 356 -179 q 445 -180 402 -180 l 1222 -180 m 578 526 q 587 588 578 564 q 615 624 596 611 q 661 642 633 637 q 722 646 688 646 q 784 642 757 646 q 829 624 811 637 q 856 588 847 611 q 865 526 865 564 q 856 465 865 489 q 829 429 847 442 q 784 411 811 415 q 722 407 757 407 q 661 411 688 407 q 615 429 633 415 q 587 465 596 442 q 578 526 578 489 z "},"À":{"ha":1633,"x_min":6,"x_max":1586,"o":"m 1175 183 l 408 183 l 288 0 l 6 0 l 690 1008 l 897 1008 l 1586 0 l 1299 0 l 1175 183 m 542 385 l 1040 385 l 789 758 l 542 385 m 982 1118 l 760 1118 l 494 1375 l 793 1375 l 982 1118 z "},"Á":{"ha":1633,"x_min":6,"x_max":1586,"o":"m 1175 183 l 408 183 l 288 0 l 6 0 l 690 1008 l 897 1008 l 1586 0 l 1299 0 l 1175 183 m 542 385 l 1040 385 l 789 758 l 542 385 m 826 1375 l 1125 1375 l 860 1118 l 638 1118 l 826 1375 z "},"Â":{"ha":1633,"x_min":6,"x_max":1586,"o":"m 1175 183 l 408 183 l 288 0 l 6 0 l 690 1008 l 897 1008 l 1586 0 l 1299 0 l 1175 183 m 542 385 l 1040 385 l 789 758 l 542 385 m 671 1099 l 436 1099 l 694 1360 l 896 1360 l 1154 1099 l 919 1099 l 801 1214 l 789 1214 l 671 1099 z "},"Ã":{"ha":1633,"x_min":6,"x_max":1586,"o":"m 1175 183 l 408 183 l 288 0 l 6 0 l 690 1008 l 897 1008 l 1586 0 l 1299 0 l 1175 183 m 542 385 l 1040 385 l 789 758 l 542 385 m 1192 1269 q 1148 1208 1174 1236 q 1091 1157 1122 1179 q 1024 1122 1060 1135 q 953 1110 989 1110 q 871 1121 904 1110 q 801 1147 838 1132 l 764 1164 q 712 1180 736 1175 q 664 1185 688 1185 q 576 1165 619 1185 q 494 1108 532 1144 l 400 1201 q 522 1308 453 1268 q 674 1347 590 1347 q 736 1341 701 1347 q 807 1318 771 1335 l 846 1300 q 898 1278 874 1288 q 954 1268 922 1268 q 1026 1290 990 1268 q 1092 1350 1061 1311 l 1192 1269 z "},"Ä":{"ha":1633,"x_min":6,"x_max":1586,"o":"m 1175 183 l 408 183 l 288 0 l 6 0 l 690 1008 l 897 1008 l 1586 0 l 1299 0 l 1175 183 m 542 385 l 1040 385 l 789 758 l 542 385 m 722 1215 q 713 1159 722 1181 q 688 1126 704 1138 q 646 1110 671 1114 q 589 1106 621 1106 q 532 1110 557 1106 q 490 1126 507 1114 q 465 1159 474 1138 q 457 1215 457 1181 q 465 1272 457 1250 q 490 1305 474 1293 q 532 1321 507 1317 q 589 1325 557 1325 q 646 1321 621 1325 q 688 1305 671 1317 q 713 1272 704 1293 q 722 1215 722 1250 m 1133 1215 q 1124 1159 1133 1181 q 1099 1126 1115 1138 q 1057 1110 1082 1114 q 1000 1106 1032 1106 q 943 1110 968 1106 q 901 1126 918 1114 q 876 1159 885 1138 q 868 1215 868 1181 q 876 1272 868 1250 q 901 1305 885 1293 q 943 1321 918 1317 q 1000 1325 968 1325 q 1057 1321 1032 1325 q 1099 1305 1082 1317 q 1124 1272 1115 1293 q 1133 1215 1133 1250 z "},"Å":{"ha":1633,"x_min":6,"x_max":1586,"o":"m 1175 183 l 408 183 l 288 0 l 6 0 l 690 1008 l 897 1008 l 1586 0 l 1299 0 l 1175 183 m 542 385 l 1040 385 l 789 758 l 542 385 m 814 1200 q 874 1215 858 1200 q 886 1256 886 1225 q 883 1279 886 1268 q 874 1296 881 1290 q 814 1311 858 1311 l 778 1311 q 718 1296 735 1311 q 708 1279 711 1290 q 706 1256 706 1268 q 718 1215 706 1225 q 778 1200 735 1200 l 814 1200 m 754 1106 q 674 1116 708 1106 q 617 1150 639 1126 q 579 1256 579 1188 q 617 1361 579 1321 q 674 1395 639 1385 q 754 1406 708 1406 l 838 1406 q 918 1395 883 1406 q 975 1361 953 1385 q 1013 1256 1013 1321 q 975 1150 1013 1188 q 918 1116 953 1126 q 838 1106 883 1106 l 754 1106 z "},"Æ":{"ha":2293,"x_min":6,"x_max":2160,"o":"m 2160 0 l 974 0 l 974 183 l 436 183 l 282 0 l 6 0 l 851 1008 l 2156 1008 l 2156 808 l 1228 808 l 1228 613 l 1853 613 l 1853 421 l 1228 421 l 1228 200 l 2160 200 l 2160 0 m 607 385 l 974 385 l 974 811 l 960 811 l 607 385 z "},"Ç":{"ha":1503,"x_min":72,"x_max":1367,"o":"m 708 0 q 400 36 522 3 q 203 144 278 69 q 106 297 140 207 q 72 504 72 388 q 106 711 72 621 q 203 864 140 801 q 415 976 282 943 q 753 1008 549 1008 l 1367 1008 l 1367 804 l 790 804 q 562 792 647 804 q 425 739 476 779 q 360 644 381 703 q 339 504 339 585 q 360 365 339 424 q 425 269 381 306 q 562 217 476 229 q 790 204 647 204 l 1367 204 l 1367 0 l 857 0 l 846 -61 l 929 -61 q 1094 -107 1036 -61 q 1151 -233 1151 -153 q 1092 -378 1151 -326 q 903 -429 1033 -429 l 588 -429 l 588 -286 l 881 -286 q 939 -276 924 -286 q 954 -246 954 -267 q 940 -213 954 -222 q 882 -204 925 -204 l 667 -204 l 708 0 z "},"È":{"ha":1456,"x_min":136,"x_max":1322,"o":"m 1322 0 l 136 0 l 136 1008 l 1318 1008 l 1318 808 l 390 808 l 390 613 l 1015 613 l 1015 421 l 390 421 l 390 200 l 1322 200 l 1322 0 m 981 1118 l 758 1118 l 493 1375 l 792 1375 l 981 1118 z "},"É":{"ha":1456,"x_min":136,"x_max":1322,"o":"m 1322 0 l 136 0 l 136 1008 l 1318 1008 l 1318 808 l 390 808 l 390 613 l 1015 613 l 1015 421 l 390 421 l 390 200 l 1322 200 l 1322 0 m 769 1375 l 1068 1375 l 803 1118 l 581 1118 l 769 1375 z "},"Ê":{"ha":1456,"x_min":136,"x_max":1322,"o":"m 1322 0 l 136 0 l 136 1008 l 1318 1008 l 1318 808 l 390 808 l 390 613 l 1015 613 l 1015 421 l 390 421 l 390 200 l 1322 200 l 1322 0 m 621 1099 l 386 1099 l 644 1360 l 846 1360 l 1104 1099 l 869 1099 l 751 1214 l 739 1214 l 621 1099 z "},"Ë":{"ha":1456,"x_min":136,"x_max":1322,"o":"m 1322 0 l 136 0 l 136 1008 l 1318 1008 l 1318 808 l 390 808 l 390 613 l 1015 613 l 1015 421 l 390 421 l 390 200 l 1322 200 l 1322 0 m 665 1215 q 656 1159 665 1181 q 631 1126 647 1138 q 589 1110 614 1114 q 532 1106 564 1106 q 475 1110 500 1106 q 433 1126 450 1114 q 408 1159 417 1138 q 400 1215 400 1181 q 408 1272 400 1250 q 433 1305 417 1293 q 475 1321 450 1317 q 532 1325 500 1325 q 589 1321 564 1325 q 631 1305 614 1317 q 656 1272 647 1293 q 665 1215 665 1250 m 1076 1215 q 1067 1159 1076 1181 q 1042 1126 1058 1138 q 1000 1110 1025 1114 q 943 1106 975 1106 q 886 1110 911 1106 q 844 1126 861 1114 q 819 1159 828 1138 q 811 1215 811 1181 q 819 1272 811 1250 q 844 1305 828 1293 q 886 1321 861 1317 q 943 1325 911 1325 q 1000 1321 975 1325 q 1042 1305 1025 1317 q 1067 1272 1058 1293 q 1076 1215 1076 1250 z "},"Ì":{"ha":579,"x_min":-64,"x_max":424,"o":"m 396 0 l 142 0 l 142 1008 l 396 1008 l 396 0 m 424 1118 l 201 1118 l -64 1375 l 235 1375 l 424 1118 z "},"Í":{"ha":579,"x_min":110,"x_max":597,"o":"m 396 0 l 142 0 l 142 1008 l 396 1008 l 396 0 m 299 1375 l 597 1375 l 332 1118 l 110 1118 l 299 1375 z "},"Î":{"ha":579,"x_min":-90,"x_max":628,"o":"m 396 0 l 142 0 l 142 1008 l 396 1008 l 396 0 m 144 1099 l -90 1099 l 168 1360 l 369 1360 l 628 1099 l 393 1099 l 275 1214 l 263 1214 l 144 1099 z "},"Ï":{"ha":579,"x_min":-69,"x_max":607,"o":"m 396 0 l 142 0 l 142 1008 l 396 1008 l 396 0 m 196 1215 q 187 1159 196 1181 q 161 1126 178 1138 q 119 1110 144 1114 q 63 1106 94 1106 q 6 1110 31 1106 q -36 1126 -19 1114 q -61 1159 -53 1138 q -69 1215 -69 1181 q -61 1272 -69 1250 q -36 1305 -53 1293 q 6 1321 -19 1317 q 63 1325 31 1325 q 119 1321 94 1325 q 161 1305 144 1317 q 187 1272 178 1293 q 196 1215 196 1250 m 607 1215 q 598 1159 607 1181 q 572 1126 589 1138 q 531 1110 556 1114 q 474 1106 506 1106 q 417 1110 442 1106 q 375 1126 392 1114 q 350 1159 358 1138 q 342 1215 342 1181 q 350 1272 342 1250 q 375 1305 358 1293 q 417 1321 392 1317 q 474 1325 442 1325 q 531 1321 506 1325 q 572 1305 556 1317 q 598 1272 589 1293 q 607 1215 607 1250 z "},"Ð":{"ha":1707,"x_min":25,"x_max":1593,"o":"m 25 606 l 171 606 l 171 1008 l 911 1008 q 1249 976 1115 1008 q 1461 865 1382 944 q 1558 712 1524 803 q 1593 504 1593 621 q 1558 297 1593 388 q 1461 143 1524 206 q 1249 32 1382 64 q 911 0 1115 0 l 171 0 l 171 433 l 25 433 l 25 606 m 1326 504 q 1306 644 1326 585 q 1240 739 1285 703 q 1103 792 1189 779 q 875 804 1018 804 l 425 804 l 425 606 l 668 606 l 668 433 l 425 433 l 425 204 l 875 204 q 1103 217 1018 204 q 1240 269 1189 229 q 1306 365 1285 306 q 1326 504 1326 424 z "},"Ñ":{"ha":1742,"x_min":136,"x_max":1564,"o":"m 375 1008 l 1319 297 l 1319 1008 l 1564 1008 l 1564 0 l 1336 0 l 381 717 l 381 0 l 136 0 l 136 1008 l 375 1008 m 1260 1269 q 1216 1208 1242 1236 q 1159 1157 1190 1179 q 1092 1122 1128 1135 q 1021 1110 1057 1110 q 939 1121 972 1110 q 869 1147 906 1132 l 832 1164 q 780 1180 804 1175 q 732 1185 756 1185 q 644 1165 688 1185 q 563 1108 600 1144 l 468 1201 q 590 1308 521 1268 q 742 1347 658 1347 q 804 1341 769 1347 q 875 1318 839 1335 l 914 1300 q 966 1278 942 1288 q 1022 1268 990 1268 q 1094 1290 1058 1268 q 1160 1350 1129 1311 l 1260 1269 z "},"Ò":{"ha":1776,"x_min":72,"x_max":1663,"o":"m 944 204 q 1072 207 1015 204 q 1172 217 1128 210 q 1251 237 1217 224 q 1310 269 1285 250 q 1375 363 1354 306 q 1396 504 1396 421 q 1375 645 1396 588 q 1310 739 1354 703 q 1172 791 1258 778 q 943 804 1086 804 l 792 804 q 563 791 649 804 q 425 739 476 778 q 360 645 381 703 q 339 504 339 588 q 360 363 339 421 q 425 269 381 306 q 484 237 450 250 q 563 217 518 224 q 663 207 607 210 q 790 204 719 204 l 944 204 m 968 1025 q 1319 990 1179 1025 q 1542 871 1458 956 q 1633 715 1603 808 q 1663 504 1663 622 q 1633 293 1663 386 q 1542 138 1603 200 q 1318 18 1458 53 q 965 -17 1178 -17 l 767 -17 q 416 18 556 -17 q 193 138 276 53 q 102 293 132 200 q 72 504 72 386 q 102 715 72 622 q 193 871 132 808 q 416 990 276 956 q 767 1025 556 1025 l 968 1025 m 1063 1118 l 840 1118 l 575 1375 l 874 1375 l 1063 1118 z "},"Ó":{"ha":1776,"x_min":72,"x_max":1663,"o":"m 944 204 q 1072 207 1015 204 q 1172 217 1128 210 q 1251 237 1217 224 q 1310 269 1285 250 q 1375 363 1354 306 q 1396 504 1396 421 q 1375 645 1396 588 q 1310 739 1354 703 q 1172 791 1258 778 q 943 804 1086 804 l 792 804 q 563 791 649 804 q 425 739 476 778 q 360 645 381 703 q 339 504 339 588 q 360 363 339 421 q 425 269 381 306 q 484 237 450 250 q 563 217 518 224 q 663 207 607 210 q 790 204 719 204 l 944 204 m 968 1025 q 1319 990 1179 1025 q 1542 871 1458 956 q 1633 715 1603 808 q 1663 504 1663 622 q 1633 293 1663 386 q 1542 138 1603 200 q 1318 18 1458 53 q 965 -17 1178 -17 l 767 -17 q 416 18 556 -17 q 193 138 276 53 q 102 293 132 200 q 72 504 72 386 q 102 715 72 622 q 193 871 132 808 q 416 990 276 956 q 767 1025 556 1025 l 968 1025 m 869 1375 l 1168 1375 l 903 1118 l 681 1118 l 869 1375 z "},"Ô":{"ha":1776,"x_min":72,"x_max":1663,"o":"m 944 204 q 1072 207 1015 204 q 1172 217 1128 210 q 1251 237 1217 224 q 1310 269 1285 250 q 1375 363 1354 306 q 1396 504 1396 421 q 1375 645 1396 588 q 1310 739 1354 703 q 1172 791 1258 778 q 943 804 1086 804 l 792 804 q 563 791 649 804 q 425 739 476 778 q 360 645 381 703 q 339 504 339 588 q 360 363 339 421 q 425 269 381 306 q 484 237 450 250 q 563 217 518 224 q 663 207 607 210 q 790 204 719 204 l 944 204 m 968 1025 q 1319 990 1179 1025 q 1542 871 1458 956 q 1633 715 1603 808 q 1663 504 1663 622 q 1633 293 1663 386 q 1542 138 1603 200 q 1318 18 1458 53 q 965 -17 1178 -17 l 767 -17 q 416 18 556 -17 q 193 138 276 53 q 102 293 132 200 q 72 504 72 386 q 102 715 72 622 q 193 871 132 808 q 416 990 276 956 q 767 1025 556 1025 l 968 1025 m 743 1099 l 508 1099 l 767 1360 l 968 1360 l 1226 1099 l 992 1099 l 874 1214 l 861 1214 l 743 1099 z "},"Õ":{"ha":1776,"x_min":72,"x_max":1663,"o":"m 944 204 q 1072 207 1015 204 q 1172 217 1128 210 q 1251 237 1217 224 q 1310 269 1285 250 q 1375 363 1354 306 q 1396 504 1396 421 q 1375 645 1396 588 q 1310 739 1354 703 q 1172 791 1258 778 q 943 804 1086 804 l 792 804 q 563 791 649 804 q 425 739 476 778 q 360 645 381 703 q 339 504 339 588 q 360 363 339 421 q 425 269 381 306 q 484 237 450 250 q 563 217 518 224 q 663 207 607 210 q 790 204 719 204 l 944 204 m 968 1025 q 1319 990 1179 1025 q 1542 871 1458 956 q 1633 715 1603 808 q 1663 504 1663 622 q 1633 293 1663 386 q 1542 138 1603 200 q 1318 18 1458 53 q 965 -17 1178 -17 l 767 -17 q 416 18 556 -17 q 193 138 276 53 q 102 293 132 200 q 72 504 72 386 q 102 715 72 622 q 193 871 132 808 q 416 990 276 956 q 767 1025 556 1025 l 968 1025 m 1263 1269 q 1219 1208 1244 1236 q 1162 1157 1193 1179 q 1095 1122 1131 1135 q 1024 1110 1060 1110 q 942 1121 975 1110 q 872 1147 908 1132 l 835 1164 q 783 1180 807 1175 q 735 1185 758 1185 q 647 1165 690 1185 q 565 1108 603 1144 l 471 1201 q 592 1308 524 1268 q 744 1347 661 1347 q 807 1341 772 1347 q 878 1318 842 1335 l 917 1300 q 969 1278 944 1288 q 1025 1268 993 1268 q 1097 1290 1061 1268 q 1163 1350 1132 1311 l 1263 1269 z "},"Ö":{"ha":1776,"x_min":72,"x_max":1663,"o":"m 944 204 q 1072 207 1015 204 q 1172 217 1128 210 q 1251 237 1217 224 q 1310 269 1285 250 q 1375 363 1354 306 q 1396 504 1396 421 q 1375 645 1396 588 q 1310 739 1354 703 q 1172 791 1258 778 q 943 804 1086 804 l 792 804 q 563 791 649 804 q 425 739 476 778 q 360 645 381 703 q 339 504 339 588 q 360 363 339 421 q 425 269 381 306 q 484 237 450 250 q 563 217 518 224 q 663 207 607 210 q 790 204 719 204 l 944 204 m 968 1025 q 1319 990 1179 1025 q 1542 871 1458 956 q 1633 715 1603 808 q 1663 504 1663 622 q 1633 293 1663 386 q 1542 138 1603 200 q 1318 18 1458 53 q 965 -17 1178 -17 l 767 -17 q 416 18 556 -17 q 193 138 276 53 q 102 293 132 200 q 72 504 72 386 q 102 715 72 622 q 193 871 132 808 q 416 990 276 956 q 767 1025 556 1025 l 968 1025 m 794 1215 q 785 1159 794 1181 q 760 1126 776 1138 q 718 1110 743 1114 q 661 1106 693 1106 q 604 1110 629 1106 q 563 1126 579 1114 q 538 1159 546 1138 q 529 1215 529 1181 q 538 1272 529 1250 q 563 1305 546 1293 q 604 1321 579 1317 q 661 1325 629 1325 q 718 1321 693 1325 q 760 1305 743 1317 q 785 1272 776 1293 q 794 1215 794 1250 m 1206 1215 q 1197 1159 1206 1181 q 1171 1126 1188 1138 q 1129 1110 1154 1114 q 1072 1106 1104 1106 q 1015 1110 1040 1106 q 974 1126 990 1114 q 949 1159 957 1138 q 940 1215 940 1181 q 949 1272 940 1250 q 974 1305 957 1293 q 1015 1321 990 1317 q 1072 1325 1040 1325 q 1129 1321 1104 1325 q 1171 1305 1154 1317 q 1197 1272 1188 1293 q 1206 1215 1206 1250 z "},"×":{"ha":1222,"x_min":135,"x_max":1046,"o":"m 1046 150 l 886 24 l 590 261 l 294 24 l 135 150 l 428 393 l 135 632 l 294 758 l 592 522 l 886 758 l 1046 632 l 753 388 l 1046 150 z "},"Ø":{"ha":1776,"x_min":14,"x_max":1738,"o":"m 968 1025 q 1253 1004 1132 1025 q 1457 935 1374 983 l 1651 1050 l 1738 928 l 1575 831 q 1663 504 1663 707 q 1633 293 1663 386 q 1542 138 1603 200 q 1318 18 1458 53 q 965 -17 1178 -17 l 767 -17 q 489 3 607 -17 q 288 67 371 22 l 106 -42 l 14 81 l 165 169 q 95 316 118 232 q 72 504 72 400 q 102 715 72 622 q 193 871 132 808 q 416 990 276 956 q 767 1025 556 1025 l 968 1025 m 339 504 q 351 388 339 438 q 390 303 363 339 l 1206 786 q 1093 801 1157 797 q 943 806 1029 806 l 792 806 q 563 792 649 806 q 425 740 476 779 q 360 646 381 704 q 339 504 339 588 m 944 203 q 1072 206 1015 203 q 1172 215 1128 208 q 1251 235 1217 222 q 1310 268 1285 249 q 1375 363 1354 304 q 1396 504 1396 421 q 1350 697 1396 629 l 544 218 q 651 206 590 208 q 790 203 711 203 l 944 203 z "},"Ù":{"ha":1660,"x_min":119,"x_max":1499,"o":"m 1499 399 q 1474 224 1499 290 q 1390 110 1449 158 q 1304 54 1354 78 q 1188 15 1254 31 q 1035 -8 1121 0 q 844 -17 950 -17 l 774 -17 q 431 15 561 -17 q 228 110 300 47 q 144 224 169 158 q 119 399 119 290 l 119 1008 l 372 1008 l 372 432 q 383 341 372 379 q 424 275 394 303 q 552 218 467 235 q 785 201 638 201 l 836 201 q 1069 218 983 201 q 1197 275 1154 235 q 1238 341 1226 303 q 1249 432 1249 379 l 1249 1008 l 1499 1008 l 1499 399 m 1081 1118 l 858 1118 l 593 1375 l 892 1375 l 1081 1118 z "},"Ú":{"ha":1660,"x_min":119,"x_max":1499,"o":"m 1499 399 q 1474 224 1499 290 q 1390 110 1449 158 q 1304 54 1354 78 q 1188 15 1254 31 q 1035 -8 1121 0 q 844 -17 950 -17 l 774 -17 q 431 15 561 -17 q 228 110 300 47 q 144 224 169 158 q 119 399 119 290 l 119 1008 l 372 1008 l 372 432 q 383 341 372 379 q 424 275 394 303 q 552 218 467 235 q 785 201 638 201 l 836 201 q 1069 218 983 201 q 1197 275 1154 235 q 1238 341 1226 303 q 1249 432 1249 379 l 1249 1008 l 1499 1008 l 1499 399 m 838 1375 l 1136 1375 l 871 1118 l 649 1118 l 838 1375 z "},"Û":{"ha":1660,"x_min":119,"x_max":1499,"o":"m 1499 399 q 1474 224 1499 290 q 1390 110 1449 158 q 1304 54 1354 78 q 1188 15 1254 31 q 1035 -8 1121 0 q 844 -17 950 -17 l 774 -17 q 431 15 561 -17 q 228 110 300 47 q 144 224 169 158 q 119 399 119 290 l 119 1008 l 372 1008 l 372 432 q 383 341 372 379 q 424 275 394 303 q 552 218 467 235 q 785 201 638 201 l 836 201 q 1069 218 983 201 q 1197 275 1154 235 q 1238 341 1226 303 q 1249 432 1249 379 l 1249 1008 l 1499 1008 l 1499 399 m 685 1099 l 450 1099 l 708 1360 l 910 1360 l 1168 1099 l 933 1099 l 815 1214 l 803 1214 l 685 1099 z "},"Ü":{"ha":1660,"x_min":119,"x_max":1499,"o":"m 1499 399 q 1474 224 1499 290 q 1390 110 1449 158 q 1304 54 1354 78 q 1188 15 1254 31 q 1035 -8 1121 0 q 844 -17 950 -17 l 774 -17 q 431 15 561 -17 q 228 110 300 47 q 144 224 169 158 q 119 399 119 290 l 119 1008 l 372 1008 l 372 432 q 383 341 372 379 q 424 275 394 303 q 552 218 467 235 q 785 201 638 201 l 836 201 q 1069 218 983 201 q 1197 275 1154 235 q 1238 341 1226 303 q 1249 432 1249 379 l 1249 1008 l 1499 1008 l 1499 399 m 736 1215 q 727 1159 736 1181 q 701 1126 718 1138 q 660 1110 685 1114 q 603 1106 635 1106 q 546 1110 571 1106 q 504 1126 521 1114 q 479 1159 488 1138 q 471 1215 471 1181 q 479 1272 471 1250 q 504 1305 488 1293 q 546 1321 521 1317 q 603 1325 571 1325 q 660 1321 635 1325 q 701 1305 685 1317 q 727 1272 718 1293 q 736 1215 736 1250 m 1147 1215 q 1138 1159 1147 1181 q 1113 1126 1129 1138 q 1071 1110 1096 1114 q 1014 1106 1046 1106 q 957 1110 982 1106 q 915 1126 932 1114 q 890 1159 899 1138 q 882 1215 882 1181 q 890 1272 882 1250 q 915 1305 899 1293 q 957 1321 932 1317 q 1014 1325 982 1325 q 1071 1321 1046 1325 q 1113 1305 1096 1317 q 1138 1272 1129 1293 q 1147 1215 1147 1250 z "},"Ý":{"ha":1617,"x_min":3,"x_max":1572,"o":"m 1265 1008 l 1572 1008 l 913 365 l 913 0 l 661 0 l 661 364 l 3 1008 l 318 1008 l 790 539 l 1265 1008 m 800 1375 l 1099 1375 l 833 1118 l 611 1118 l 800 1375 z "},"Þ":{"ha":1578,"x_min":136,"x_max":1469,"o":"m 1001 361 q 1112 371 1072 361 q 1175 404 1151 381 q 1211 524 1211 442 q 1175 642 1211 604 q 1112 675 1151 665 q 1001 685 1072 685 l 390 685 l 390 361 l 1001 361 m 390 161 l 390 0 l 136 0 l 136 1008 l 390 1008 l 390 885 l 1026 885 q 1239 860 1156 885 q 1375 786 1322 835 q 1447 675 1424 742 q 1469 524 1469 608 q 1447 372 1469 439 q 1375 261 1424 306 q 1239 187 1322 213 q 1026 161 1156 161 l 390 161 z "},"ß":{"ha":1506,"x_min":100,"x_max":1400,"o":"m 469 0 l 469 171 l 963 171 q 1062 179 1022 171 q 1125 207 1101 188 q 1161 306 1161 238 q 1128 397 1161 368 q 1069 422 1106 417 q 971 428 1033 428 l 526 428 l 526 513 l 526 599 l 863 599 q 951 603 915 599 q 1008 632 986 608 q 1036 722 1036 663 q 1007 808 1036 781 q 954 832 988 826 q 871 838 921 838 l 335 838 l 335 -117 l 100 -117 l 100 1008 l 904 1008 q 1010 1003 964 1008 q 1091 987 1056 997 q 1153 961 1126 976 q 1200 926 1179 946 q 1251 851 1235 894 q 1268 756 1268 807 q 1238 638 1268 689 q 1157 561 1208 588 q 1256 532 1211 551 q 1332 482 1300 513 q 1382 408 1364 451 q 1400 304 1400 364 q 1315 85 1400 157 q 1181 21 1264 42 q 964 0 1097 0 l 469 0 z "},"à":{"ha":1246,"x_min":58,"x_max":1104,"o":"m 869 171 l 869 458 l 503 458 q 399 451 440 458 q 335 422 358 444 q 297 314 297 386 q 335 206 297 240 q 399 177 358 183 q 503 171 440 171 l 869 171 m 58 317 q 81 442 58 386 q 144 538 104 497 q 274 608 196 588 q 465 629 353 629 l 1104 629 l 1104 0 l 464 0 q 273 22 351 0 q 143 93 194 43 q 81 190 103 133 q 58 317 58 246 m 863 757 l 640 757 l 375 1014 l 674 1014 l 863 757 z "},"á":{"ha":1246,"x_min":58,"x_max":1104,"o":"m 869 171 l 869 458 l 503 458 q 399 451 440 458 q 335 422 358 444 q 297 314 297 386 q 335 206 297 240 q 399 177 358 183 q 503 171 440 171 l 869 171 m 58 317 q 81 442 58 386 q 144 538 104 497 q 274 608 196 588 q 465 629 353 629 l 1104 629 l 1104 0 l 464 0 q 273 22 351 0 q 143 93 194 43 q 81 190 103 133 q 58 317 58 246 m 650 1014 l 949 1014 l 683 757 l 461 757 l 650 1014 z "},"â":{"ha":1246,"x_min":58,"x_max":1104,"o":"m 869 171 l 869 458 l 503 458 q 399 451 440 458 q 335 422 358 444 q 297 314 297 386 q 335 206 297 240 q 399 177 358 183 q 503 171 440 171 l 869 171 m 58 317 q 81 442 58 386 q 144 538 104 497 q 274 608 196 588 q 465 629 353 629 l 1104 629 l 1104 0 l 464 0 q 273 22 351 0 q 143 93 194 43 q 81 190 103 133 q 58 317 58 246 m 515 738 l 281 738 l 539 999 l 740 999 l 999 738 l 764 738 l 646 853 l 633 853 l 515 738 z "},"ã":{"ha":1246,"x_min":58,"x_max":1104,"o":"m 869 171 l 869 458 l 503 458 q 399 451 440 458 q 335 422 358 444 q 297 314 297 386 q 335 206 297 240 q 399 177 358 183 q 503 171 440 171 l 869 171 m 58 317 q 81 442 58 386 q 144 538 104 497 q 274 608 196 588 q 465 629 353 629 l 1104 629 l 1104 0 l 464 0 q 273 22 351 0 q 143 93 194 43 q 81 190 103 133 q 58 317 58 246 m 1003 908 q 959 847 985 875 q 902 796 933 818 q 835 761 871 774 q 764 749 800 749 q 682 760 715 749 q 613 786 649 771 l 575 803 q 523 819 547 814 q 475 824 499 824 q 387 803 431 824 q 306 747 343 783 l 211 840 q 333 947 264 907 q 485 986 401 986 q 547 980 513 986 q 618 957 582 974 l 657 939 q 709 917 685 926 q 765 907 733 907 q 837 928 801 907 q 903 989 872 950 l 1003 908 z "},"ä":{"ha":1246,"x_min":58,"x_max":1104,"o":"m 869 171 l 869 458 l 503 458 q 399 451 440 458 q 335 422 358 444 q 297 314 297 386 q 335 206 297 240 q 399 177 358 183 q 503 171 440 171 l 869 171 m 58 317 q 81 442 58 386 q 144 538 104 497 q 274 608 196 588 q 465 629 353 629 l 1104 629 l 1104 0 l 464 0 q 273 22 351 0 q 143 93 194 43 q 81 190 103 133 q 58 317 58 246 m 551 853 q 542 797 551 818 q 517 763 533 775 q 475 747 500 751 q 418 743 450 743 q 361 747 386 743 q 319 763 336 751 q 294 797 303 775 q 286 853 286 818 q 294 909 286 888 q 319 942 303 931 q 361 958 336 954 q 418 963 386 963 q 475 958 450 963 q 517 942 500 954 q 542 909 533 931 q 551 853 551 888 m 963 853 q 953 797 963 818 q 928 763 944 775 q 886 747 911 751 q 829 743 861 743 q 772 747 797 743 q 731 763 747 751 q 706 797 714 775 q 697 853 697 818 q 706 909 697 888 q 731 942 714 931 q 772 958 747 954 q 829 963 797 963 q 886 958 861 963 q 928 942 911 954 q 953 909 944 931 q 963 853 963 888 z "},"å":{"ha":1246,"x_min":58,"x_max":1104,"o":"m 869 171 l 869 458 l 503 458 q 399 451 440 458 q 335 422 358 444 q 297 314 297 386 q 335 206 297 240 q 399 177 358 183 q 503 171 440 171 l 869 171 m 58 317 q 81 442 58 386 q 144 538 104 497 q 274 608 196 588 q 465 629 353 629 l 1104 629 l 1104 0 l 464 0 q 273 22 351 0 q 143 93 194 43 q 81 190 103 133 q 58 317 58 246 m 657 839 q 717 854 701 839 q 729 894 729 864 q 726 918 729 907 q 717 935 724 929 q 657 950 701 950 l 621 950 q 561 935 578 950 q 551 918 554 929 q 549 894 549 907 q 561 854 549 864 q 621 839 578 839 l 657 839 m 597 744 q 517 755 551 744 q 460 789 482 765 q 422 894 422 826 q 460 1000 422 960 q 517 1034 482 1024 q 597 1044 551 1044 l 681 1044 q 761 1034 726 1044 q 818 1000 796 1024 q 856 894 856 960 q 818 789 856 826 q 761 755 796 765 q 681 744 726 744 l 597 744 z "},"æ":{"ha":2022,"x_min":67,"x_max":1917,"o":"m 871 383 q 863 413 869 399 q 844 438 857 428 q 790 458 825 453 q 690 464 754 464 l 118 464 l 118 629 l 731 629 q 886 614 821 629 q 997 567 951 599 q 1127 614 1051 599 q 1294 629 1203 629 l 1483 629 q 1683 611 1599 629 q 1826 540 1768 593 q 1892 444 1868 503 q 1917 307 1917 386 q 1915 274 1917 292 q 1911 246 1914 257 l 1111 246 q 1119 216 1113 231 q 1138 192 1125 201 q 1192 171 1157 176 q 1292 165 1228 165 l 1864 165 l 1864 0 l 1251 0 q 1096 15 1161 0 q 983 61 1031 31 q 854 15 929 29 q 688 0 779 0 l 390 0 q 144 51 221 0 q 67 206 67 101 q 133 340 67 296 q 328 383 199 383 l 871 383 m 390 246 q 322 238 340 246 q 303 206 303 231 q 321 172 303 182 q 385 163 339 163 l 697 163 q 780 166 746 163 q 833 182 814 169 q 869 246 868 203 l 390 246 m 1683 383 q 1647 447 1682 426 q 1594 463 1628 460 q 1511 467 1560 467 l 1285 467 q 1202 463 1236 467 q 1149 447 1168 460 q 1113 383 1114 426 l 1683 383 z "},"ç":{"ha":1124,"x_min":58,"x_max":1026,"o":"m 501 0 l 464 0 q 273 22 351 0 q 143 93 194 43 q 81 190 103 133 q 58 317 58 246 q 81 442 58 386 q 144 538 104 497 q 274 608 196 588 q 465 629 353 629 l 1026 629 l 1026 458 l 503 458 q 399 451 440 458 q 335 422 358 444 q 297 314 297 386 q 335 206 297 240 q 399 177 358 183 q 503 171 440 171 l 1026 171 l 1026 0 l 650 0 l 639 -61 l 722 -61 q 887 -107 829 -61 q 944 -233 944 -153 q 885 -378 944 -326 q 696 -429 826 -429 l 381 -429 l 381 -286 l 674 -286 q 732 -276 717 -286 q 747 -246 747 -267 q 733 -213 747 -222 q 675 -204 718 -204 l 460 -204 l 501 0 z "},"è":{"ha":1213,"x_min":58,"x_max":1107,"o":"m 301 246 q 309 216 303 231 q 328 192 315 201 q 383 171 347 176 q 482 165 418 165 l 1054 165 l 1054 0 l 442 0 q 260 22 333 0 q 139 89 186 43 q 58 317 58 167 q 83 449 58 396 q 149 539 108 503 q 288 608 201 588 q 485 629 375 629 l 674 629 q 874 611 789 629 q 1017 540 958 593 q 1083 444 1058 503 q 1107 307 1107 386 q 1106 274 1107 292 q 1101 246 1104 257 l 301 246 m 874 383 q 838 447 872 426 q 784 463 818 460 q 701 467 750 467 l 475 467 q 392 463 426 467 q 339 447 358 460 q 303 383 304 426 l 874 383 m 765 757 l 543 757 l 278 1014 l 576 1014 l 765 757 z "},"é":{"ha":1213,"x_min":58,"x_max":1107,"o":"m 301 246 q 309 216 303 231 q 328 192 315 201 q 383 171 347 176 q 482 165 418 165 l 1054 165 l 1054 0 l 442 0 q 260 22 333 0 q 139 89 186 43 q 58 317 58 167 q 83 449 58 396 q 149 539 108 503 q 288 608 201 588 q 485 629 375 629 l 674 629 q 874 611 789 629 q 1017 540 958 593 q 1083 444 1058 503 q 1107 307 1107 386 q 1106 274 1107 292 q 1101 246 1104 257 l 301 246 m 874 383 q 838 447 872 426 q 784 463 818 460 q 701 467 750 467 l 475 467 q 392 463 426 467 q 339 447 358 460 q 303 383 304 426 l 874 383 m 619 1014 l 918 1014 l 653 757 l 431 757 l 619 1014 z "},"ê":{"ha":1213,"x_min":58,"x_max":1107,"o":"m 301 246 q 309 216 303 231 q 328 192 315 201 q 383 171 347 176 q 482 165 418 165 l 1054 165 l 1054 0 l 442 0 q 260 22 333 0 q 139 89 186 43 q 58 317 58 167 q 83 449 58 396 q 149 539 108 503 q 288 608 201 588 q 485 629 375 629 l 674 629 q 874 611 789 629 q 1017 540 958 593 q 1083 444 1058 503 q 1107 307 1107 386 q 1106 274 1107 292 q 1101 246 1104 257 l 301 246 m 874 383 q 838 447 872 426 q 784 463 818 460 q 701 467 750 467 l 475 467 q 392 463 426 467 q 339 447 358 460 q 303 383 304 426 l 874 383 m 461 738 l 226 738 l 485 999 l 686 999 l 944 738 l 710 738 l 592 853 l 579 853 l 461 738 z "},"ë":{"ha":1213,"x_min":58,"x_max":1107,"o":"m 301 246 q 309 216 303 231 q 328 192 315 201 q 383 171 347 176 q 482 165 418 165 l 1054 165 l 1054 0 l 442 0 q 260 22 333 0 q 139 89 186 43 q 58 317 58 167 q 83 449 58 396 q 149 539 108 503 q 288 608 201 588 q 485 629 375 629 l 674 629 q 874 611 789 629 q 1017 540 958 593 q 1083 444 1058 503 q 1107 307 1107 386 q 1106 274 1107 292 q 1101 246 1104 257 l 301 246 m 874 383 q 838 447 872 426 q 784 463 818 460 q 701 467 750 467 l 475 467 q 392 463 426 467 q 339 447 358 460 q 303 383 304 426 l 874 383 m 513 853 q 503 797 513 818 q 478 763 494 775 q 436 747 461 751 q 379 743 411 743 q 322 747 347 743 q 281 763 297 751 q 256 797 264 775 q 247 853 247 818 q 256 909 247 888 q 281 942 264 931 q 322 958 297 954 q 379 963 347 963 q 436 958 411 963 q 478 942 461 954 q 503 909 494 931 q 513 853 513 888 m 924 853 q 915 797 924 818 q 889 763 906 775 q 847 747 872 751 q 790 743 822 743 q 733 747 758 743 q 692 763 708 751 q 667 797 675 775 q 658 853 658 818 q 667 909 658 888 q 692 942 675 931 q 733 958 708 954 q 790 963 758 963 q 847 958 822 963 q 889 942 872 954 q 915 909 906 931 q 924 853 924 888 z "},"ì":{"ha":482,"x_min":-62,"x_max":425,"o":"m 103 629 l 338 629 l 338 0 l 103 0 l 103 629 m 425 757 l 203 757 l -62 1014 l 236 1014 l 425 757 z "},"í":{"ha":482,"x_min":67,"x_max":554,"o":"m 103 629 l 338 629 l 338 0 l 103 0 l 103 629 m 256 1014 l 554 1014 l 289 757 l 67 757 l 256 1014 z "},"î":{"ha":482,"x_min":-139,"x_max":579,"o":"m 103 629 l 338 629 l 338 0 l 103 0 l 103 629 m 96 738 l -139 738 l 119 999 l 321 999 l 579 738 l 344 738 l 226 853 l 214 853 l 96 738 z "},"ï":{"ha":482,"x_min":-118,"x_max":558,"o":"m 103 629 l 338 629 l 338 0 l 103 0 l 103 629 m 147 853 q 138 797 147 818 q 113 763 129 775 q 71 747 96 751 q 14 743 46 743 q -43 747 -18 743 q -85 763 -68 751 q -110 797 -101 775 q -118 853 -118 818 q -110 909 -118 888 q -85 942 -101 931 q -43 958 -68 954 q 14 963 -18 963 q 71 958 46 963 q 113 942 96 954 q 138 909 129 931 q 147 853 147 888 m 558 853 q 549 797 558 818 q 524 763 540 775 q 482 747 507 751 q 425 743 457 743 q 368 747 393 743 q 326 763 343 751 q 301 797 310 775 q 293 853 293 818 q 301 909 293 888 q 326 942 310 931 q 368 958 343 954 q 425 963 393 963 q 482 958 457 963 q 524 942 507 954 q 549 909 540 931 q 558 853 558 888 z "},"ð":{"ha":1218,"x_min":58,"x_max":1104,"o":"m 851 976 q 897 962 872 971 q 947 938 922 953 q 1030 865 999 906 q 1078 773 1061 825 q 1099 656 1094 721 q 1104 507 1104 590 l 1104 325 q 743 0 1104 0 l 464 0 q 273 22 351 0 q 143 93 194 43 q 81 190 103 133 q 58 317 58 246 q 81 442 58 386 q 144 538 104 497 q 274 608 196 588 q 465 629 353 629 l 865 629 l 865 647 q 846 740 865 699 q 782 804 826 781 l 735 688 l 613 735 l 654 838 q 607 840 631 840 q 565 840 583 840 l 440 840 l 440 1008 l 575 1008 q 719 1000 654 1008 l 764 1111 l 886 1063 l 851 976 m 690 171 q 776 178 742 171 q 832 206 811 186 q 861 259 853 225 q 869 346 869 293 l 869 458 l 503 458 q 399 451 440 458 q 335 422 358 444 q 297 314 297 386 q 335 206 297 240 q 399 177 358 183 q 503 171 440 171 l 690 171 z "},"ñ":{"ha":1211,"x_min":117,"x_max":1100,"o":"m 722 629 q 923 609 850 629 q 1036 547 996 589 q 1086 460 1072 511 q 1100 322 1100 408 l 1100 0 l 865 0 l 865 301 q 858 378 865 350 q 833 424 850 407 q 775 451 813 444 q 676 457 738 457 l 351 457 l 351 0 l 117 0 l 117 629 l 722 629 m 992 908 q 948 847 974 875 q 891 796 922 818 q 824 761 860 774 q 753 749 789 749 q 671 760 704 749 q 601 786 638 771 l 564 803 q 512 819 536 814 q 464 824 488 824 q 376 803 419 824 q 294 747 332 783 l 200 840 q 322 947 253 907 q 474 986 390 986 q 536 980 501 986 q 607 957 571 974 l 646 939 q 698 917 674 926 q 754 907 722 907 q 826 928 790 907 q 892 989 861 950 l 992 908 z "},"ò":{"ha":1263,"x_min":58,"x_max":1163,"o":"m 718 172 q 822 178 781 172 q 886 207 863 185 q 924 314 924 242 q 915 377 924 351 q 886 421 906 403 q 822 450 863 443 q 718 457 781 457 l 503 457 q 399 450 440 457 q 335 421 358 443 q 306 377 315 403 q 297 314 297 351 q 335 207 297 242 q 399 178 358 185 q 503 172 440 172 l 718 172 m 464 0 q 273 22 351 0 q 143 93 194 43 q 81 190 103 133 q 58 317 58 246 q 81 442 58 386 q 144 538 104 497 q 274 608 196 588 q 465 629 353 629 l 756 629 q 947 608 868 629 q 1076 538 1025 588 q 1140 442 1117 497 q 1163 317 1163 386 q 1140 190 1163 246 q 1078 93 1118 133 q 948 22 1026 43 q 757 0 869 0 l 464 0 m 826 757 l 604 757 l 339 1014 l 638 1014 l 826 757 z "},"ó":{"ha":1263,"x_min":58,"x_max":1163,"o":"m 718 172 q 822 178 781 172 q 886 207 863 185 q 924 314 924 242 q 915 377 924 351 q 886 421 906 403 q 822 450 863 443 q 718 457 781 457 l 503 457 q 399 450 440 457 q 335 421 358 443 q 306 377 315 403 q 297 314 297 351 q 335 207 297 242 q 399 178 358 185 q 503 172 440 172 l 718 172 m 464 0 q 273 22 351 0 q 143 93 194 43 q 81 190 103 133 q 58 317 58 246 q 81 442 58 386 q 144 538 104 497 q 274 608 196 588 q 465 629 353 629 l 756 629 q 947 608 868 629 q 1076 538 1025 588 q 1140 442 1117 497 q 1163 317 1163 386 q 1140 190 1163 246 q 1078 93 1118 133 q 948 22 1026 43 q 757 0 869 0 l 464 0 m 625 1014 l 924 1014 l 658 757 l 436 757 l 625 1014 z "},"ô":{"ha":1263,"x_min":58,"x_max":1163,"o":"m 718 172 q 822 178 781 172 q 886 207 863 185 q 924 314 924 242 q 915 377 924 351 q 886 421 906 403 q 822 450 863 443 q 718 457 781 457 l 503 457 q 399 450 440 457 q 335 421 358 443 q 306 377 315 403 q 297 314 297 351 q 335 207 297 242 q 399 178 358 185 q 503 172 440 172 l 718 172 m 464 0 q 273 22 351 0 q 143 93 194 43 q 81 190 103 133 q 58 317 58 246 q 81 442 58 386 q 144 538 104 497 q 274 608 196 588 q 465 629 353 629 l 756 629 q 947 608 868 629 q 1076 538 1025 588 q 1140 442 1117 497 q 1163 317 1163 386 q 1140 190 1163 246 q 1078 93 1118 133 q 948 22 1026 43 q 757 0 869 0 l 464 0 m 486 738 l 251 738 l 510 999 l 711 999 l 969 738 l 735 738 l 617 853 l 604 853 l 486 738 z "},"õ":{"ha":1263,"x_min":58,"x_max":1163,"o":"m 718 172 q 822 178 781 172 q 886 207 863 185 q 924 314 924 242 q 915 377 924 351 q 886 421 906 403 q 822 450 863 443 q 718 457 781 457 l 503 457 q 399 450 440 457 q 335 421 358 443 q 306 377 315 403 q 297 314 297 351 q 335 207 297 242 q 399 178 358 185 q 503 172 440 172 l 718 172 m 464 0 q 273 22 351 0 q 143 93 194 43 q 81 190 103 133 q 58 317 58 246 q 81 442 58 386 q 144 538 104 497 q 274 608 196 588 q 465 629 353 629 l 756 629 q 947 608 868 629 q 1076 538 1025 588 q 1140 442 1117 497 q 1163 317 1163 386 q 1140 190 1163 246 q 1078 93 1118 133 q 948 22 1026 43 q 757 0 869 0 l 464 0 m 1006 908 q 962 847 988 875 q 905 796 936 818 q 838 761 874 774 q 767 749 803 749 q 685 760 718 749 q 615 786 651 771 l 578 803 q 526 819 550 814 q 478 824 501 824 q 390 803 433 824 q 308 747 346 783 l 214 840 q 335 947 267 907 q 488 986 404 986 q 550 980 515 986 q 621 957 585 974 l 660 939 q 712 917 688 926 q 768 907 736 907 q 840 928 804 907 q 906 989 875 950 l 1006 908 z "},"ö":{"ha":1263,"x_min":58,"x_max":1163,"o":"m 718 172 q 822 178 781 172 q 886 207 863 185 q 924 314 924 242 q 915 377 924 351 q 886 421 906 403 q 822 450 863 443 q 718 457 781 457 l 503 457 q 399 450 440 457 q 335 421 358 443 q 306 377 315 403 q 297 314 297 351 q 335 207 297 242 q 399 178 358 185 q 503 172 440 172 l 718 172 m 464 0 q 273 22 351 0 q 143 93 194 43 q 81 190 103 133 q 58 317 58 246 q 81 442 58 386 q 144 538 104 497 q 274 608 196 588 q 465 629 353 629 l 756 629 q 947 608 868 629 q 1076 538 1025 588 q 1140 442 1117 497 q 1163 317 1163 386 q 1140 190 1163 246 q 1078 93 1118 133 q 948 22 1026 43 q 757 0 869 0 l 464 0 m 538 853 q 528 797 538 818 q 503 763 519 775 q 461 747 486 751 q 404 743 436 743 q 347 747 372 743 q 306 763 322 751 q 281 797 289 775 q 272 853 272 818 q 281 909 272 888 q 306 942 289 931 q 347 958 322 954 q 404 963 372 963 q 461 958 436 963 q 503 942 486 954 q 528 909 519 931 q 538 853 538 888 m 949 853 q 940 797 949 818 q 914 763 931 775 q 872 747 897 751 q 815 743 847 743 q 758 747 783 743 q 717 763 733 751 q 692 797 700 775 q 683 853 683 818 q 692 909 683 888 q 717 942 700 931 q 758 958 733 954 q 815 963 783 963 q 872 958 847 963 q 914 942 897 954 q 940 909 931 931 q 949 853 949 888 z "},"÷":{"ha":1222,"x_min":119,"x_max":1063,"o":"m 119 299 l 119 493 l 1063 493 l 1063 299 l 119 299 m 714 100 q 706 48 714 68 q 682 17 697 28 q 644 1 667 6 q 590 -3 621 -3 q 538 1 561 -3 q 499 17 515 6 q 476 48 483 28 q 468 100 468 68 q 499 183 468 164 q 590 203 531 203 q 682 183 650 203 q 714 100 714 164 m 714 692 q 706 640 714 660 q 682 608 697 619 q 644 593 667 597 q 590 589 621 589 q 538 593 561 589 q 499 608 515 597 q 476 640 483 619 q 468 692 468 660 q 499 775 468 756 q 590 794 531 794 q 682 775 650 794 q 714 692 714 756 z "},"ø":{"ha":1346,"x_min":18,"x_max":1297,"o":"m 506 0 q 360 11 424 0 q 249 47 297 22 l 76 -36 l 18 60 l 156 126 q 100 317 100 203 q 123 442 100 386 q 186 538 146 497 q 316 608 238 588 q 507 629 394 629 l 797 629 q 956 616 888 629 q 1074 572 1024 603 l 1244 656 l 1297 558 l 1157 490 q 1204 317 1204 417 q 1182 190 1204 246 q 1119 93 1160 133 q 990 22 1068 43 q 799 0 911 0 l 506 0 m 339 314 q 360 225 339 258 l 831 454 q 797 456 815 456 q 760 457 779 457 l 544 457 q 441 450 482 457 q 376 421 400 443 q 348 377 357 403 q 339 314 339 351 m 760 172 q 863 178 822 172 q 928 207 904 185 q 965 314 965 242 q 950 389 965 358 l 504 172 l 544 172 l 760 172 z "},"ù":{"ha":1197,"x_min":86,"x_max":1056,"o":"m 464 0 q 263 20 336 0 q 150 82 190 40 q 100 169 114 118 q 86 307 86 221 l 86 629 l 321 629 l 321 328 q 328 251 321 279 q 353 206 336 222 q 411 178 374 185 q 510 172 449 172 l 821 172 l 821 629 l 1056 629 l 1056 0 l 464 0 m 731 757 l 508 757 l 243 1014 l 542 1014 l 731 757 z "},"ú":{"ha":1197,"x_min":86,"x_max":1056,"o":"m 464 0 q 263 20 336 0 q 150 82 190 40 q 100 169 114 118 q 86 307 86 221 l 86 629 l 321 629 l 321 328 q 328 251 321 279 q 353 206 336 222 q 411 178 374 185 q 510 172 449 172 l 821 172 l 821 629 l 1056 629 l 1056 0 l 464 0 m 644 1014 l 943 1014 l 678 757 l 456 757 l 644 1014 z "},"û":{"ha":1197,"x_min":86,"x_max":1056,"o":"m 464 0 q 263 20 336 0 q 150 82 190 40 q 100 169 114 118 q 86 307 86 221 l 86 629 l 321 629 l 321 328 q 328 251 321 279 q 353 206 336 222 q 411 178 374 185 q 510 172 449 172 l 821 172 l 821 629 l 1056 629 l 1056 0 l 464 0 m 453 738 l 218 738 l 476 999 l 678 999 l 936 738 l 701 738 l 583 853 l 571 853 l 453 738 z "},"ü":{"ha":1197,"x_min":86,"x_max":1056,"o":"m 464 0 q 263 20 336 0 q 150 82 190 40 q 100 169 114 118 q 86 307 86 221 l 86 629 l 321 629 l 321 328 q 328 251 321 279 q 353 206 336 222 q 411 178 374 185 q 510 172 449 172 l 821 172 l 821 629 l 1056 629 l 1056 0 l 464 0 m 494 853 q 485 797 494 818 q 460 763 476 775 q 418 747 443 751 q 361 743 393 743 q 304 747 329 743 q 263 763 279 751 q 238 797 246 775 q 229 853 229 818 q 238 909 229 888 q 263 942 246 931 q 304 958 279 954 q 361 963 329 963 q 418 958 393 963 q 460 942 443 954 q 485 909 476 931 q 494 853 494 888 m 906 853 q 897 797 906 818 q 871 763 888 775 q 829 747 854 751 q 772 743 804 743 q 715 747 740 743 q 674 763 690 751 q 649 797 657 775 q 640 853 640 818 q 649 909 640 888 q 674 942 657 931 q 715 958 690 954 q 772 963 740 963 q 829 958 804 963 q 871 942 854 954 q 897 909 888 931 q 906 853 906 888 z "},"ý":{"ha":1197,"x_min":86,"x_max":1056,"o":"m 1056 -11 q 1036 -156 1056 -100 q 976 -250 1017 -212 q 851 -319 926 -299 q 657 -339 775 -339 l 222 -339 l 222 -168 l 626 -168 q 728 -160 689 -168 q 792 -125 768 -153 q 814 -83 807 -108 q 821 -17 821 -57 l 821 0 l 464 0 q 263 20 336 0 q 150 82 190 40 q 100 169 114 118 q 86 307 86 221 l 86 629 l 321 629 l 321 328 q 328 251 321 279 q 353 206 336 222 q 411 178 374 185 q 510 172 449 172 l 821 172 l 821 629 l 1056 629 l 1056 -11 m 631 1014 l 929 1014 l 664 757 l 442 757 l 631 1014 z "},"þ":{"ha":1251,"x_min":100,"x_max":1146,"o":"m 100 1008 l 335 1008 l 335 629 l 740 629 q 931 608 853 629 q 1061 536 1010 586 q 1124 440 1101 496 q 1146 313 1146 383 q 1123 188 1146 243 q 1060 92 1100 132 q 930 21 1008 42 q 739 0 851 0 l 335 0 l 335 -379 l 100 -379 l 100 1008 m 335 458 l 335 171 l 701 171 q 805 178 764 171 q 869 207 846 185 q 907 315 907 242 q 869 424 907 388 q 805 452 846 446 q 701 458 764 458 l 335 458 z "},"ÿ":{"ha":1197,"x_min":86,"x_max":1056,"o":"m 1056 -11 q 1036 -156 1056 -100 q 976 -250 1017 -212 q 851 -319 926 -299 q 657 -339 775 -339 l 222 -339 l 222 -168 l 626 -168 q 728 -160 689 -168 q 792 -125 768 -153 q 814 -83 807 -108 q 821 -17 821 -57 l 821 0 l 464 0 q 263 20 336 0 q 150 82 190 40 q 100 169 114 118 q 86 307 86 221 l 86 629 l 321 629 l 321 328 q 328 251 321 279 q 353 206 336 222 q 411 178 374 185 q 510 172 449 172 l 821 172 l 821 629 l 1056 629 l 1056 -11 m 504 853 q 495 797 504 818 q 469 763 486 775 q 428 747 453 751 q 371 743 403 743 q 314 747 339 743 q 272 763 289 751 q 247 797 256 775 q 239 853 239 818 q 247 909 239 888 q 272 942 256 931 q 314 958 289 954 q 371 963 339 963 q 428 958 403 963 q 469 942 453 954 q 495 909 486 931 q 504 853 504 888 m 915 853 q 906 797 915 818 q 881 763 897 775 q 839 747 864 751 q 782 743 814 743 q 725 747 750 743 q 683 763 700 751 q 658 797 667 775 q 650 853 650 818 q 658 909 650 888 q 683 942 667 931 q 725 958 700 954 q 782 963 750 963 q 839 958 814 963 q 881 942 864 954 q 906 909 897 931 q 915 853 915 888 z "},"ı":{"ha":482,"x_min":103,"x_max":338,"o":"m 103 629 l 338 629 l 338 0 l 103 0 l 103 629 z "},"Ł":{"ha":1390,"x_min":24,"x_max":1307,"o":"m 24 517 l 163 582 l 163 1008 l 417 1008 l 417 701 l 678 825 l 678 628 l 417 504 l 417 200 l 1307 200 l 1307 0 l 163 0 l 163 385 l 24 319 l 24 517 z "},"ł":{"ha":532,"x_min":4,"x_max":518,"o":"m 119 326 l 4 279 l 4 449 l 119 496 l 119 1008 l 354 1008 l 354 593 l 518 663 l 518 493 l 354 424 l 354 0 l 119 0 l 119 326 z "},"Œ":{"ha":2724,"x_min":72,"x_max":2590,"o":"m 968 1025 q 1251 999 1140 1025 q 1404 921 1363 974 l 1404 1008 l 2586 1008 l 2586 808 l 1658 808 l 1658 613 l 2283 613 l 2283 421 l 1658 421 l 1658 418 l 1658 200 l 2590 200 l 2590 0 l 1404 0 l 1404 108 q 1247 13 1364 43 q 965 -17 1131 -17 l 767 -17 q 416 18 556 -17 q 193 138 276 53 q 102 293 132 200 q 72 504 72 386 q 102 715 72 622 q 193 871 132 808 q 416 990 276 956 q 767 1025 556 1025 l 968 1025 m 951 203 q 1078 206 1022 203 q 1179 215 1135 208 q 1258 235 1224 222 q 1317 268 1292 249 q 1382 363 1361 304 q 1403 504 1403 421 q 1382 646 1403 588 q 1317 740 1361 704 q 1179 792 1265 779 q 950 806 1093 806 l 799 806 q 569 792 656 806 q 432 740 483 779 q 367 646 388 704 q 346 504 346 588 q 367 363 346 421 q 432 268 388 304 q 491 235 457 249 q 569 215 525 222 q 670 206 614 208 q 797 203 726 203 l 951 203 z "},"œ":{"ha":2079,"x_min":58,"x_max":1974,"o":"m 1168 246 q 1176 216 1169 231 q 1194 192 1182 201 q 1249 171 1214 176 q 1349 165 1285 165 l 1921 165 l 1921 0 l 1308 0 q 1039 61 1129 0 q 919 15 989 29 q 757 0 849 0 l 464 0 q 273 22 351 0 q 143 93 194 43 q 81 190 103 133 q 58 317 58 246 q 81 442 58 386 q 144 538 104 497 q 274 608 196 588 q 465 629 353 629 l 756 629 q 923 614 851 629 q 1046 563 994 599 q 1178 614 1100 599 q 1351 629 1256 629 l 1540 629 q 1740 611 1656 629 q 1883 540 1825 593 q 1949 444 1925 503 q 1974 307 1974 386 q 1972 274 1974 292 q 1968 246 1971 257 l 1168 246 m 718 172 q 822 178 781 172 q 886 207 863 185 q 924 314 924 242 q 915 377 924 351 q 886 421 906 403 q 822 450 863 443 q 718 457 781 457 l 503 457 q 399 450 440 457 q 335 421 358 443 q 306 377 315 403 q 297 314 297 351 q 335 207 297 242 q 399 178 358 185 q 503 172 440 172 l 718 172 m 1740 383 q 1704 447 1739 426 q 1651 463 1685 460 q 1568 467 1617 467 l 1342 467 q 1259 463 1293 467 q 1206 447 1225 460 q 1169 383 1171 426 l 1740 383 z "},"Š":{"ha":1524,"x_min":53,"x_max":1401,"o":"m 1310 813 l 463 813 q 372 807 410 813 q 315 782 335 801 q 294 726 294 763 q 328 664 294 682 q 429 640 363 646 l 983 597 q 1103 584 1050 592 q 1199 565 1157 576 q 1273 535 1240 553 q 1331 493 1306 518 q 1382 415 1363 461 q 1401 301 1401 368 q 1326 100 1401 172 q 1187 24 1274 47 q 961 0 1100 0 l 113 0 l 113 196 l 996 196 q 1118 219 1081 196 q 1156 290 1156 242 q 1126 352 1156 333 q 1021 378 1097 371 l 507 417 q 399 427 451 421 q 301 445 347 433 q 213 476 254 457 q 140 522 172 494 q 78 605 103 554 q 53 722 53 656 q 75 834 53 786 q 133 917 97 882 q 274 987 186 965 q 481 1008 361 1008 l 1310 1008 l 1310 813 m 735 1240 l 747 1240 l 865 1356 l 1100 1356 l 842 1094 l 640 1094 l 382 1356 l 617 1356 l 735 1240 z "},"š":{"ha":1160,"x_min":68,"x_max":1047,"o":"m 788 397 q 915 383 867 397 q 994 340 963 369 q 1034 278 1021 315 q 1047 199 1047 240 q 1034 120 1047 157 q 994 58 1021 83 q 915 15 963 29 q 789 0 867 0 l 106 0 l 106 160 l 782 160 q 832 197 832 160 q 782 235 832 235 l 328 235 q 201 249 249 235 q 121 293 153 264 q 81 354 94 318 q 68 432 68 390 q 81 510 68 474 q 121 571 94 546 q 201 615 153 600 q 328 629 250 629 l 996 629 l 996 469 l 333 469 q 283 433 283 469 q 333 397 283 397 l 788 397 m 553 879 l 565 879 l 683 994 l 918 994 l 660 733 l 458 733 l 200 994 l 435 994 l 553 879 z "},"Ÿ":{"ha":1617,"x_min":3,"x_max":1572,"o":"m 1265 1008 l 1572 1008 l 913 365 l 913 0 l 661 0 l 661 364 l 3 1008 l 318 1008 l 790 539 l 1265 1008 m 714 1215 q 705 1159 714 1181 q 679 1126 696 1138 q 638 1110 663 1114 q 581 1106 613 1106 q 524 1110 549 1106 q 482 1126 499 1114 q 457 1159 465 1138 q 449 1215 449 1181 q 457 1272 449 1250 q 482 1305 465 1293 q 524 1321 499 1317 q 581 1325 549 1325 q 638 1321 613 1325 q 679 1305 663 1317 q 705 1272 696 1293 q 714 1215 714 1250 m 1125 1215 q 1116 1159 1125 1181 q 1090 1126 1107 1138 q 1049 1110 1074 1114 q 992 1106 1024 1106 q 935 1110 960 1106 q 893 1126 910 1114 q 868 1159 876 1138 q 860 1215 860 1181 q 868 1272 860 1250 q 893 1305 876 1293 q 935 1321 910 1317 q 992 1325 960 1325 q 1049 1321 1024 1325 q 1090 1305 1074 1317 q 1116 1272 1107 1293 q 1125 1215 1125 1250 z "},"Ž":{"ha":1549,"x_min":92,"x_max":1407,"o":"m 1393 828 l 496 200 l 1407 200 l 1407 0 l 92 0 l 92 181 l 989 808 l 93 808 l 93 1008 l 1393 1008 l 1393 828 m 747 1240 l 760 1240 l 878 1356 l 1113 1356 l 854 1094 l 653 1094 l 394 1356 l 629 1356 l 747 1240 z "},"ž":{"ha":1167,"x_min":92,"x_max":1039,"o":"m 1039 163 l 1039 0 l 92 0 l 92 131 l 649 467 l 96 467 l 96 629 l 1033 629 l 1033 499 l 476 163 l 1039 163 m 560 879 l 572 879 l 690 994 l 925 994 l 667 733 l 465 733 l 207 994 l 442 994 l 560 879 z "},"ƒ":{"ha":1117,"x_min":42,"x_max":1006,"o":"m 350 692 q 367 826 350 772 q 424 919 383 879 q 552 988 475 968 q 742 1008 629 1008 l 1006 1008 l 1006 836 l 772 836 q 674 830 711 836 q 615 803 636 824 q 591 758 599 786 q 583 681 583 729 l 583 458 l 942 458 l 942 299 l 585 299 l 585 -43 q 568 -177 585 -124 q 511 -271 551 -231 q 383 -340 460 -319 q 193 -360 306 -360 l 42 -360 l 42 -187 l 163 -187 q 260 -181 224 -187 q 318 -154 297 -175 q 342 -109 335 -137 q 350 -32 350 -81 l 350 692 z "},"ˆ":{"ha":944,"x_min":92,"x_max":810,"o":"m 326 738 l 92 738 l 350 999 l 551 999 l 810 738 l 575 738 l 457 853 l 444 853 l 326 738 z "},"ˇ":{"ha":944,"x_min":92,"x_max":810,"o":"m 444 879 l 457 879 l 575 994 l 810 994 l 551 733 l 350 733 l 92 994 l 326 994 l 444 879 z "},"˘":{"ha":944,"x_min":99,"x_max":803,"o":"m 432 753 q 199 815 289 753 q 99 1006 108 876 l 285 1006 q 446 892 301 892 l 456 892 q 617 1006 603 892 l 803 1006 q 703 815 793 876 q 471 753 614 753 l 432 753 z "},"˙":{"ha":944,"x_min":311,"x_max":590,"o":"m 590 885 q 581 826 590 849 q 554 790 572 803 q 510 774 536 778 q 450 769 483 769 q 390 774 417 769 q 347 790 364 778 q 320 826 329 803 q 311 885 311 849 q 320 944 311 921 q 347 979 329 967 q 390 996 364 992 q 450 1000 417 1000 q 510 996 483 1000 q 554 979 536 992 q 581 944 572 967 q 590 885 590 921 z "},"˚":{"ha":944,"x_min":235,"x_max":668,"o":"m 469 839 q 529 854 514 839 q 542 894 542 864 q 539 918 542 907 q 529 935 536 929 q 469 950 514 950 l 433 950 q 374 935 390 950 q 364 918 367 929 q 361 894 361 907 q 374 854 361 864 q 433 839 390 839 l 469 839 m 410 744 q 329 755 364 744 q 272 789 294 765 q 235 894 235 826 q 272 1000 235 960 q 329 1034 294 1024 q 410 1044 364 1044 l 493 1044 q 574 1034 539 1044 q 631 1000 608 1024 q 668 894 668 960 q 631 789 668 826 q 574 755 608 765 q 493 744 539 744 l 410 744 z "},"˛":{"ha":944,"x_min":240,"x_max":663,"o":"m 663 13 q 551 -69 594 -32 q 482 -135 507 -106 q 448 -187 457 -164 q 439 -226 439 -210 q 459 -274 439 -262 q 511 -286 479 -286 l 614 -286 l 614 -429 l 483 -429 q 240 -267 240 -429 q 294 -124 240 -199 q 469 13 349 -50 l 663 13 l 663 13 z "},"˜":{"ha":944,"x_min":56,"x_max":847,"o":"m 847 908 q 803 847 829 875 q 747 796 778 818 q 680 761 715 774 q 608 749 644 749 q 526 760 560 749 q 457 786 493 771 l 419 803 q 367 819 392 814 q 319 824 343 824 q 231 803 275 824 q 150 747 188 783 l 56 840 q 177 947 108 907 q 329 986 246 986 q 392 980 357 986 q 463 957 426 974 l 501 939 q 553 917 529 926 q 610 907 578 907 q 681 928 646 907 q 747 989 717 950 l 847 908 z "},"˝":{"ha":944,"x_min":38,"x_max":865,"o":"m 186 1014 l 461 1014 l 250 757 l 38 757 l 186 1014 m 590 1014 l 865 1014 l 654 757 l 442 757 l 590 1014 z "},"Ѐ":{"ha":1456,"x_min":136,"x_max":1322,"o":"m 1322 0 l 136 0 l 136 1008 l 1318 1008 l 1318 808 l 390 808 l 390 613 l 1015 613 l 1015 421 l 390 421 l 390 200 l 1322 200 l 1322 0 m 939 1118 l 717 1118 l 451 1375 l 750 1375 l 939 1118 z "},"Ё":{"ha":1456,"x_min":136,"x_max":1322,"o":"m 1322 0 l 136 0 l 136 1008 l 1318 1008 l 1318 808 l 390 808 l 390 613 l 1015 613 l 1015 421 l 390 421 l 390 200 l 1322 200 l 1322 0 m 665 1215 q 656 1159 665 1181 q 631 1126 647 1138 q 589 1110 614 1114 q 532 1106 564 1106 q 475 1110 500 1106 q 433 1126 450 1114 q 408 1159 417 1138 q 400 1215 400 1181 q 408 1272 400 1250 q 433 1305 417 1293 q 475 1321 450 1317 q 532 1325 500 1325 q 589 1321 564 1325 q 631 1305 614 1317 q 656 1272 647 1293 q 665 1215 665 1250 m 1076 1215 q 1067 1159 1076 1181 q 1042 1126 1058 1138 q 1000 1110 1025 1114 q 943 1106 975 1106 q 886 1110 911 1106 q 844 1126 861 1114 q 819 1159 828 1138 q 811 1215 811 1181 q 819 1272 811 1250 q 844 1305 828 1293 q 886 1321 861 1317 q 943 1325 911 1325 q 1000 1321 975 1325 q 1042 1305 1025 1317 q 1067 1272 1058 1293 q 1076 1215 1076 1250 z "},"Ђ":{"ha":1854,"x_min":58,"x_max":1696,"o":"m 1696 160 q 1682 22 1696 74 q 1632 -65 1668 -29 q 1519 -127 1592 -107 q 1318 -147 1446 -147 l 1022 -147 l 1022 53 l 1260 53 q 1355 59 1321 53 q 1410 86 1389 65 q 1434 131 1426 103 q 1442 208 1442 160 l 1442 324 q 1434 401 1442 372 q 1410 446 1426 429 q 1353 473 1389 467 q 1257 479 1318 479 l 671 479 l 671 0 l 417 0 l 417 808 l 58 808 l 58 1008 l 1390 1008 l 1390 808 l 671 808 l 671 679 l 1318 679 q 1519 659 1446 679 q 1632 597 1592 639 q 1682 510 1668 561 q 1696 372 1696 458 l 1696 160 z "},"Ѓ":{"ha":1401,"x_min":136,"x_max":1318,"o":"m 136 0 l 136 1008 l 1318 1008 l 1318 808 l 390 808 l 390 0 l 136 0 m 743 1393 l 1042 1393 l 776 1136 l 554 1136 l 743 1393 z "},"Є":{"ha":1492,"x_min":72,"x_max":1367,"o":"m 425 269 q 562 217 476 229 q 790 204 647 204 l 1367 204 l 1367 0 l 753 0 q 415 33 549 0 q 203 144 282 65 q 106 297 140 207 q 72 504 72 388 q 106 711 72 621 q 203 864 140 801 q 415 976 282 943 q 753 1008 549 1008 l 1360 1008 l 1360 804 l 790 804 q 562 792 647 804 q 425 739 476 779 q 349 607 368 694 l 1136 607 l 1136 410 l 347 410 q 425 269 367 315 z "},"Ѕ":{"ha":1524,"x_min":53,"x_max":1401,"o":"m 1310 813 l 463 813 q 372 807 410 813 q 315 782 335 801 q 294 726 294 763 q 328 664 294 682 q 429 640 363 646 l 983 597 q 1103 584 1050 592 q 1199 565 1157 576 q 1273 535 1240 553 q 1331 493 1306 518 q 1382 415 1363 461 q 1401 301 1401 368 q 1326 100 1401 172 q 1187 24 1274 47 q 961 0 1100 0 l 113 0 l 113 196 l 996 196 q 1118 219 1081 196 q 1156 290 1156 242 q 1126 352 1156 333 q 1021 378 1097 371 l 507 417 q 399 427 451 421 q 301 445 347 433 q 213 476 254 457 q 140 522 172 494 q 78 605 103 554 q 53 722 53 656 q 75 834 53 786 q 133 917 97 882 q 274 987 186 965 q 481 1008 361 1008 l 1310 1008 l 1310 813 z "},"І":{"ha":579,"x_min":142,"x_max":396,"o":"m 396 0 l 142 0 l 142 1008 l 396 1008 l 396 0 z "},"Ї":{"ha":579,"x_min":-69,"x_max":607,"o":"m 396 0 l 142 0 l 142 1008 l 396 1008 l 396 0 m 196 1232 q 187 1176 196 1197 q 161 1142 178 1154 q 119 1126 144 1131 q 63 1122 94 1122 q 6 1126 31 1122 q -36 1142 -19 1131 q -61 1176 -53 1154 q -69 1232 -69 1197 q -61 1288 -69 1267 q -36 1322 -53 1310 q 6 1338 -19 1333 q 63 1342 31 1342 q 119 1338 94 1342 q 161 1322 144 1333 q 187 1288 178 1310 q 196 1232 196 1267 m 607 1232 q 598 1176 607 1197 q 572 1142 589 1154 q 531 1126 556 1131 q 474 1122 506 1122 q 417 1126 442 1122 q 375 1142 392 1131 q 350 1176 358 1154 q 342 1232 342 1197 q 350 1288 342 1267 q 375 1322 358 1310 q 417 1338 392 1333 q 474 1342 442 1342 q 531 1338 506 1342 q 572 1322 556 1333 q 598 1288 589 1310 q 607 1232 607 1267 z "},"Ј":{"ha":1296,"x_min":64,"x_max":1135,"o":"m 64 0 l 64 200 l 565 200 q 727 213 665 200 q 824 257 789 225 q 869 334 857 288 q 881 453 881 381 l 881 1008 l 1135 1008 l 1135 432 q 1129 328 1135 375 q 1112 244 1124 282 q 1081 176 1100 207 q 1036 119 1063 146 q 865 26 969 53 q 599 0 760 0 l 64 0 z "},"Љ":{"ha":2558,"x_min":56,"x_max":2450,"o":"m 1131 0 l 1131 808 l 640 808 l 604 282 q 538 81 594 147 q 440 19 501 39 q 290 0 378 0 l 56 0 l 57 200 l 221 200 q 293 210 265 200 q 336 239 321 219 q 357 288 351 258 q 365 358 363 317 l 407 1008 l 1385 1008 l 1385 618 l 2035 618 q 2183 610 2122 618 q 2293 581 2244 601 q 2414 478 2378 544 q 2450 315 2450 411 q 2424 173 2450 231 q 2351 79 2397 115 q 2206 15 2288 31 q 2014 0 2125 0 l 1131 0 m 2014 200 q 2085 201 2050 200 q 2144 215 2119 203 q 2181 248 2168 226 q 2193 307 2193 269 q 2184 365 2193 346 q 2158 397 2175 385 q 2101 417 2135 415 q 2014 418 2068 418 l 1385 418 l 1385 200 l 2014 200 z "},"Њ":{"ha":2654,"x_min":136,"x_max":2546,"o":"m 1481 618 l 2131 618 q 2279 610 2218 618 q 2389 581 2340 601 q 2510 478 2474 544 q 2546 315 2546 411 q 2519 173 2546 231 q 2447 79 2493 115 q 2302 15 2383 31 q 2110 0 2221 0 l 1226 0 l 1226 418 l 390 418 l 390 0 l 136 0 l 136 1008 l 390 1008 l 390 618 l 1226 618 l 1226 1008 l 1481 1008 l 1481 618 m 2110 200 q 2181 201 2146 200 q 2240 215 2215 203 q 2276 248 2264 226 q 2289 307 2289 269 q 2280 365 2289 346 q 2254 397 2271 385 q 2197 417 2231 415 q 2110 418 2164 418 l 1481 418 l 1481 200 l 2110 200 z "},"Ћ":{"ha":1854,"x_min":58,"x_max":1696,"o":"m 1696 0 l 1442 0 l 1442 324 q 1434 401 1442 372 q 1410 446 1426 429 q 1353 473 1389 467 q 1257 479 1318 479 l 671 479 l 671 0 l 417 0 l 417 808 l 58 808 l 58 1008 l 1390 1008 l 1390 808 l 671 808 l 671 679 l 1318 679 q 1519 659 1446 679 q 1632 597 1592 639 q 1682 510 1668 561 q 1696 372 1696 458 l 1696 0 z "},"Ќ":{"ha":1569,"x_min":136,"x_max":1497,"o":"m 390 635 l 640 635 l 1106 1008 l 1449 1008 l 844 538 l 1497 0 l 1144 0 l 653 417 l 390 417 l 390 0 l 136 0 l 136 1008 l 390 1008 l 390 635 m 725 1393 l 1024 1393 l 758 1136 l 536 1136 l 725 1393 z "},"Ѝ":{"ha":1701,"x_min":136,"x_max":1524,"o":"m 390 0 l 136 0 l 136 1008 l 390 1008 l 390 371 l 1269 833 l 1269 1008 l 1524 1008 l 1524 0 l 1269 0 l 1269 622 l 390 158 l 390 0 m 996 1136 l 774 1136 l 508 1393 l 807 1393 l 996 1136 z "},"Ў":{"ha":1606,"x_min":-24,"x_max":1553,"o":"m 1553 1008 l 781 186 q 685 96 729 132 q 597 38 642 60 q 502 8 553 17 q 385 0 451 0 l 169 0 l 169 200 l 350 200 q 476 219 429 200 q 563 282 522 239 l 615 338 l -24 1008 l 311 1008 l 772 513 l 1231 1008 l 1553 1008 m 754 1132 q 521 1194 611 1132 q 421 1385 431 1256 l 607 1385 q 768 1271 624 1271 l 778 1271 q 939 1385 925 1271 l 1125 1385 q 1026 1194 1115 1256 q 793 1132 936 1132 l 754 1132 z "},"Џ":{"ha":1674,"x_min":136,"x_max":1496,"o":"m 699 0 l 136 0 l 136 1008 l 390 1008 l 390 200 l 1242 200 l 1242 1008 l 1496 1008 l 1496 0 l 939 0 l 939 -282 l 699 -282 l 699 0 z "},"А":{"ha":1633,"x_min":6,"x_max":1586,"o":"m 1175 183 l 408 183 l 288 0 l 6 0 l 690 1008 l 897 1008 l 1586 0 l 1299 0 l 1175 183 m 542 385 l 1040 385 l 789 758 l 542 385 z "},"Б":{"ha":1564,"x_min":136,"x_max":1456,"o":"m 1356 1008 l 1356 808 l 390 808 l 390 624 l 1040 624 q 1183 616 1119 624 q 1294 588 1246 608 q 1417 481 1379 551 q 1456 315 1456 411 q 1429 173 1456 231 q 1357 79 1403 115 q 1212 15 1293 31 q 1019 0 1131 0 l 136 0 l 136 1008 l 1356 1008 m 1019 200 q 1090 201 1056 200 q 1150 215 1125 203 q 1199 317 1199 239 q 1190 374 1199 353 q 1164 408 1181 396 q 1103 429 1140 426 q 1019 432 1065 432 l 390 432 l 390 200 l 1019 200 z "},"В":{"ha":1594,"x_min":136,"x_max":1472,"o":"m 1419 756 q 1391 631 1419 682 q 1294 536 1363 579 q 1429 442 1386 504 q 1472 292 1472 379 q 1388 85 1472 157 q 1253 21 1336 42 q 1036 0 1171 0 l 136 0 l 136 1008 l 1056 1008 q 1238 988 1167 1008 q 1351 926 1308 967 q 1403 851 1386 894 q 1419 756 1419 807 m 1036 200 q 1130 206 1094 200 q 1185 228 1165 211 q 1215 313 1215 254 q 1185 397 1215 371 q 1130 419 1165 414 q 1036 424 1094 424 l 390 424 l 390 200 l 1036 200 m 1003 607 q 1090 612 1056 607 q 1142 632 1124 617 q 1163 664 1157 643 q 1169 708 1169 685 q 1163 753 1169 732 q 1142 785 1157 774 q 1089 804 1124 800 q 1003 808 1054 808 l 390 808 l 390 607 l 1003 607 z "},"Г":{"ha":1401,"x_min":136,"x_max":1318,"o":"m 136 0 l 136 1008 l 1318 1008 l 1318 808 l 390 808 l 390 0 l 136 0 z "},"Д":{"ha":1714,"x_min":42,"x_max":1619,"o":"m 42 200 l 211 200 q 256 306 240 251 q 278 428 272 360 l 318 1008 l 1465 1008 l 1465 200 l 1619 200 l 1619 -282 l 1379 -282 l 1379 0 l 282 0 l 282 -282 l 42 -282 l 42 200 m 528 433 q 481 200 519 293 l 1211 200 l 1211 808 l 551 808 l 528 433 z "},"Е":{"ha":1456,"x_min":136,"x_max":1322,"o":"m 1322 0 l 136 0 l 136 1008 l 1318 1008 l 1318 808 l 390 808 l 390 613 l 1015 613 l 1015 421 l 390 421 l 390 200 l 1322 200 l 1322 0 z "},"Ж":{"ha":2585,"x_min":68,"x_max":2475,"o":"m 1399 632 l 1714 632 l 2097 1008 l 2435 1008 l 1911 528 l 2475 0 l 2132 0 l 1703 419 l 1399 419 l 1399 0 l 1144 0 l 1144 419 l 840 419 l 411 0 l 68 0 l 632 528 l 108 1008 l 446 1008 l 829 632 l 1144 632 l 1144 1008 l 1399 1008 l 1399 632 z "},"З":{"ha":1467,"x_min":83,"x_max":1344,"o":"m 219 410 l 219 607 l 931 607 q 1054 708 1054 607 q 1024 784 1054 761 q 929 807 993 807 l 83 807 l 83 1008 l 942 1008 q 1117 988 1046 1008 q 1233 934 1189 968 q 1297 853 1278 900 q 1317 751 1317 806 q 1280 613 1317 671 q 1168 525 1243 554 q 1299 444 1253 506 q 1344 289 1344 382 q 1254 75 1344 150 q 994 0 1164 0 l 83 0 l 83 200 l 928 200 q 1049 226 1015 200 q 1082 308 1082 251 q 1047 388 1082 367 q 944 410 1013 410 l 219 410 z "},"И":{"ha":1701,"x_min":136,"x_max":1524,"o":"m 390 0 l 136 0 l 136 1008 l 390 1008 l 390 371 l 1269 833 l 1269 1008 l 1524 1008 l 1524 0 l 1269 0 l 1269 622 l 390 158 l 390 0 z "},"Й":{"ha":1701,"x_min":136,"x_max":1524,"o":"m 390 0 l 136 0 l 136 1008 l 390 1008 l 390 371 l 1269 833 l 1269 1008 l 1524 1008 l 1524 0 l 1269 0 l 1269 622 l 390 158 l 390 0 m 831 1132 q 597 1194 688 1132 q 497 1385 507 1256 l 683 1385 q 844 1271 700 1271 l 854 1271 q 1015 1385 1001 1271 l 1201 1385 q 1102 1194 1192 1256 q 869 1132 1013 1132 l 831 1132 z "},"К":{"ha":1601,"x_min":136,"x_max":1497,"o":"m 390 635 l 640 635 l 1106 1008 l 1449 1008 l 844 538 l 1497 0 l 1144 0 l 653 417 l 390 417 l 390 0 l 136 0 l 136 1008 l 390 1008 l 390 635 z "},"Л":{"ha":1808,"x_min":56,"x_max":1631,"o":"m 407 1008 l 1631 1008 l 1631 0 l 1376 0 l 1376 808 l 640 808 l 604 282 q 538 81 594 147 q 440 19 501 39 q 290 0 378 0 l 56 0 l 57 200 l 221 200 q 293 210 265 200 q 336 239 321 219 q 357 288 351 258 q 365 358 363 317 l 407 1008 z "},"М":{"ha":1994,"x_min":136,"x_max":1817,"o":"m 382 624 l 382 0 l 136 0 l 136 1008 l 369 1008 l 985 283 l 1589 1008 l 1817 1008 l 1817 0 l 1569 0 l 1569 629 l 1085 28 l 885 28 l 382 624 z "},"Н":{"ha":1701,"x_min":136,"x_max":1524,"o":"m 390 0 l 136 0 l 136 1008 l 390 1008 l 390 625 l 1269 625 l 1269 1008 l 1524 1008 l 1524 0 l 1269 0 l 1269 418 l 390 418 l 390 0 z "},"О":{"ha":1776,"x_min":72,"x_max":1663,"o":"m 944 204 q 1072 207 1015 204 q 1172 217 1128 210 q 1251 237 1217 224 q 1310 269 1285 250 q 1375 363 1354 306 q 1396 504 1396 421 q 1375 645 1396 588 q 1310 739 1354 703 q 1172 791 1258 778 q 943 804 1086 804 l 792 804 q 563 791 649 804 q 425 739 476 778 q 360 645 381 703 q 339 504 339 588 q 360 363 339 421 q 425 269 381 306 q 484 237 450 250 q 563 217 518 224 q 663 207 607 210 q 790 204 719 204 l 944 204 m 968 1025 q 1319 990 1179 1025 q 1542 871 1458 956 q 1633 715 1603 808 q 1663 504 1663 622 q 1633 293 1663 386 q 1542 138 1603 200 q 1318 18 1458 53 q 965 -17 1178 -17 l 767 -17 q 416 18 556 -17 q 193 138 276 53 q 102 293 132 200 q 72 504 72 386 q 102 715 72 622 q 193 871 132 808 q 416 990 276 956 q 767 1025 556 1025 l 968 1025 z "},"П":{"ha":1669,"x_min":136,"x_max":1492,"o":"m 390 808 l 390 0 l 136 0 l 136 1008 l 1492 1008 l 1492 0 l 1238 0 l 1238 808 l 390 808 z "},"Р":{"ha":1578,"x_min":136,"x_max":1469,"o":"m 1001 485 q 1112 494 1072 485 q 1175 528 1151 504 q 1211 647 1211 565 q 1175 765 1211 728 q 1112 799 1151 789 q 1001 808 1072 808 l 390 808 l 390 485 l 1001 485 m 390 285 l 390 0 l 136 0 l 136 1008 l 1026 1008 q 1239 983 1156 1008 q 1375 910 1322 958 q 1447 799 1424 865 q 1469 647 1469 732 q 1447 496 1469 563 q 1375 385 1424 429 q 1239 310 1322 336 q 1026 285 1156 285 l 390 285 z "},"С":{"ha":1503,"x_min":72,"x_max":1367,"o":"m 339 504 q 360 365 339 424 q 425 269 381 306 q 562 217 476 229 q 790 204 647 204 l 1367 204 l 1367 0 l 753 0 q 415 33 549 0 q 203 144 282 65 q 106 297 140 207 q 72 504 72 388 q 106 711 72 621 q 203 864 140 801 q 415 976 282 943 q 753 1008 549 1008 l 1367 1008 l 1367 804 l 790 804 q 562 792 647 804 q 425 739 476 779 q 360 644 381 703 q 339 504 339 585 z "},"Т":{"ha":1490,"x_min":58,"x_max":1390,"o":"m 58 1008 l 1390 1008 l 1390 808 l 851 808 l 851 0 l 597 0 l 597 808 l 58 808 l 58 1008 z "},"У":{"ha":1583,"x_min":-24,"x_max":1553,"o":"m 1553 1008 l 781 186 q 685 96 729 132 q 597 38 642 60 q 502 8 553 17 q 385 0 451 0 l 169 0 l 169 200 l 350 200 q 476 219 429 200 q 563 282 522 239 l 615 338 l -24 1008 l 311 1008 l 772 513 l 1231 1008 l 1553 1008 z "},"Ф":{"ha":1793,"x_min":69,"x_max":1682,"o":"m 986 910 q 1246 891 1121 907 q 1468 831 1371 875 q 1624 709 1565 788 q 1682 504 1682 631 q 1624 294 1682 374 q 1468 173 1565 215 q 1246 115 1371 131 q 986 99 1121 100 l 986 -56 l 765 -56 l 765 99 q 590 106 676 100 q 427 128 504 113 q 285 172 350 144 q 172 244 219 200 q 97 352 124 289 q 69 503 69 415 q 128 708 69 629 q 285 831 188 788 q 507 891 382 875 q 765 910 632 907 l 765 1064 l 986 1064 l 986 910 m 332 504 q 372 394 332 435 q 474 332 411 353 q 613 305 536 311 q 765 297 690 299 l 765 711 q 613 703 690 710 q 474 676 536 697 q 372 615 411 656 q 332 504 332 574 m 1419 504 q 1380 615 1419 574 q 1278 676 1340 656 q 1138 703 1215 697 q 986 711 1061 710 l 986 297 q 1138 305 1061 299 q 1278 332 1215 311 q 1380 394 1340 353 q 1419 504 1419 435 z "},"Х":{"ha":1643,"x_min":19,"x_max":1582,"o":"m 792 394 l 339 0 l 19 0 l 635 529 l 85 1008 l 421 1008 l 818 663 l 1214 1008 l 1533 1008 l 978 525 l 1582 0 l 1246 0 l 792 394 z "},"Ц":{"ha":1744,"x_min":136,"x_max":1650,"o":"m 1410 0 l 136 0 l 136 1008 l 390 1008 l 390 200 l 1242 200 l 1242 1008 l 1496 1008 l 1496 200 l 1650 200 l 1650 -282 l 1410 -282 l 1410 0 z "},"Ч":{"ha":1565,"x_min":108,"x_max":1388,"o":"m 1388 0 l 1133 0 l 1133 308 l 486 308 q 285 328 358 308 q 172 390 213 349 q 122 478 136 426 q 108 624 108 529 l 108 1008 l 363 1008 l 363 664 q 370 587 363 615 q 394 542 378 558 q 451 515 415 521 q 547 508 486 508 l 1133 508 l 1133 1008 l 1388 1008 l 1388 0 z "},"Ш":{"ha":2176,"x_min":136,"x_max":1999,"o":"m 136 0 l 136 1008 l 390 1008 l 390 200 l 940 200 l 940 1008 l 1194 1008 l 1194 200 l 1744 200 l 1744 1008 l 1999 1008 l 1999 0 l 136 0 z "},"Щ":{"ha":2247,"x_min":136,"x_max":2153,"o":"m 136 0 l 136 1008 l 390 1008 l 390 200 l 940 200 l 940 1008 l 1194 1008 l 1194 200 l 1744 200 l 1744 1008 l 1999 1008 l 1999 200 l 2153 200 l 2153 -282 l 1913 -282 l 1913 0 l 136 0 z "},"Ъ":{"ha":1913,"x_min":21,"x_max":1804,"o":"m 739 1008 l 739 624 l 1389 624 q 1531 616 1468 624 q 1643 588 1594 608 q 1766 481 1728 551 q 1804 315 1804 411 q 1778 173 1804 231 q 1706 79 1751 115 q 1560 15 1642 31 q 1368 0 1479 0 l 485 0 l 485 808 l 21 808 l 21 1008 l 739 1008 m 1368 200 q 1439 201 1404 200 q 1499 215 1474 203 q 1547 317 1547 239 q 1538 374 1547 353 q 1513 408 1529 396 q 1451 429 1489 426 q 1368 432 1414 432 l 739 432 l 739 200 l 1368 200 z "},"Ы":{"ha":2046,"x_min":136,"x_max":1868,"o":"m 390 624 l 1040 624 q 1183 616 1119 624 q 1294 588 1246 608 q 1417 481 1379 551 q 1456 315 1456 411 q 1429 173 1456 231 q 1357 79 1403 115 q 1212 15 1293 31 q 1019 0 1131 0 l 136 0 l 136 1008 l 390 1008 l 390 624 m 1019 200 q 1090 201 1056 200 q 1150 215 1125 203 q 1199 317 1199 239 q 1190 374 1199 353 q 1164 408 1181 396 q 1103 429 1140 426 q 1019 432 1065 432 l 390 432 l 390 200 l 1019 200 m 1868 0 l 1614 0 l 1614 1008 l 1868 1008 l 1868 0 z "},"Ь":{"ha":1564,"x_min":136,"x_max":1456,"o":"m 390 624 l 1040 624 q 1183 616 1119 624 q 1294 588 1246 608 q 1417 481 1379 551 q 1456 315 1456 411 q 1429 173 1456 231 q 1357 79 1403 115 q 1212 15 1293 31 q 1019 0 1131 0 l 136 0 l 136 1008 l 390 1008 l 390 624 m 1019 200 q 1090 201 1056 200 q 1150 215 1125 203 q 1199 317 1199 239 q 1190 374 1199 353 q 1164 408 1181 396 q 1103 429 1140 426 q 1019 432 1065 432 l 390 432 l 390 200 l 1019 200 z "},"Э":{"ha":1492,"x_min":83,"x_max":1378,"o":"m 1025 269 q 1103 410 1083 315 l 314 410 l 314 607 l 1101 607 q 1025 739 1082 694 q 967 772 1000 760 q 891 792 935 785 q 792 801 847 799 q 665 804 736 804 l 90 804 l 90 1008 l 703 1008 q 1038 976 907 1008 q 1247 864 1168 943 q 1344 711 1310 801 q 1378 504 1378 621 q 1344 297 1378 388 q 1247 144 1310 207 q 1035 33 1168 65 q 697 0 901 0 l 83 0 l 83 204 l 660 204 q 888 217 803 204 q 1025 269 974 229 z "},"Ю":{"ha":2318,"x_min":136,"x_max":2204,"o":"m 390 625 l 658 625 q 771 871 683 779 q 994 990 854 956 q 1344 1025 1133 1025 l 1510 1025 q 1860 990 1721 1025 q 2083 871 2000 956 q 2174 715 2144 808 q 2204 504 2204 622 q 2174 293 2204 386 q 2083 138 2144 200 q 1860 18 2000 53 q 1507 -17 1719 -17 l 1344 -17 q 994 18 1133 -17 q 771 138 854 53 q 654 418 674 238 l 390 418 l 390 0 l 136 0 l 136 1008 l 390 1008 l 390 625 m 1486 204 q 1613 207 1557 204 q 1714 217 1669 210 q 1792 237 1758 224 q 1851 269 1826 250 q 1917 363 1896 306 q 1938 504 1938 421 q 1917 645 1938 588 q 1851 739 1896 703 q 1714 791 1800 778 q 1485 804 1628 804 l 1369 804 q 1140 791 1226 804 q 1003 739 1054 778 q 938 645 958 703 q 917 504 917 588 q 938 363 917 421 q 1003 269 958 306 q 1062 237 1028 250 q 1140 217 1096 224 q 1241 207 1185 210 q 1368 204 1297 204 l 1486 204 z "},"Я":{"ha":1649,"x_min":67,"x_max":1471,"o":"m 385 0 l 67 0 l 264 181 q 349 251 313 225 q 433 296 386 278 q 226 385 299 317 q 155 496 178 429 q 132 647 132 563 q 155 799 132 732 q 226 910 178 865 q 363 983 279 958 q 575 1008 446 1008 l 1471 1008 l 1471 0 l 1217 0 l 1217 285 l 849 285 q 769 281 803 285 q 705 265 735 276 q 645 231 675 253 q 576 174 615 208 l 385 0 m 1217 485 l 1217 808 l 600 808 q 490 799 529 808 q 426 765 450 789 q 390 647 390 728 q 426 528 390 565 q 490 494 450 504 q 600 485 529 485 l 1217 485 z "},"а":{"ha":1246,"x_min":58,"x_max":1104,"o":"m 869 171 l 869 458 l 503 458 q 399 451 440 458 q 335 422 358 444 q 297 314 297 386 q 335 206 297 240 q 399 177 358 183 q 503 171 440 171 l 869 171 m 58 317 q 81 442 58 386 q 144 538 104 497 q 274 608 196 588 q 465 629 353 629 l 1104 629 l 1104 0 l 464 0 q 273 22 351 0 q 143 93 194 43 q 81 190 103 133 q 58 317 58 246 z "},"б":{"ha":1258,"x_min":69,"x_max":1158,"o":"m 783 638 q 940 623 875 638 q 1056 571 1006 608 q 1131 474 1104 535 q 1158 322 1158 413 q 1133 176 1158 236 q 1063 78 1108 117 q 939 17 1011 35 q 776 0 867 0 l 436 0 q 266 22 336 0 q 152 86 196 44 q 89 188 108 128 q 69 325 69 249 l 69 524 q 76 669 69 610 q 99 773 83 729 q 140 848 115 817 q 200 908 164 879 q 348 973 253 950 q 579 1000 443 996 q 675 1002 621 1001 q 788 1004 729 1003 q 905 1007 846 1006 q 1017 1011 964 1008 l 1017 835 q 911 832 965 833 q 804 829 857 831 q 702 826 751 828 q 611 824 653 825 q 465 812 518 819 q 385 789 413 804 q 326 737 347 768 q 306 657 306 706 l 306 638 l 783 638 m 683 171 q 783 174 739 171 q 857 190 826 176 q 903 234 888 204 q 919 317 919 264 q 906 399 919 368 q 863 444 892 429 q 789 463 833 458 q 685 467 744 467 l 306 467 l 306 331 q 314 254 306 285 q 342 205 322 224 q 393 178 361 186 q 474 171 425 171 l 683 171 z "},"в":{"ha":1211,"x_min":100,"x_max":1122,"o":"m 100 629 l 875 629 q 1041 590 988 629 q 1094 468 1094 551 q 1003 331 1094 367 q 1092 280 1061 318 q 1122 178 1122 242 q 1104 95 1122 129 q 1056 40 1086 61 q 986 10 1026 19 q 900 0 946 0 l 100 0 l 100 629 m 335 242 l 335 156 l 833 156 q 883 200 883 156 q 872 231 883 219 q 833 242 860 242 l 335 242 m 335 474 l 335 392 l 811 392 q 847 403 836 392 q 858 433 858 414 q 848 463 858 453 q 811 474 838 474 l 335 474 z "},"г":{"ha":1122,"x_min":100,"x_max":1026,"o":"m 335 0 l 100 0 l 100 629 l 1026 629 l 1026 458 l 335 458 l 335 0 z "},"д":{"ha":1454,"x_min":58,"x_max":1354,"o":"m 472 325 q 463 240 468 276 q 447 171 458 203 l 996 171 l 996 458 l 483 458 l 472 325 m 206 171 q 231 247 221 206 q 243 340 240 289 l 261 629 l 1231 629 l 1231 171 l 1354 171 l 1354 -246 l 1131 -246 l 1131 0 l 282 0 l 282 -246 l 58 -246 l 58 171 l 206 171 z "},"е":{"ha":1213,"x_min":58,"x_max":1107,"o":"m 301 246 q 309 216 303 231 q 328 192 315 201 q 383 171 347 176 q 482 165 418 165 l 1054 165 l 1054 0 l 442 0 q 260 22 333 0 q 139 89 186 43 q 58 317 58 167 q 83 449 58 396 q 149 539 108 503 q 288 608 201 588 q 485 629 375 629 l 674 629 q 874 611 789 629 q 1017 540 958 593 q 1083 444 1058 503 q 1107 307 1107 386 q 1106 274 1107 292 q 1101 246 1104 257 l 301 246 m 874 383 q 838 447 872 426 q 784 463 818 460 q 701 467 750 467 l 475 467 q 392 463 426 467 q 339 447 358 460 q 303 383 304 426 l 874 383 z "},"ж":{"ha":1593,"x_min":8,"x_max":1543,"o":"m 507 242 l 289 0 l 8 0 l 328 335 l 19 629 l 293 629 l 517 403 l 658 403 l 658 629 l 893 629 l 893 403 l 1035 403 l 1258 629 l 1532 629 l 1224 335 l 1543 0 l 1263 0 l 1044 242 l 893 242 l 893 0 l 658 0 l 658 242 l 507 242 z "},"з":{"ha":1160,"x_min":56,"x_max":1071,"o":"m 782 156 q 832 200 832 156 q 820 231 832 219 q 782 243 808 243 l 153 243 l 153 393 l 760 393 q 796 404 785 393 q 807 435 807 415 q 797 464 807 454 q 760 474 786 474 l 68 474 l 68 629 l 824 629 q 990 590 936 629 q 1043 468 1043 551 q 951 331 1043 367 q 1040 280 1010 318 q 1071 178 1071 242 q 1053 95 1071 129 q 1005 40 1035 61 q 935 10 975 19 q 849 0 894 0 l 56 0 l 56 156 l 782 156 z "},"и":{"ha":1269,"x_min":100,"x_max":1128,"o":"m 894 514 l 894 629 l 1128 629 l 1128 0 l 893 0 l 893 340 l 335 119 l 335 0 l 100 0 l 100 629 l 335 629 l 335 293 l 894 514 z "},"й":{"ha":1269,"x_min":100,"x_max":1128,"o":"m 894 514 l 894 629 l 1128 629 l 1128 0 l 893 0 l 893 340 l 335 119 l 335 0 l 100 0 l 100 629 l 335 629 l 335 293 l 894 514 m 596 751 q 363 813 453 751 q 263 1004 272 875 l 449 1004 q 610 890 465 890 l 619 890 q 781 1004 767 890 l 967 1004 q 867 813 957 875 q 635 751 778 751 l 596 751 z "},"к":{"ha":1107,"x_min":100,"x_max":1057,"o":"m 100 629 l 335 629 l 335 403 l 442 403 l 728 629 l 1029 629 l 644 335 l 1057 0 l 753 0 l 463 242 l 335 242 l 335 0 l 100 0 l 100 629 z "},"л":{"ha":1429,"x_min":58,"x_max":1288,"o":"m 497 233 q 476 126 493 171 q 426 53 458 82 q 344 13 393 25 q 225 0 294 0 l 58 0 l 58 161 l 118 161 q 188 163 161 161 q 232 172 215 164 q 256 199 249 181 q 265 253 263 218 l 292 629 l 1288 629 l 1288 0 l 1053 0 l 1053 458 l 514 458 l 497 233 z "},"м":{"ha":1451,"x_min":100,"x_max":1310,"o":"m 1310 0 l 1075 0 l 1075 338 l 794 28 l 619 28 l 331 338 l 331 0 l 100 0 l 100 629 l 324 629 l 711 210 l 1083 629 l 1310 629 l 1310 0 z "},"н":{"ha":1269,"x_min":100,"x_max":1128,"o":"m 893 401 l 893 629 l 1128 629 l 1128 0 l 893 0 l 893 231 l 335 231 l 335 0 l 100 0 l 100 629 l 335 629 l 335 401 l 893 401 z "},"о":{"ha":1263,"x_min":58,"x_max":1163,"o":"m 718 172 q 822 178 781 172 q 886 207 863 185 q 924 314 924 242 q 915 377 924 351 q 886 421 906 403 q 822 450 863 443 q 718 457 781 457 l 503 457 q 399 450 440 457 q 335 421 358 443 q 306 377 315 403 q 297 314 297 351 q 335 207 297 242 q 399 178 358 185 q 503 172 440 172 l 718 172 m 464 0 q 273 22 351 0 q 143 93 194 43 q 81 190 103 133 q 58 317 58 246 q 81 442 58 386 q 144 538 104 497 q 274 608 196 588 q 465 629 353 629 l 756 629 q 947 608 868 629 q 1076 538 1025 588 q 1140 442 1117 497 q 1163 317 1163 386 q 1140 190 1163 246 q 1078 93 1118 133 q 948 22 1026 43 q 757 0 869 0 l 464 0 z "},"п":{"ha":1269,"x_min":100,"x_max":1128,"o":"m 1128 629 l 1128 0 l 893 0 l 893 458 l 335 458 l 335 0 l 100 0 l 100 629 l 1128 629 z "},"р":{"ha":1246,"x_min":100,"x_max":1146,"o":"m 100 629 l 740 629 q 931 608 853 629 q 1061 536 1010 586 q 1124 440 1101 496 q 1146 313 1146 383 q 1123 188 1146 243 q 1060 92 1100 132 q 930 21 1008 42 q 739 0 851 0 l 335 0 l 335 -339 l 100 -339 l 100 629 m 335 458 l 335 171 l 701 171 q 805 178 764 171 q 869 207 846 185 q 907 315 907 242 q 869 424 907 388 q 805 452 846 446 q 701 458 764 458 l 335 458 z "},"с":{"ha":1124,"x_min":58,"x_max":1026,"o":"m 1026 0 l 464 0 q 273 22 351 0 q 143 93 194 43 q 81 190 103 133 q 58 317 58 246 q 81 442 58 386 q 144 538 104 497 q 274 608 196 588 q 465 629 353 629 l 1026 629 l 1026 458 l 503 458 q 399 451 440 458 q 335 422 358 444 q 297 314 297 386 q 335 206 297 240 q 399 177 358 183 q 503 171 440 171 l 1026 171 l 1026 0 z "},"т":{"ha":1254,"x_min":49,"x_max":1164,"o":"m 722 0 l 488 0 l 488 458 l 49 458 l 49 629 l 1164 629 l 1164 458 l 722 458 l 722 0 z "},"у":{"ha":1197,"x_min":86,"x_max":1056,"o":"m 1056 -11 q 1036 -156 1056 -100 q 976 -250 1017 -212 q 851 -319 926 -299 q 657 -339 775 -339 l 222 -339 l 222 -168 l 626 -168 q 728 -160 689 -168 q 792 -125 768 -153 q 814 -83 807 -108 q 821 -17 821 -57 l 821 0 l 464 0 q 263 20 336 0 q 150 82 190 40 q 100 169 114 118 q 86 307 86 221 l 86 629 l 321 629 l 321 328 q 328 251 321 279 q 353 206 336 222 q 411 178 374 185 q 510 172 449 172 l 821 172 l 821 629 l 1056 629 l 1056 -11 z "},"ф":{"ha":1499,"x_min":58,"x_max":1399,"o":"m 617 0 l 464 0 q 273 22 351 0 q 143 93 194 43 q 81 190 103 133 q 58 317 58 246 q 81 442 58 386 q 144 538 104 497 q 274 608 196 588 q 465 629 353 629 l 617 629 l 617 1008 l 842 1008 l 842 629 l 992 629 q 1183 608 1104 629 q 1313 538 1261 588 q 1376 442 1353 497 q 1399 317 1399 386 q 1376 190 1399 246 q 1314 93 1354 133 q 1184 22 1263 43 q 993 0 1106 0 l 842 0 l 842 -339 l 617 -339 l 617 0 m 617 167 l 617 463 l 503 463 q 399 456 440 463 q 335 426 358 449 q 297 314 297 390 q 335 201 297 236 q 399 173 358 179 q 503 167 440 167 l 617 167 m 842 463 l 842 167 l 954 167 q 1058 173 1017 167 q 1122 201 1099 179 q 1160 314 1160 236 q 1122 426 1160 390 q 1058 456 1099 449 q 954 463 1017 463 l 842 463 z "},"х":{"ha":1214,"x_min":8,"x_max":1164,"o":"m 561 224 l 293 0 l 8 0 l 426 328 l 39 629 l 353 629 l 600 436 l 831 629 l 1119 629 l 736 331 l 1164 0 l 850 0 l 561 224 z "},"ц":{"ha":1343,"x_min":100,"x_max":1243,"o":"m 1243 -246 l 1019 -246 l 1019 0 l 100 0 l 100 629 l 335 629 l 335 171 l 881 171 l 881 629 l 1115 629 l 1115 171 l 1243 171 l 1243 -246 z "},"ч":{"ha":1225,"x_min":86,"x_max":1083,"o":"m 1083 0 l 849 0 l 849 138 l 464 138 q 263 158 336 138 q 150 219 190 178 q 100 307 114 256 q 86 444 86 358 l 86 629 l 321 629 l 321 465 q 328 388 321 417 q 353 343 336 360 q 411 316 374 322 q 510 310 449 310 l 849 310 l 849 629 l 1083 629 l 1083 0 z "},"ш":{"ha":1613,"x_min":100,"x_max":1471,"o":"m 100 629 l 335 629 l 335 171 l 668 171 l 668 629 l 903 629 l 903 171 l 1236 171 l 1236 629 l 1471 629 l 1471 0 l 100 0 l 100 629 z "},"щ":{"ha":1660,"x_min":100,"x_max":1560,"o":"m 100 0 l 100 629 l 335 629 l 335 171 l 649 171 l 649 629 l 883 629 l 883 171 l 1197 171 l 1197 629 l 1432 629 l 1432 171 l 1560 171 l 1560 -246 l 1336 -246 l 1336 0 l 100 0 z "},"ъ":{"ha":1415,"x_min":25,"x_max":1326,"o":"m 25 629 l 582 629 l 582 438 l 1064 438 q 1260 378 1193 438 q 1326 219 1326 318 q 1262 61 1326 122 q 1063 0 1197 0 l 347 0 l 347 458 l 25 458 l 25 629 m 582 276 l 582 163 l 1031 163 q 1088 218 1088 163 q 1031 276 1088 276 l 582 276 z "},"ы":{"ha":1582,"x_min":100,"x_max":1440,"o":"m 100 629 l 335 629 l 335 438 l 817 438 q 1013 378 946 438 q 1079 219 1079 318 q 1015 61 1079 122 q 815 0 950 0 l 100 0 l 100 629 m 335 276 l 335 163 l 783 163 q 840 218 840 163 q 783 276 840 276 l 335 276 m 1206 629 l 1440 629 l 1440 0 l 1206 0 l 1206 629 z "},"ь":{"ha":1168,"x_min":100,"x_max":1079,"o":"m 100 629 l 335 629 l 335 438 l 817 438 q 1013 378 946 438 q 1079 219 1079 318 q 1015 61 1079 122 q 815 0 950 0 l 100 0 l 100 629 m 335 276 l 335 163 l 783 163 q 840 218 840 163 q 783 276 840 276 l 335 276 z "},"э":{"ha":1124,"x_min":56,"x_max":1024,"o":"m 104 242 l 104 393 l 775 393 q 729 450 763 429 q 599 474 690 474 l 56 474 l 56 629 l 617 629 q 808 608 729 629 q 938 538 886 588 q 1001 442 978 497 q 1024 317 1024 386 q 1001 190 1024 246 q 939 93 979 133 q 809 22 888 43 q 618 0 731 0 l 56 0 l 56 156 l 599 156 q 683 163 647 156 q 740 186 718 169 q 778 242 769 210 l 104 242 z "},"ю":{"ha":1643,"x_min":100,"x_max":1543,"o":"m 100 629 l 335 629 l 335 401 l 476 401 q 553 538 494 482 q 683 608 604 588 q 874 629 761 629 l 1136 629 q 1327 608 1249 629 q 1457 538 1406 588 q 1520 442 1497 497 q 1543 317 1543 386 q 1521 190 1543 246 q 1458 93 1499 133 q 1328 22 1407 43 q 1138 0 1250 0 l 872 0 q 681 22 760 0 q 551 93 603 43 q 476 231 496 144 l 335 231 l 335 0 l 100 0 l 100 629 m 1122 172 q 1213 178 1183 172 q 1267 207 1243 185 q 1304 314 1304 242 q 1295 377 1304 351 q 1267 421 1286 403 q 1202 450 1243 443 q 1099 457 1161 457 l 911 457 q 808 450 849 457 q 743 421 767 443 q 715 377 724 403 q 706 314 706 351 q 743 207 706 242 q 820 178 767 185 q 935 172 874 172 l 1122 172 z "},"я":{"ha":1201,"x_min":47,"x_max":1060,"o":"m 1060 0 l 825 0 l 825 178 l 556 178 q 506 170 525 178 q 472 146 488 163 l 333 0 l 47 0 l 153 107 q 207 157 181 135 q 261 193 233 179 q 136 257 186 206 q 86 401 86 308 q 102 492 86 450 q 151 564 118 533 q 233 612 183 594 q 350 629 283 629 l 1060 629 l 1060 0 m 825 335 l 825 467 l 390 467 q 344 451 363 467 q 325 403 325 436 q 344 352 325 369 q 390 335 363 335 l 825 335 z "},"ѐ":{"ha":1213,"x_min":58,"x_max":1107,"o":"m 301 246 q 309 216 303 231 q 328 192 315 201 q 383 171 347 176 q 482 165 418 165 l 1054 165 l 1054 0 l 442 0 q 260 22 333 0 q 139 89 186 43 q 58 317 58 167 q 83 449 58 396 q 149 539 108 503 q 288 608 201 588 q 485 629 375 629 l 674 629 q 874 611 789 629 q 1017 540 958 593 q 1083 444 1058 503 q 1107 307 1107 386 q 1106 274 1107 292 q 1101 246 1104 257 l 301 246 m 874 383 q 838 447 872 426 q 784 463 818 460 q 701 467 750 467 l 475 467 q 392 463 426 467 q 339 447 358 460 q 303 383 304 426 l 874 383 m 765 757 l 543 757 l 278 1014 l 576 1014 l 765 757 z "},"ё":{"ha":1213,"x_min":58,"x_max":1107,"o":"m 301 246 q 309 216 303 231 q 328 192 315 201 q 383 171 347 176 q 482 165 418 165 l 1054 165 l 1054 0 l 442 0 q 260 22 333 0 q 139 89 186 43 q 58 317 58 167 q 83 449 58 396 q 149 539 108 503 q 288 608 201 588 q 485 629 375 629 l 674 629 q 874 611 789 629 q 1017 540 958 593 q 1083 444 1058 503 q 1107 307 1107 386 q 1106 274 1107 292 q 1101 246 1104 257 l 301 246 m 874 383 q 838 447 872 426 q 784 463 818 460 q 701 467 750 467 l 475 467 q 392 463 426 467 q 339 447 358 460 q 303 383 304 426 l 874 383 m 513 853 q 503 797 513 818 q 478 763 494 775 q 436 747 461 751 q 379 743 411 743 q 322 747 347 743 q 281 763 297 751 q 256 797 264 775 q 247 853 247 818 q 256 909 247 888 q 281 942 264 931 q 322 958 297 954 q 379 963 347 963 q 436 958 411 963 q 478 942 461 954 q 503 909 494 931 q 513 853 513 888 m 924 853 q 915 797 924 818 q 889 763 906 775 q 847 747 872 751 q 790 743 822 743 q 733 747 758 743 q 692 763 708 751 q 667 797 675 775 q 658 853 658 818 q 667 909 658 888 q 692 942 675 931 q 733 958 708 954 q 790 963 758 963 q 847 958 822 963 q 889 942 872 954 q 915 909 906 931 q 924 853 924 888 z "},"ђ":{"ha":1219,"x_min":-21,"x_max":1092,"o":"m 511 -196 l 511 -24 l 668 -24 q 767 -17 729 -24 q 825 10 804 -11 q 849 55 842 26 q 857 132 857 83 l 857 290 q 849 367 857 339 q 825 413 842 396 q 767 440 804 433 q 668 446 729 446 l 343 446 l 343 0 l 108 0 l 108 746 l -21 746 l -21 886 l 108 886 l 108 1008 l 343 1008 l 343 886 l 733 886 l 733 746 l 343 746 l 343 618 l 714 618 q 915 598 842 618 q 1028 536 988 578 q 1078 449 1064 500 q 1092 311 1092 397 l 1092 111 q 1078 -26 1092 25 q 1028 -114 1064 -78 q 915 -176 988 -156 q 714 -196 842 -196 l 511 -196 z "},"ѓ":{"ha":1122,"x_min":100,"x_max":1026,"o":"m 335 0 l 100 0 l 100 629 l 1026 629 l 1026 458 l 335 458 l 335 0 m 608 1014 l 907 1014 l 642 757 l 419 757 l 608 1014 z "},"є":{"ha":1151,"x_min":58,"x_max":1054,"o":"m 304 242 q 329 206 313 219 q 394 177 353 183 q 497 171 435 171 l 1054 171 l 1054 0 l 464 0 q 273 22 351 0 q 143 93 194 43 q 81 190 103 133 q 58 317 58 246 q 81 442 58 386 q 144 538 104 497 q 274 608 196 588 q 465 629 353 629 l 1054 629 l 1054 458 l 497 458 q 394 451 435 458 q 329 422 353 444 q 307 393 315 411 l 1006 393 l 1006 242 l 304 242 z "},"ѕ":{"ha":1151,"x_min":68,"x_max":1047,"o":"m 788 397 q 915 383 867 397 q 994 340 963 369 q 1034 278 1021 315 q 1047 199 1047 240 q 1034 120 1047 157 q 994 58 1021 83 q 915 15 963 29 q 789 0 867 0 l 106 0 l 106 160 l 782 160 q 832 197 832 160 q 782 235 832 235 l 328 235 q 201 249 249 235 q 121 293 153 264 q 81 354 94 318 q 68 432 68 390 q 81 510 68 474 q 121 571 94 546 q 201 615 153 600 q 328 629 250 629 l 996 629 l 996 469 l 333 469 q 283 433 283 469 q 333 397 283 397 l 788 397 z "},"і":{"ha":482,"x_min":85,"x_max":354,"o":"m 103 629 l 338 629 l 338 0 l 103 0 l 103 629 m 354 857 q 346 799 354 821 q 321 765 338 776 q 278 749 304 753 q 219 744 253 744 q 160 749 186 744 q 118 765 135 753 q 93 799 101 776 q 85 857 85 821 q 93 915 85 893 q 118 949 101 938 q 160 965 135 961 q 219 969 186 969 q 278 965 253 969 q 321 949 304 961 q 346 915 338 938 q 354 857 354 893 z "},"ї":{"ha":482,"x_min":-118,"x_max":558,"o":"m 103 629 l 338 629 l 338 0 l 103 0 l 103 629 m 147 853 q 138 797 147 818 q 113 763 129 775 q 71 747 96 751 q 14 743 46 743 q -43 747 -18 743 q -85 763 -68 751 q -110 797 -101 775 q -118 853 -118 818 q -110 909 -118 888 q -85 942 -101 931 q -43 958 -68 954 q 14 963 -18 963 q 71 958 46 963 q 113 942 96 954 q 138 909 129 931 q 147 853 147 888 m 558 853 q 549 797 558 818 q 524 763 540 775 q 482 747 507 751 q 425 743 457 743 q 368 747 393 743 q 326 763 343 751 q 301 797 310 775 q 293 853 293 818 q 301 909 293 888 q 326 942 310 931 q 368 958 343 954 q 425 963 393 963 q 482 958 457 963 q 524 942 507 954 q 549 909 540 931 q 558 853 558 888 z "},"ј":{"ha":482,"x_min":-82,"x_max":354,"o":"m 103 629 l 338 629 l 338 -61 q 326 -187 338 -136 q 278 -274 314 -237 q 188 -322 246 -306 q 33 -339 129 -339 l -82 -339 l -82 -174 l -7 -174 q 85 -149 64 -174 q 99 -115 96 -136 q 103 -67 103 -94 l 103 629 m 354 857 q 346 799 354 821 q 321 765 338 776 q 278 749 304 753 q 219 744 253 744 q 160 749 186 744 q 118 765 135 753 q 93 799 101 776 q 85 857 85 821 q 93 915 85 893 q 118 949 101 938 q 160 965 135 961 q 219 969 186 969 q 278 965 253 969 q 321 949 304 961 q 346 915 338 938 q 354 857 354 893 z "},"љ":{"ha":1967,"x_min":58,"x_max":1878,"o":"m 514 458 l 497 233 q 476 126 493 171 q 426 53 458 82 q 344 13 393 25 q 225 0 294 0 l 58 0 l 58 161 l 118 161 q 188 163 161 161 q 232 172 215 164 q 256 199 249 181 q 265 253 263 218 l 292 629 l 1133 629 l 1133 438 l 1615 438 q 1811 378 1744 438 q 1878 219 1878 318 q 1813 61 1878 122 q 1614 0 1749 0 l 899 0 l 899 458 l 514 458 m 1133 276 l 1133 163 l 1582 163 q 1639 218 1639 163 q 1582 276 1639 276 l 1133 276 z "},"њ":{"ha":1883,"x_min":83,"x_max":1782,"o":"m 803 231 l 318 231 l 318 0 l 83 0 l 83 629 l 318 629 l 318 401 l 803 401 l 803 629 l 1038 629 l 1038 438 l 1519 438 q 1715 378 1649 438 q 1782 219 1782 318 q 1717 61 1782 122 q 1518 0 1653 0 l 803 0 l 803 231 m 1038 276 l 1038 163 l 1486 163 q 1543 218 1543 163 q 1486 276 1543 276 l 1038 276 z "},"ћ":{"ha":1211,"x_min":-31,"x_max":1089,"o":"m 106 747 l -31 747 l -31 888 l 106 888 l 106 1008 l 340 1008 l 340 888 l 706 888 l 706 747 l 340 747 l 340 629 l 711 629 q 912 609 839 629 q 1025 547 985 589 q 1075 460 1061 511 q 1089 322 1089 408 l 1089 0 l 854 0 l 854 301 q 847 378 854 350 q 822 424 839 407 q 764 451 801 444 q 665 457 726 457 l 340 457 l 340 0 l 106 0 l 106 747 z "},"ќ":{"ha":1107,"x_min":100,"x_max":1057,"o":"m 100 629 l 335 629 l 335 403 l 442 403 l 728 629 l 1029 629 l 644 335 l 1057 0 l 753 0 l 463 242 l 335 242 l 335 0 l 100 0 l 100 629 m 550 1014 l 849 1014 l 583 757 l 361 757 l 550 1014 z "},"ѝ":{"ha":1269,"x_min":100,"x_max":1128,"o":"m 894 514 l 894 629 l 1128 629 l 1128 0 l 893 0 l 893 340 l 335 119 l 335 0 l 100 0 l 100 629 l 335 629 l 335 293 l 894 514 m 801 757 l 579 757 l 314 1014 l 613 1014 l 801 757 z "},"ў":{"ha":1197,"x_min":86,"x_max":1056,"o":"m 1056 -11 q 1036 -156 1056 -100 q 976 -250 1017 -212 q 851 -319 926 -299 q 657 -339 775 -339 l 222 -339 l 222 -168 l 626 -168 q 728 -160 689 -168 q 792 -125 768 -153 q 814 -83 807 -108 q 821 -17 821 -57 l 821 0 l 464 0 q 263 20 336 0 q 150 82 190 40 q 100 169 114 118 q 86 307 86 221 l 86 629 l 321 629 l 321 328 q 328 251 321 279 q 353 206 336 222 q 411 178 374 185 q 510 172 449 172 l 821 172 l 821 629 l 1056 629 l 1056 -11 m 558 753 q 325 815 415 753 q 225 1006 235 876 l 411 1006 q 572 892 428 892 l 582 892 q 743 1006 729 892 l 929 1006 q 830 815 919 876 q 597 753 740 753 l 558 753 z "},"џ":{"ha":1199,"x_min":83,"x_max":1111,"o":"m 706 0 l 706 -246 l 482 -246 l 482 0 l 83 0 l 83 629 l 318 629 l 318 171 l 876 171 l 876 629 l 1111 629 l 1111 0 l 706 0 z "},"Ѣ":{"ha":1722,"x_min":58,"x_max":1625,"o":"m 560 940 l 1151 940 l 1151 756 l 560 756 l 560 614 l 1210 614 q 1352 606 1289 614 q 1464 578 1415 599 q 1587 474 1549 542 q 1625 310 1625 406 q 1599 170 1625 225 q 1526 79 1572 115 q 1381 15 1463 31 q 1189 0 1300 0 l 306 0 l 306 756 l 58 756 l 58 940 l 306 940 l 306 1078 l 560 1078 l 560 940 m 1189 200 q 1260 201 1225 200 q 1319 215 1294 203 q 1356 249 1343 226 q 1368 311 1368 271 q 1359 367 1368 347 q 1333 399 1350 386 q 1272 419 1310 417 q 1189 422 1235 422 l 560 422 l 560 200 l 1189 200 z "},"ѣ":{"ha":1174,"x_min":-24,"x_max":1085,"o":"m 340 653 l 340 464 l 814 464 q 931 446 881 464 q 1016 397 982 428 q 1067 323 1050 365 q 1085 232 1085 281 q 1068 141 1085 183 q 1018 67 1051 99 q 933 18 985 36 q 813 0 882 0 l 106 0 l 106 653 l -24 653 l -24 793 l 106 793 l 106 1008 l 340 1008 l 340 793 l 744 793 l 744 653 l 340 653 m 340 303 l 340 163 l 781 163 q 829 178 813 163 q 846 231 846 193 q 829 288 846 272 q 781 303 813 303 l 340 303 z "},"Ѳ":{"ha":1776,"x_min":72,"x_max":1663,"o":"m 968 1025 q 1319 990 1179 1025 q 1542 871 1458 956 q 1633 715 1603 808 q 1663 504 1663 622 q 1633 293 1663 386 q 1542 138 1603 200 q 1318 18 1458 53 q 965 -17 1178 -17 l 767 -17 q 416 18 556 -17 q 193 138 276 53 q 102 293 132 200 q 72 504 72 386 q 102 715 72 622 q 193 871 132 808 q 416 990 276 956 q 767 1025 556 1025 l 968 1025 m 944 204 q 1072 207 1015 204 q 1172 217 1128 210 q 1251 237 1217 224 q 1310 269 1285 250 q 1389 415 1372 318 l 344 415 q 373 330 353 365 q 425 269 393 294 q 484 237 450 250 q 563 217 518 224 q 663 207 607 210 q 790 204 719 204 l 944 204 m 425 739 q 377 682 396 715 q 349 607 358 649 l 1385 607 q 1310 739 1365 693 q 1172 791 1258 778 q 943 804 1086 804 l 792 804 q 563 791 649 804 q 425 739 476 778 z "},"ѳ":{"ha":1263,"x_min":58,"x_max":1163,"o":"m 464 0 q 273 22 351 0 q 143 93 194 43 q 81 190 103 133 q 58 317 58 246 q 81 442 58 386 q 144 538 104 497 q 274 608 196 588 q 465 629 353 629 l 756 629 q 947 608 868 629 q 1076 538 1025 588 q 1140 442 1117 497 q 1163 317 1163 386 q 1140 190 1163 246 q 1078 93 1118 133 q 948 22 1026 43 q 757 0 869 0 l 464 0 m 718 172 q 822 178 781 172 q 886 207 863 185 q 901 225 894 215 q 913 247 908 235 l 307 247 q 335 207 317 222 q 399 178 358 185 q 503 172 440 172 l 718 172 m 335 421 q 310 388 319 406 l 910 388 q 886 421 901 406 q 822 450 863 443 q 718 457 781 457 l 503 457 q 399 450 440 457 q 335 421 358 443 z "},"Ѵ":{"ha":1676,"x_min":-11,"x_max":1610,"o":"m 892 0 l 671 0 l -11 1008 l 282 1008 l 788 244 l 1153 853 q 1209 928 1181 897 q 1271 976 1238 958 q 1344 1002 1304 994 q 1435 1010 1385 1010 l 1610 1010 l 1610 808 l 1478 808 q 1438 806 1454 808 q 1407 796 1421 803 q 1382 775 1393 789 q 1357 740 1371 761 l 892 0 z "},"ѵ":{"ha":1221,"x_min":-8,"x_max":1136,"o":"m 688 0 l 442 0 l -8 629 l 269 629 l 569 194 l 769 511 q 861 604 814 579 q 978 629 908 629 l 1136 629 l 1136 458 l 1051 458 q 997 448 1013 458 q 964 413 981 438 l 688 0 z "},"Ґ":{"ha":1396,"x_min":136,"x_max":1313,"o":"m 1313 808 l 390 808 l 390 0 l 136 0 l 136 1008 l 1081 1008 l 1081 1289 l 1313 1289 l 1313 808 z "},"ґ":{"ha":1122,"x_min":100,"x_max":1026,"o":"m 1026 458 l 335 458 l 335 0 l 100 0 l 100 629 l 819 629 l 819 832 l 1026 832 l 1026 458 z "},"Ғ":{"ha":1528,"x_min":22,"x_max":1444,"o":"m 263 0 l 263 372 l 22 372 l 22 568 l 263 568 l 263 1008 l 1444 1008 l 1444 808 l 517 808 l 517 568 l 1099 568 l 1099 372 l 517 372 l 517 0 l 263 0 z "},"ғ":{"ha":1260,"x_min":35,"x_max":1164,"o":"m 472 204 l 472 0 l 238 0 l 238 204 l 35 204 l 35 344 l 238 344 l 238 629 l 1164 629 l 1164 458 l 472 458 l 472 344 l 886 344 l 886 204 l 472 204 z "},"Қ":{"ha":1558,"x_min":136,"x_max":1464,"o":"m 390 635 l 640 635 l 1106 1008 l 1449 1008 l 844 538 l 1254 200 l 1464 200 l 1464 -282 l 1224 -282 l 1224 0 l 1144 0 l 653 417 l 390 417 l 390 0 l 136 0 l 136 1008 l 390 1008 l 390 635 z "},"қ":{"ha":1149,"x_min":100,"x_max":1049,"o":"m 825 0 l 753 0 l 463 242 l 335 242 l 335 0 l 100 0 l 100 629 l 335 629 l 335 403 l 442 403 l 728 629 l 1029 629 l 644 335 l 846 171 l 1049 171 l 1049 -246 l 825 -246 l 825 0 z "},"Ң":{"ha":1765,"x_min":136,"x_max":1671,"o":"m 1431 0 l 1269 0 l 1269 418 l 390 418 l 390 0 l 136 0 l 136 1008 l 390 1008 l 390 625 l 1269 625 l 1269 1008 l 1524 1008 l 1524 200 l 1671 200 l 1671 -282 l 1431 -282 l 1431 0 z "},"ң":{"ha":1335,"x_min":83,"x_max":1235,"o":"m 1011 0 l 876 0 l 876 231 l 318 231 l 318 0 l 83 0 l 83 629 l 318 629 l 318 401 l 876 401 l 876 629 l 1111 629 l 1111 171 l 1235 171 l 1235 -246 l 1011 -246 l 1011 0 z "},"Ү":{"ha":1617,"x_min":3,"x_max":1572,"o":"m 1265 1008 l 1572 1008 l 913 365 l 913 0 l 661 0 l 661 364 l 3 1008 l 318 1008 l 790 539 l 1265 1008 z "},"ү":{"ha":1172,"x_min":-8,"x_max":1139,"o":"m 690 0 l 690 -339 l 456 -339 l 456 0 l -8 629 l 269 629 l 569 194 l 871 629 l 1139 629 l 690 0 z "},"Ұ":{"ha":1617,"x_min":3,"x_max":1572,"o":"m 1265 1008 l 1572 1008 l 1083 513 l 1286 513 l 1286 317 l 913 317 l 913 0 l 661 0 l 661 317 l 289 317 l 289 513 l 489 513 l 3 1008 l 318 1008 l 790 513 l 1265 1008 z "},"ұ":{"ha":1172,"x_min":-8,"x_max":1139,"o":"m 692 -3 l 690 -6 l 690 -339 l 456 -339 l 456 -6 l 453 -3 l 147 -3 l 147 144 l 346 144 l -8 629 l 269 629 l 569 169 l 871 629 l 1139 629 l 796 144 l 996 144 l 996 -3 l 692 -3 z "},"Һ":{"ha":1583,"x_min":136,"x_max":1425,"o":"m 136 1008 l 390 1008 l 390 649 l 1047 649 q 1248 628 1175 649 q 1361 567 1321 608 q 1410 479 1396 531 q 1425 333 1425 428 l 1425 0 l 1171 0 l 1171 293 q 1163 370 1171 342 q 1139 415 1156 399 q 1083 442 1118 436 q 986 449 1047 449 l 390 449 l 390 0 l 136 0 l 136 1008 z "},"һ":{"ha":1211,"x_min":100,"x_max":1083,"o":"m 100 1008 l 335 1008 l 335 629 l 706 629 q 906 609 833 629 q 1019 547 979 589 q 1069 460 1056 511 q 1083 322 1083 408 l 1083 0 l 849 0 l 849 301 q 841 378 849 350 q 817 424 833 407 q 758 451 796 444 q 660 457 721 457 l 335 457 l 335 0 l 100 0 l 100 1008 z "},"Ә":{"ha":1585,"x_min":58,"x_max":1471,"o":"m 932 1008 q 1184 978 1085 1008 q 1351 879 1283 949 q 1442 726 1413 817 q 1471 518 1471 635 q 1441 299 1471 394 q 1351 139 1411 203 q 1142 19 1274 56 q 819 -17 1010 -17 l 729 -17 q 428 10 554 -17 q 219 103 301 38 q 97 277 136 168 q 58 551 58 386 l 58 622 l 1193 622 q 1176 697 1190 661 q 1132 760 1161 732 q 1051 796 1104 783 q 904 808 997 808 l 167 808 l 167 1008 l 932 1008 m 793 200 q 1006 218 924 200 q 1133 275 1089 236 q 1185 340 1168 306 q 1203 433 1201 375 l 340 433 l 340 415 q 358 331 340 369 q 419 263 376 292 q 533 217 463 233 q 707 200 603 200 l 793 200 z "},"ә":{"ha":1213,"x_min":64,"x_max":1113,"o":"m 869 383 q 862 413 868 399 q 843 438 856 428 q 788 458 824 453 q 689 464 753 464 l 117 464 l 117 629 l 729 629 q 911 608 838 629 q 1032 540 985 586 q 1113 313 1113 463 q 1088 180 1113 233 q 1022 90 1063 126 q 883 21 969 42 q 686 0 796 0 l 497 0 q 297 18 382 0 q 154 89 213 36 q 88 185 113 126 q 64 322 64 243 q 65 355 64 338 q 69 383 67 372 l 869 383 m 297 246 q 333 182 299 203 q 387 166 353 169 q 469 163 421 163 l 696 163 q 778 166 744 163 q 832 182 813 169 q 868 246 867 203 l 297 246 z "},"Ө":{"ha":1776,"x_min":72,"x_max":1663,"o":"m 968 1025 q 1319 990 1179 1025 q 1542 871 1458 956 q 1633 715 1603 808 q 1663 504 1663 622 q 1633 293 1663 386 q 1542 138 1603 200 q 1318 18 1458 53 q 965 -17 1178 -17 l 767 -17 q 416 18 556 -17 q 193 138 276 53 q 102 293 132 200 q 72 504 72 386 q 102 715 72 622 q 193 871 132 808 q 416 990 276 956 q 767 1025 556 1025 l 968 1025 m 944 204 q 1072 207 1015 204 q 1172 217 1128 210 q 1251 237 1217 224 q 1310 269 1285 250 q 1388 410 1371 318 l 346 410 q 425 269 365 315 q 484 237 450 250 q 563 217 518 224 q 663 207 607 210 q 790 204 719 204 l 944 204 m 425 739 q 347 601 364 690 l 1388 601 q 1310 739 1368 692 q 1172 791 1258 778 q 943 804 1086 804 l 792 804 q 563 791 649 804 q 425 739 476 778 z "},"ө":{"ha":1263,"x_min":58,"x_max":1163,"o":"m 464 0 q 273 22 351 0 q 143 93 194 43 q 81 190 103 133 q 58 317 58 246 q 81 442 58 386 q 144 538 104 497 q 274 608 196 588 q 465 629 353 629 l 756 629 q 947 608 868 629 q 1076 538 1025 588 q 1140 442 1117 497 q 1163 317 1163 386 q 1140 190 1163 246 q 1078 93 1118 133 q 948 22 1026 43 q 757 0 869 0 l 464 0 m 718 172 q 822 178 781 172 q 886 207 863 185 q 913 244 901 221 l 308 244 q 335 207 317 224 q 399 178 358 185 q 503 172 440 172 l 718 172 m 335 421 q 308 385 318 404 l 911 385 q 900 404 907 396 q 886 421 893 413 q 822 450 863 443 q 718 457 781 457 l 503 457 q 399 450 440 457 q 335 421 358 443 z "},"–":{"ha":874,"x_min":97,"x_max":735,"o":"m 97 403 l 735 403 l 735 231 l 97 231 l 97 403 z "},"—":{"ha":1482,"x_min":97,"x_max":1343,"o":"m 97 403 l 1343 403 l 1343 231 l 97 231 l 97 403 z "},"―":{"ha":1482,"x_min":97,"x_max":1343,"o":"m 97 403 l 1343 403 l 1343 231 l 97 231 l 97 403 z "},"‘":{"ha":501,"x_min":64,"x_max":390,"o":"m 64 735 q 75 794 64 764 q 110 865 86 824 l 246 1110 l 390 1110 l 283 844 q 337 798 315 825 q 358 726 358 771 q 323 638 358 664 q 210 613 288 613 q 101 637 138 613 q 64 735 64 661 z "},"’":{"ha":501,"x_min":69,"x_max":396,"o":"m 396 988 q 385 928 396 958 q 350 857 374 899 l 214 613 l 69 613 l 176 878 q 123 924 144 897 q 101 996 101 951 q 137 1084 101 1058 q 250 1110 172 1110 q 359 1085 322 1110 q 396 988 396 1061 z "},"‚":{"ha":490,"x_min":50,"x_max":376,"o":"m 376 100 q 365 41 376 71 q 331 -31 354 11 l 194 -275 l 50 -275 l 157 -10 q 103 37 125 10 q 82 108 82 64 q 117 197 82 171 q 231 222 153 222 q 340 198 303 222 q 376 100 376 174 z "},"“":{"ha":893,"x_min":64,"x_max":782,"o":"m 64 735 q 75 794 64 764 q 110 865 86 824 l 246 1110 l 390 1110 l 283 844 q 337 798 315 825 q 358 726 358 771 q 323 638 358 664 q 210 613 288 613 q 101 637 138 613 q 64 735 64 661 m 456 735 q 467 794 456 764 q 501 865 478 824 l 638 1110 l 782 1110 l 675 844 q 728 798 707 825 q 750 726 750 771 q 715 638 750 664 q 601 613 679 613 q 492 637 529 613 q 456 735 456 661 z "},"”":{"ha":893,"x_min":69,"x_max":788,"o":"m 396 988 q 385 928 396 958 q 350 857 374 899 l 214 613 l 69 613 l 176 878 q 123 924 144 897 q 101 996 101 951 q 137 1084 101 1058 q 250 1110 172 1110 q 359 1085 322 1110 q 396 988 396 1061 m 788 988 q 776 928 788 958 q 742 857 765 899 l 606 613 l 461 613 l 568 878 q 515 924 536 897 q 493 996 493 951 q 528 1084 493 1058 q 642 1110 564 1110 q 751 1085 714 1110 q 788 988 788 1061 z "},"„":{"ha":881,"x_min":50,"x_max":767,"o":"m 376 100 q 365 41 376 71 q 331 -31 354 11 l 194 -275 l 50 -275 l 157 -10 q 103 37 125 10 q 82 108 82 64 q 117 197 82 171 q 231 222 153 222 q 340 198 303 222 q 376 100 376 174 m 767 100 q 756 41 767 71 q 721 -31 744 11 l 585 -275 l 440 -275 l 547 -10 q 494 37 515 10 q 472 108 472 64 q 508 197 472 171 q 621 222 543 222 q 730 198 693 222 q 767 100 767 174 z "},"†":{"ha":1190,"x_min":69,"x_max":1079,"o":"m 69 649 l 467 636 l 447 1086 l 701 1086 l 682 636 l 1079 649 l 1079 435 l 679 446 l 701 -440 l 447 -440 l 468 447 l 69 435 l 69 649 z "},"‡":{"ha":1190,"x_min":69,"x_max":1079,"o":"m 683 -79 l 701 -440 l 449 -440 l 464 -78 l 69 -90 l 69 124 l 468 111 l 468 515 l 69 503 l 69 717 l 467 704 l 447 1086 l 701 1086 l 682 704 l 1079 717 l 1079 503 l 679 514 l 679 111 l 1079 124 l 1079 -90 l 683 -79 z "},"•":{"ha":724,"x_min":83,"x_max":599,"o":"m 83 424 q 103 523 83 476 q 158 603 124 569 q 240 657 193 638 q 340 676 288 676 q 440 657 393 676 q 523 603 488 638 q 578 523 558 569 q 599 424 599 476 q 578 325 599 371 q 523 245 558 279 q 440 192 488 211 q 340 172 393 172 q 240 192 288 172 q 158 245 193 211 q 103 325 124 279 q 83 424 83 371 z "},"…":{"ha":1388,"x_min":81,"x_max":1265,"o":"m 368 103 q 359 42 368 65 q 331 5 350 18 q 285 -12 313 -8 q 224 -17 258 -17 q 162 -12 189 -17 q 117 5 135 -8 q 90 42 99 18 q 81 103 81 65 q 90 164 81 140 q 117 201 99 188 q 162 218 135 214 q 224 222 189 222 q 285 218 258 222 q 331 201 313 214 q 359 164 350 188 q 368 103 368 140 m 817 103 q 808 42 817 65 q 780 5 799 18 q 734 -12 761 -8 q 672 -17 707 -17 q 610 -12 638 -17 q 565 5 583 -8 q 538 42 547 18 q 529 103 529 65 q 538 164 529 140 q 565 201 547 188 q 610 218 583 214 q 672 222 638 222 q 734 218 707 222 q 780 201 761 214 q 808 164 799 188 q 817 103 817 140 m 1265 103 q 1256 42 1265 65 q 1228 5 1247 18 q 1183 -12 1210 -8 q 1121 -17 1156 -17 q 1059 -12 1086 -17 q 1014 5 1032 -8 q 987 42 996 18 q 978 103 978 65 q 987 164 978 140 q 1014 201 996 188 q 1059 218 1032 214 q 1121 222 1086 222 q 1183 218 1156 222 q 1228 201 1210 214 q 1256 164 1247 188 q 1265 103 1265 140 z "},"‰":{"ha":2732,"x_min":83,"x_max":2607,"o":"m 457 669 q 530 674 501 669 q 574 689 558 678 q 603 768 603 717 q 574 849 603 824 q 530 865 558 861 q 457 868 501 868 l 428 868 q 353 865 381 868 q 310 849 326 861 q 281 768 281 824 q 310 689 281 717 q 353 674 326 678 q 426 669 381 669 l 457 669 m 468 1025 q 634 1007 568 1025 q 739 949 700 989 q 783 873 767 918 q 799 768 799 828 q 783 665 799 710 q 739 590 767 621 q 633 532 700 550 q 467 514 567 514 l 417 514 q 250 532 317 514 q 143 590 183 550 q 99 665 115 621 q 83 768 83 710 q 99 873 83 828 q 143 949 115 918 q 250 1007 183 989 q 417 1025 317 1025 l 468 1025 m 1476 139 q 1549 143 1521 139 q 1593 158 1578 147 q 1622 238 1622 186 q 1593 318 1622 293 q 1549 334 1578 331 q 1476 338 1521 338 l 1447 338 q 1373 334 1400 338 q 1329 318 1346 331 q 1300 238 1300 293 q 1329 158 1300 186 q 1373 143 1346 147 q 1446 139 1400 139 l 1476 139 m 1488 494 q 1653 476 1588 494 q 1758 418 1719 458 q 1802 342 1786 388 q 1818 238 1818 297 q 1802 135 1818 179 q 1758 60 1786 90 q 1653 1 1719 19 q 1486 -17 1586 -17 l 1436 -17 q 1269 1 1336 -17 q 1163 60 1203 19 q 1119 135 1135 90 q 1103 238 1103 179 q 1119 342 1103 297 q 1163 418 1135 388 q 1269 476 1203 458 q 1436 494 1336 494 l 1488 494 m 2265 139 q 2338 143 2310 139 q 2382 158 2367 147 q 2411 238 2411 186 q 2382 318 2411 293 q 2338 334 2367 331 q 2265 338 2310 338 l 2236 338 q 2162 334 2189 338 q 2118 318 2135 331 q 2089 238 2089 293 q 2118 158 2089 186 q 2162 143 2135 147 q 2235 139 2189 139 l 2265 139 m 2276 494 q 2442 476 2376 494 q 2547 418 2508 458 q 2591 342 2575 388 q 2607 238 2607 297 q 2591 135 2607 179 q 2547 60 2575 90 q 2442 1 2508 19 q 2275 -17 2375 -17 l 2225 -17 q 2058 1 2125 -17 q 1951 60 1992 19 q 1908 135 1924 90 q 1892 238 1892 179 q 1908 342 1892 297 q 1951 418 1924 388 q 2058 476 1992 458 q 2225 494 2125 494 l 2276 494 m 579 -17 l 325 -17 l 1326 1026 l 1581 1026 l 579 -17 z "},"‹":{"ha":803,"x_min":75,"x_max":678,"o":"m 678 219 l 586 51 l 75 338 l 75 467 l 572 743 l 678 575 l 353 400 l 678 219 z "},"›":{"ha":803,"x_min":83,"x_max":686,"o":"m 408 400 l 83 575 l 189 743 l 686 467 l 686 338 l 175 51 l 83 219 l 408 400 z "},"⁄":{"ha":506,"x_min":-396,"x_max":860,"o":"m -142 -17 l -396 -17 l 606 1026 l 860 1026 l -142 -17 z "},"€":{"ha":1588,"x_min":89,"x_max":1468,"o":"m 525 553 l 525 504 l 525 458 l 1096 458 l 1096 303 l 556 303 q 609 248 572 268 q 695 218 646 228 q 801 206 744 208 q 917 204 858 204 l 1468 204 l 1468 0 l 917 0 q 579 32 713 0 q 367 143 446 64 q 279 303 304 206 l 89 303 l 89 458 l 258 458 l 258 504 l 258 553 l 89 553 l 89 708 l 279 708 q 367 865 304 803 q 579 976 446 944 q 917 1008 713 1008 l 1468 1008 l 1468 804 l 929 804 q 814 803 872 804 q 706 792 756 801 q 616 764 656 783 q 557 708 576 744 l 1096 708 l 1096 553 l 525 553 z "},"ℓ":{"ha":482,"x_min":103,"x_max":338,"o":"m 103 1008 l 338 1008 l 338 0 l 103 0 l 103 1008 z "},"№":{"ha":2474,"x_min":136,"x_max":2361,"o":"m 1694 361 l 2346 361 l 2346 224 l 1694 224 l 1694 361 m 375 1008 l 1319 297 l 1319 1008 l 1564 1008 l 1564 0 l 1336 0 l 381 717 l 381 0 l 136 0 l 136 1008 l 375 1008 m 2069 579 q 2126 584 2101 579 q 2164 603 2150 589 q 2186 665 2186 621 q 2164 728 2186 710 q 2126 747 2150 742 q 2069 751 2101 751 l 1976 751 q 1919 747 1943 751 q 1881 728 1894 742 q 1860 665 1860 708 q 1881 603 1860 621 q 1919 584 1894 589 q 1976 579 1943 579 l 2069 579 m 1932 464 q 1736 525 1800 464 q 1683 665 1683 575 q 1736 806 1683 756 q 1932 865 1797 865 l 2113 865 q 2308 806 2247 865 q 2361 665 2361 756 q 2308 525 2361 575 q 2113 464 2244 464 l 1932 464 z "},"™":{"ha":1961,"x_min":42,"x_max":1842,"o":"m 42 1008 l 772 1008 l 772 843 l 507 843 l 507 497 l 307 497 l 307 843 l 42 843 l 42 1008 m 1065 768 l 1065 497 l 869 497 l 869 1008 l 1074 1008 l 1361 703 l 1643 1008 l 1842 1008 l 1842 497 l 1647 497 l 1647 771 l 1415 510 l 1308 510 l 1065 768 z "},"℮":{"ha":1200,"x_min":56,"x_max":1103,"o":"m 247 190 q 251 174 247 182 q 260 160 254 167 q 403 60 321 97 q 582 22 486 22 q 770 65 683 22 q 918 178 857 107 l 994 178 q 815 44 922 94 q 581 -6 707 -6 q 376 31 472 -6 q 210 132 281 68 q 97 281 139 196 q 56 465 56 367 q 97 649 56 563 q 210 799 139 735 q 376 899 281 863 q 581 936 472 936 q 784 899 689 936 q 950 799 879 863 q 1062 649 1021 735 q 1103 465 1103 563 l 1103 454 l 254 454 q 247 447 247 454 l 247 190 m 247 486 q 254 479 247 479 l 904 479 q 911 486 911 479 l 911 746 q 897 776 911 763 q 755 873 836 838 q 582 908 674 908 q 405 872 486 908 q 261 772 324 835 q 247 739 247 758 l 247 486 z "},"∂":{"ha":1649,"x_min":119,"x_max":1490,"o":"m 818 196 q 1028 214 949 196 q 1153 271 1108 232 q 1222 446 1221 331 l 563 446 q 463 439 500 446 q 406 414 425 432 q 379 339 379 392 q 388 284 379 308 q 418 243 397 260 q 528 206 454 215 q 738 196 603 196 l 818 196 m 947 1008 q 1363 872 1228 1008 q 1457 722 1424 810 q 1490 518 1490 635 q 1460 299 1490 394 q 1371 140 1431 204 q 1168 20 1293 57 q 853 -17 1043 -17 l 746 -17 q 412 13 540 -17 q 215 104 283 42 q 143 210 167 149 q 119 349 119 272 q 137 460 119 411 q 192 546 154 510 q 247 585 215 568 q 322 613 278 601 q 423 629 365 624 q 558 635 481 635 l 1213 635 q 1160 751 1207 708 q 1067 794 1125 782 q 924 807 1010 807 l 228 807 l 228 1008 l 947 1008 z "},"∏":{"ha":1793,"x_min":56,"x_max":1696,"o":"m 56 1008 l 1696 1008 l 1696 808 l 1458 808 l 1458 -458 l 1204 -458 l 1204 808 l 547 808 l 547 -458 l 293 -458 l 293 808 l 56 808 l 56 1008 z "},"∑":{"ha":1419,"x_min":100,"x_max":1286,"o":"m 1286 -458 l 100 -458 l 100 -275 l 663 292 l 663 299 l 100 822 l 100 1008 l 1282 1008 l 1282 808 l 436 808 l 942 335 l 942 265 l 418 -258 l 1286 -258 l 1286 -458 z "},"−":{"ha":1222,"x_min":119,"x_max":1063,"o":"m 119 299 l 119 493 l 1063 493 l 1063 299 l 119 299 z "},"√":{"ha":1356,"x_min":139,"x_max":1300,"o":"m 139 376 l 139 556 l 457 556 l 639 197 l 1047 1031 l 1300 1031 l 761 0 l 529 0 l 308 376 l 139 376 z "},"∞":{"ha":1786,"x_min":115,"x_max":1629,"o":"m 565 160 l 497 160 q 349 176 418 160 q 227 230 279 193 q 145 325 175 267 q 115 467 115 383 q 147 613 115 554 q 232 708 179 672 q 354 760 285 744 q 497 775 424 775 l 575 775 q 660 768 615 775 q 746 749 704 761 q 824 719 788 736 q 885 683 860 703 q 1003 750 929 725 q 1175 775 1078 775 l 1244 775 q 1394 758 1324 775 q 1516 704 1464 742 q 1599 608 1568 667 q 1629 467 1629 550 q 1597 321 1629 379 q 1512 226 1565 263 q 1390 175 1458 190 q 1247 160 1321 160 l 1172 160 q 1088 167 1131 160 q 1005 188 1044 175 q 933 218 965 200 q 878 257 900 236 q 756 186 832 213 q 565 160 679 160 m 560 601 l 542 601 q 408 572 458 601 q 358 467 358 543 q 373 401 358 426 q 413 360 388 375 q 471 338 438 344 q 542 332 504 332 l 560 332 q 684 367 631 332 q 757 461 738 403 l 783 539 q 690 584 749 567 q 560 601 631 601 m 1186 332 l 1204 332 q 1278 338 1244 332 q 1337 359 1313 344 q 1374 399 1361 374 q 1388 465 1388 425 q 1373 531 1388 504 q 1333 572 1358 557 q 1275 594 1308 588 q 1204 601 1242 601 l 1186 601 q 1129 594 1158 601 q 1074 569 1100 586 q 1028 526 1049 553 q 996 461 1007 500 l 974 394 q 1065 349 1008 367 q 1186 332 1121 332 z "},"∫":{"ha":928,"x_min":69,"x_max":817,"o":"m 621 146 q 658 16 647 71 q 668 -87 668 -39 q 644 -208 668 -157 q 575 -292 619 -258 q 469 -343 531 -326 q 333 -360 407 -360 l 69 -360 l 69 -187 l 261 -187 q 362 -181 322 -187 q 422 -154 401 -175 q 442 -124 432 -144 q 451 -69 451 -104 q 448 -37 451 -56 q 439 0 444 -19 q 427 40 433 19 q 415 76 421 60 l 265 503 q 228 633 239 578 q 218 736 218 688 q 242 856 218 804 q 311 941 267 907 q 417 992 356 975 q 553 1008 479 1008 l 817 1008 l 817 836 l 625 836 q 524 830 564 836 q 464 803 485 824 q 444 773 454 793 q 435 718 435 753 q 438 686 435 704 q 447 648 442 668 q 459 608 453 628 q 471 572 465 589 l 621 146 z "},"≈":{"ha":1222,"x_min":79,"x_max":1103,"o":"m 1103 651 q 972 517 1046 564 q 817 471 899 471 q 703 485 751 471 q 606 517 654 500 l 554 535 q 485 555 521 546 q 421 564 450 564 q 199 458 296 564 l 79 579 q 235 710 149 665 q 415 754 321 754 q 511 744 464 754 q 610 714 558 733 l 665 693 q 738 666 701 678 q 807 654 774 654 q 899 681 853 654 q 981 758 944 708 l 1103 651 m 1103 261 q 972 127 1046 174 q 817 81 899 81 q 703 95 751 81 q 606 126 654 110 l 554 144 q 485 165 521 156 q 421 174 450 174 q 199 68 296 174 l 79 189 q 235 319 149 275 q 415 364 321 364 q 511 353 464 364 q 610 324 558 343 l 665 303 q 738 276 701 288 q 807 264 774 264 q 899 291 853 264 q 981 368 944 318 l 1103 261 z "},"≠":{"ha":1222,"x_min":119,"x_max":1063,"o":"m 521 111 l 419 -69 l 249 -69 l 350 111 l 119 111 l 119 306 l 460 306 l 569 501 l 119 501 l 119 696 l 679 696 l 774 864 l 944 864 l 850 696 l 1063 696 l 1063 501 l 740 501 l 631 306 l 1063 306 l 1063 111 l 521 111 z "},"≤":{"ha":1222,"x_min":119,"x_max":1063,"o":"m 1029 456 l 971 286 l 157 510 l 157 728 l 965 954 l 1029 782 l 429 619 l 1029 456 m 119 0 l 119 194 l 1063 194 l 1063 0 l 119 0 z "},"≥":{"ha":1222,"x_min":118,"x_max":1061,"o":"m 751 619 l 151 782 l 215 954 l 1024 728 l 1024 510 l 210 286 l 151 456 l 751 619 m 118 0 l 118 194 l 1061 194 l 1061 0 l 118 0 z "},"◊":{"ha":1431,"x_min":117,"x_max":1272,"o":"m 1003 503 l 708 814 l 697 814 l 386 503 l 697 192 l 708 192 l 1003 503 m 817 0 l 588 0 l 117 471 l 117 535 l 588 1007 l 817 1007 l 1272 535 q 1272 523 1271 533 q 1272 501 1272 513 l 1272 471 l 817 0 z "},"":{"ha":851,"x_min":139,"x_max":671,"o":"m 317 276 l 317 365 l 585 365 l 585 453 l 317 453 l 317 719 l 671 719 l 671 631 l 406 631 l 406 542 l 671 542 l 671 276 l 317 276 m 228 810 l 228 89 l 328 89 l 328 0 l 139 0 l 139 899 l 671 899 l 671 810 l 228 810 z "},"ﬁ":{"ha":1213,"x_min":100,"x_max":1068,"o":"m 833 465 l 335 465 l 335 0 l 100 0 l 100 690 q 117 828 100 774 q 174 924 133 883 q 302 990 225 972 q 492 1008 379 1008 l 957 1008 l 957 836 l 525 836 q 426 830 464 836 q 367 803 388 824 q 342 757 350 786 q 335 678 335 728 l 335 629 l 1068 629 l 1068 0 l 833 0 l 833 465 z "},"ﬂ":{"ha":1244,"x_min":100,"x_max":1100,"o":"m 525 836 q 426 830 464 836 q 367 803 388 824 q 342 757 350 786 q 335 678 335 728 l 335 629 l 731 629 l 731 465 l 335 465 l 335 0 l 100 0 l 100 690 q 117 828 100 774 q 174 924 133 883 q 302 990 225 972 q 492 1008 379 1008 l 1100 1008 l 1100 0 l 865 0 l 865 836 l 525 836 z "}}}
